<svg xmlns="http://www.w3.org/2000/svg" viewBox="0 0 512 512"><path d="M437.1 74.9C337.2-25 174.8-25 74.9 74.9c-99.9 99.9-99.9 262.4 0 362.2 99.8 99.9 262.3 99.9 362.2 0C537 337.2 537 174.8 437.1 74.9zM409.2 409.2c-84.5 84.5-221.9 84.5-306.3 0 -84.5-84.5-84.5-221.9 0-306.4 84.5-84.4 221.9-84.5 306.3 0C493.6 187.3 493.6 324.7 409.2 409.2z"/><path d="M332.9 278.6c2.8 6.5-0.2 15-6.7 17.8 -6.5 2.8-16-0.2-18.8-6.7 -10.5-22.2-47.5-26.4-56.4-26.4 -9 0-32.6 4.2-46.3 28.2 -2 4.9-8.8 7.9-13.8 7.9 -1.6 0-3.3-0.3-4.9-1 -6.5-2.7-10.6-11.2-7.9-17.7 14.7-32 48.1-45 72.9-45C268 235.7 316.5 240.7 332.9 278.6z"/><path d="M88 186.7c0-16.5 13.4-29.9 29.9-29.9 16.5 0 29.9 13.4 29.9 29.9 0 16.5-13.4 29.9-29.9 29.9C101.4 216.6 88 203.2 88 186.7z"/><path d="M354.3 186.7c0-16.5 13.4-29.9 29.9-29.9 16.5 0 29.9 13.4 29.9 29.9 0 16.5-13.4 29.9-29.9 29.9C367.8 216.6 354.3 203.2 354.3 186.7z"/></svg>