<?xml version="1.0" encoding="utf-8"?>
<!-- Generator: Adobe Illustrator 24.0.0, SVG Export Plug-In . SVG Version: 6.00 Build 0)  -->
<svg version="1.1" id="Layer_1" xmlns="http://www.w3.org/2000/svg" xmlns:xlink="http://www.w3.org/1999/xlink" x="0px" y="0px"
	 viewBox="0 0 512 512" style="enable-background:new 0 0 512 512;" xml:space="preserve">
<style type="text/css">
	.inner{fill:#FFFFFF;}
</style>
<path class="inner" d="M510.2,113.5c-0.1-1.6-0.3-3.4-1-5.3c-0.4-1-0.9-1.7-1.3-2.3c-0.1-0.2-0.3-0.4-0.4-0.6
	c-0.1-0.2-0.2-0.3-0.3-0.5c-0.2-0.4-0.5-0.9-0.9-1.4c-2.1-2.7-4.6-4.7-7.4-5.9c-0.2-0.1-0.4-0.2-0.7-0.3L246.9,3
	c-4.5-1.8-9.5-1.7-14,0.3L12.8,97.6c-0.5,0.2-0.8,0.5-1,0.7c-2.3,1.2-4.4,3-6.2,5.3c-0.4,0.6-0.9,1.2-1.4,2
	c-0.1,0.1-0.1,0.2-0.2,0.3c-0.3,0.3-0.7,0.9-1,1.6c-1,2.3-1.5,4.8-1.5,7.4v282.9c0,7.5,4.5,14.3,11.3,17.2l220.1,94.3l0.6,0.2h0
	c2.2,0.8,4.4,1.3,6.7,1.3c2.2,0,4.4-0.4,6.6-1.2l0.1,0l251.4-94.3c7.3-2.7,12.1-9.8,12.1-17.5V114.8
	C510.5,114.2,510.4,113.8,510.2,113.5z"/>
<path d="M76.3,378.8l62.9,26.7c2.3,1,4.8,1.5,7.3,1.5c7.5,0,14.3-4.5,17.2-11.4c2-4.6,2-9.7,0.1-14.4c-1.9-4.6-5.4-8.2-10-10.2
	l-62.9-26.7c-4.6-2-9.6-2-14.3-0.1c-4.7,1.9-8.3,5.4-10.3,10.1c-2,4.6-2,9.7-0.1,14.4C68.1,373.3,71.7,376.9,76.3,378.8z"/>
<path d="M510.8,113.2c-0.1-1.6-0.3-3.4-1-5.3c-0.4-1-0.9-1.7-1.3-2.3c-0.1-0.2-0.3-0.4-0.4-0.6c-0.1-0.2-0.2-0.3-0.3-0.5
	c-0.2-0.4-0.5-0.9-0.9-1.4c-2.1-2.7-4.6-4.7-7.4-5.9c-0.2-0.1-0.4-0.2-0.7-0.3L247.4,2.8c-4.5-1.8-9.5-1.7-14,0.3L13.3,97.3
	c-0.5,0.2-0.8,0.5-1,0.7c-2.3,1.2-4.4,3-6.2,5.3c-0.4,0.6-0.9,1.2-1.4,2c-0.1,0.1-0.1,0.2-0.2,0.3c-0.3,0.3-0.7,0.9-1,1.6
	c-1,2.3-1.5,4.8-1.5,7.4v282.9c0,7.5,4.5,14.3,11.3,17.2L233.4,509l0.6,0.2h0c2.2,0.8,4.4,1.3,6.7,1.3c2.2,0,4.4-0.4,6.6-1.2l0.1,0
	L498.9,415c7.3-2.7,12.1-9.8,12.1-17.5V114.5C511,114,510.9,113.5,510.8,113.2z M222.1,221.2v242.2L39.4,385.1V142.9L222.1,221.2z
	 M353.8,256.6v-70.2l25.4-9.5v70.2L353.8,256.6z M303.6,128.3l45,20.1l-13.4,5l-46-19L303.6,128.3z M398.4,129.7l-87.1-39
	c-5.2-2.3-11.3-2.1-16.3,0.6l-61.5,26.1c-6.9,2.9-11.4,9.7-11.4,17.3c0,7.6,4.6,14.4,11.6,17.3l50.1,20.7l-42.6,15.9l-173-74.1
	l173-74.1L439,114.5L398.4,129.7z M259.5,221.8l56.9-21.3v83.2c0,6.1,3,11.8,8,15.4c5,3.4,11.4,4.3,17.3,2.1l62.9-23.6
	c7.2-2.8,12.1-9.8,12.1-17.5v-97.2l56.9-21.3v243l-214.1,80.3V221.8z"/>
</svg>
