<?xml version="1.0" encoding="utf-8"?>
<!-- Generator: Adobe Illustrator 24.0.0, SVG Export Plug-In . SVG Version: 6.00 Build 0)  -->
<svg version="1.1" id="calendar_svg" xmlns="http://www.w3.org/2000/svg" xmlns:xlink="http://www.w3.org/1999/xlink" x="0px"
	 y="0px" viewBox="0 0 512 512" style="enable-background:new 0 0 512 512;" xml:space="preserve">
<g id="calendar">
	<path d="M279,364c0,22.1,17.9,40,40,40h47c22.1,0,40-17.9,40-40v-47c0-22.1-17.9-40-40-40h-47c-22.1,0-40,17.9-40,40V364z M319,317
		h47l0,47c0,0,0,0,0,0h-47V317z"/>
	<circle cx="386" cy="210" r="20"/>
	<circle cx="299" cy="210" r="20"/>
	<g>
		<path d="M432,40h-26V20c0-11-9-20-20-20c-11,0-20,9-20,20v20h-91V20c0-11-9-20-20-20c-11,0-20,9-20,20v20h-90V20c0-11-9-20-20-20
			s-20,9-20,20v20H80C35.9,40,0,75.9,0,120v312c0,44.1,35.9,80,80,80h352c44.1,0,80-35.9,80-80V120C512,75.9,476.1,40,432,40z
			 M472,432c0,22.1-17.9,40-40,40H80c-22.1,0-40-17.9-40-40V120c0-22.1,17.9-40,40-40h25v20c0,11,9,20,20,20s20-9,20-20V80h90v20
			c0,11,9,20,20,20s20-9,20-20V80h91v20c0,11,9,20,20,20c11,0,20-9,20-20V80h26c22.1,0,40,17.9,40,40V432z"/>
	</g>
	<circle cx="125" cy="384" r="20"/>
	<circle cx="125" cy="210" r="20"/>
	<circle cx="125" cy="297" r="20"/>
	<circle cx="212" cy="297" r="20"/>
	<circle cx="212" cy="210" r="20"/>
	<circle cx="212" cy="384" r="20"/>
</g>
</svg>
