<?xml version="1.0" encoding="utf-8"?>
<!-- Generator: Adobe Illustrator 24.0.0, SVG Export Plug-In . SVG Version: 6.00 Build 0)  -->
<svg version="1.1" id="candy_svg" xmlns="http://www.w3.org/2000/svg" xmlns:xlink="http://www.w3.org/1999/xlink" x="0px" y="0px"
	 viewBox="0 0 512 512" style="enable-background:new 0 0 512 512;" xml:space="preserve">
<style type="text/css">
	.candy_st0{fill:#B2D5FF;}
	.candy_st1{fill:#F57E00;}
	.candy_st2{fill:#04D481;}
	.candy_st3{fill:#FDED32;}
	.candy_st4{fill:#FDCB6B;}
	.candy_st5{fill:#F52C2C;}
	.candy_st6{fill:#CC98E8;}
	.candy_st7{fill:#BF80E2;}
	.candy_st8{fill:#FF94D4;}
	.candy_st9{fill:#FF73C6;}
	.candy_st10{fill:#FF4FB8;}
	.candy_st11{fill:#9A2CF5;}
</style>
<g id="candy_background">
	<circle class="candy_st0" cx="256" cy="303.5" r="90"/>
</g>
<g id="candy_bits">
	<path id="orange_bit" class="candy_st1" d="M406.9,206.1c0,13.8-11.2,25-25,25s-25-11.2-25-25s11.2-25,25-25S406.9,192.3,406.9,206.1z"/>
	<path id="green_bit" class="candy_st2" d="M214.1,338.5c0,13.8-11.2,25-25,25s-25-11.2-25-25s11.2-25,25-25C202.9,313.5,214.1,324.7,214.1,338.5z"/>
	<path id="yellow_bit_1" class="candy_st3" d="M331,379.9c0,5.5-4.5,10-10,10s-10-4.5-10-10s4.5-10,10-10S331,374.4,331,379.9z"/>
	<path id="yellow_bit_2" class="candy_st3" d="M195.5,425.8c0,5.5-4.5,10-10,10s-10-4.5-10-10s4.5-10,10-10S195.5,420.2,195.5,425.8z"/>
	<path id="orange_bit_1" class="candy_st4" d="M348.5,319.5c0,5.5-4.5,10-10,10s-10-4.5-10-10s4.5-10,10-10S348.5,314,348.5,319.5z"/>
	<path id="orange_bit_2" class="candy_st4" d="M214.1,250.1c0,5.5-4.5,10-10,10s-10-4.5-10-10s4.5-10,10-10S214.1,244.5,214.1,250.1z"/>
	<path id="red_bit_1" class="candy_st5" d="M295.9,389.9c0,5.5-4.5,10-10,10s-10-4.5-10-10s4.5-10,10-10S295.9,384.4,295.9,389.9z"/>
	<path id="purple_bit" class="candy_st11" d="M321,303.5c0,5.5-4.5,10-10,10s-10-4.5-10-10s4.5-10,10-10S321,298,321,303.5z"/>
	<path id="red_bit_3" class="candy_st5" d="M255.2,253.5c0,5.5-4.5,10-10,10s-10-4.5-10-10s4.5-10,10-10S255.2,248,255.2,253.5z"/>
</g>
<g id="candy_base">
	<g>
		<path class="candy_st6" d="M433.2,212.7c-14.5-14.5-10-18.9-24.5-33.4s-18.9-10-33.4-24.5c-11.3-11.2-11.2-16.3-17.1-24.8
			c-2.5-3.6-7.8-4-10.3-0.8c-27.7,35.9-17.1,95.3-17.1,95.3l0.9,17l14.9,14.9l17,0.9c0,0,59.4,10.5,95.3-17.1
			c3.3-2.5,2.9-7.7-0.8-10.3C449.5,223.8,444.4,223.9,433.2,212.7z"/>
		<path class="candy_st7" d="M458,229.9c-5.4-3.9-9.6-5.3-14.9-8.8C407.2,248,346.3,240,346.3,240l-14.7-0.8l0.1,2.3l14.9,14.9l17,0.9
			c0,0,59.4,10.5,95.3-17.1C462,237.6,461.6,232.4,458,229.9z"/>
		<path class="candy_st6" d="M161.7,484.2c-14.5-14.5-18.9-10-33.4-24.5s-10-18.9-24.5-33.4c-11.2-11.2-16.3-11.1-24.8-17.1
			c-3.6-2.5-4-7.8-0.8-10.3c35.8-27.7,95.3-17.1,95.3-17.1l17,0.9l14.9,14.9l0.9,17c0,0,10.5,59.4-17.1,95.3
			c-2.5,3.3-7.7,2.9-10.3-0.8C172.8,500.6,172.9,495.4,161.7,484.2z"/>
		<g>
			<path class="candy_st7" d="M189.1,509.8c27.7-35.8,17.1-95.3,17.1-95.3l-0.9-17l-14.9-14.9l-2.3-0.1l0.8,14.7c0,0,8.2,61-18.9,96.9
				c3.5,5.3,4.8,9.4,8.8,14.9C181.4,512.6,186.6,513.1,189.1,509.8z"/>
			<path class="candy_st7" d="M341.9,243.2c-0.5,0-1.1-0.1-1.5-0.2c-3.1-0.9-4.9-4-4-7.1c2.6-9.6,7.5-27.5,18.7-42.6
				c1.9-2.5,5.5-3.2,8.1-1.2c2.5,1.9,3.2,5.5,1.2,8.1c-9.9,13.4-14.2,29.3-16.8,38.8C346.7,241.6,344.4,243.2,341.9,243.2z"/>
			<path class="candy_st7" d="M353.1,254.9c-2.5,0-4.9-1.8-5.6-4.4c-0.8-3.1,1.1-6.2,4.1-7.1c8.9-2.3,25.3-6.6,39.2-17.1
				c2.5-1.9,6.2-1.4,8.2,1.1c1.9,2.5,1.4,6.2-1.1,8.2c-15.7,11.9-33.7,16.5-43.2,19.1C354.1,254.8,353.6,254.9,353.1,254.9z"/>
			<path class="candy_st7" d="M147.1,415.8c-1.8,0-3.6-0.9-4.7-2.5c-1.8-2.6-1.2-6.2,1.4-8.1c14.8-10.5,32-15.1,41.2-17.7
				c3.1-0.9,6.3,1,7.1,4c0.8,3.1-1,6.3-4,7.1c-9.1,2.5-24.4,6.7-37.6,15.9C149.5,415.4,148.2,415.8,147.1,415.8z"/>
			<path class="candy_st7" d="M181.3,449.9c-1.1,0-2.4-0.4-3.3-1.1c-2.6-1.8-3.2-5.5-1.3-8.1c9.7-13.5,13.8-29.3,16-37.8
				c0.8-3.1,4-5,7.1-4.1c3.1,0.8,5,4,4.1,7.1c-2.4,9.2-6.9,26.4-17.8,41.6C184.9,449.1,183,449.9,181.3,449.9z"/>
		</g>
		<path class="candy_st8" d="M348.6,239.3c-44.3-44.3-116.1-44.3-160.4,0s-44.3,116.1,0,160.4s116.1,44.3,160.4,0
			C392.9,355.5,392.9,283.6,348.6,239.3z"/>
		<path class="candy_st9" d="M348.6,239.3c-3-3-6.1-5.7-9.2-8.3c35.8,44.6,33,109.9-8.3,151.2s-106.6,44.1-151.2,8.3
			c2.5,3.2,5.4,6.2,8.3,9.2c44.3,44.3,116.1,44.3,160.4,0C392.9,355.5,392.9,283.6,348.6,239.3z"/>
		<path class="candy_st9" d="M188.2,399.8c3.3,3.3,6.7,6.3,10.3,9.1V230.2c-3.6,2.8-7,5.8-10.3,9.1C143.9,283.6,143.9,355.5,188.2,399.8z"
			/>
		<path class="candy_st9" d="M338.5,230.3v178.5c3.5-2.8,6.9-5.8,10.2-9.1c44.3-44.3,44.3-116.1,0-160.4C345.4,236,342,233,338.5,230.3z"
			/>
		<path class="candy_st10" d="M348.6,239.3c-3-3-6.1-5.7-9.2-8.3c33.5,41.7,33.2,101.7-1,143.1v34.6c3.5-2.8,6.9-5.8,10.2-9.1
			C392.9,355.5,392.9,283.6,348.6,239.3z"/>
		<path class="candy_st9" d="M245.2,208.5v222c15.4,3.3,31.3,3.2,46.7,0v-222C276.5,205.3,260.6,205.3,245.2,208.5z"/>
		<path class="candy_st10" d="M291.9,407.8c-14.9,5.8-30.9,8.3-46.7,7.5v15.3l0,0c15.3,3.2,31,3.2,46.3,0.1c0.1,0,0.2-0.1,0.4-0.1V407.8z"
			/>
	</g>
</g>
</svg>
