<?xml version="1.0" encoding="utf-8"?>
<!-- Generator: Adobe Illustrator 24.0.0, SVG Export Plug-In . SVG Version: 6.00 Build 0)  -->
<svg version="1.1" id="chips_svg" xmlns="http://www.w3.org/2000/svg" xmlns:xlink="http://www.w3.org/1999/xlink" x="0px" y="0px"
	 viewBox="0 0 512 512" style="enable-background:new 0 0 512 512;" xml:space="preserve">
<style type="text/css">
	.st_200{fill:#B2D5FF;}
	.st_201{fill:#FFC250;}
	.st_202{fill:#FFD064;}
	.st_203{fill:#EDEDED;}
	.st_204{fill:#DBDBDB;}
	.st_205{fill:#F69E20;}
	.st_206{fill:#E28424;}
</style>
<g id="chips_background">
	<circle class="st_200" cx="256" cy="256" r="90"/>
</g>
<g id="chip_2">
	<g>
		<path class="st_201" d="M207.2,144.8c0,0-30.8-14.4-11.6-29.9c19.2-15.4,41.9,3.2,48.9,20.5L207.2,144.8z"/>
		<path class="st_202" d="M190.4,130.4c7.3,18.9,17.9,10.4,28.8,25.2c10.9,14.8-7,46.9,18.1,53.7c25.2,6.9,40.1-14.9,40.2-37.5
			s-22.4-39.3-42.3-36.5C215.3,138.2,196.6,141.4,190.4,130.4L190.4,130.4z"/>
		<path class="st_201" d="M269.5,182.1v0.2c0.3,1.9-1,3.6-2.8,3.9s-3.6-1-3.9-2.8v-0.2c-0.3-1.9,1-3.6,2.8-3.9c1.2-0.2,2.4,0.3,3.1,1.2
			C269.1,180.9,269.4,181.5,269.5,182.1z"/>
		<path class="st_201" d="M266.5,190.8v0.2c0.3,1.9-1,3.6-2.8,3.9c-1.9,0.3-3.6-1-3.9-2.8v-0.2c-0.3-1.9,1-3.6,2.8-3.9
			c1.2-0.2,2.4,0.3,3.1,1.2C266.1,189.7,266.4,190.2,266.5,190.8z"/>
		<path class="st_201" d="M260.4,183.6v0.2c0.3,1.9-1,3.6-2.8,3.9s-3.6-1-3.9-2.8v-0.2c-0.3-1.9,1-3.6,2.8-3.9c1.2-0.2,2.4,0.3,3.1,1.2
			C259.9,182.4,260.2,182.9,260.4,183.6z"/>
	</g>
</g>
<g>
	<g id="chip_bag">
		<path class="st_203" d="M359.4,464.9c1.3,10.5-11.5,16.7-18.6,8.9c-3.3-3.4-7-6.3-13.7-7c-17.1-1.7-18.7,15.1-35.8,13.4
			c-17.1-1.7-15.6-18.4-32.6-20s-18.7,15.1-35.8,13.4s-15.6-18.4-32.6-20s-18.7,15.1-35.8,13.4s-15.6-18.4-32.6-20
			c-6.7-0.7-11,1.5-14.8,4.3c-8.5,6.2-19.9-2.3-16.7-12.4c5.1-15.6,12.3-23.3,12.3-23.3L130,131.9c0,0-5.6-9-7.6-25.2
			C121,96.4,133.8,90,141,97.9c3.3,3.4,7,6.3,13.7,7c6.9,0.7,11.3-1.7,15.2-4.7c5.8-4.3,10.5-9.9,20.7-8.9
			c17.1,1.7,15.6,18.4,32.6,20s18.7-15.1,35.8-13.4s15.6,18.4,32.6,20s18.7-15.1,35.8-13.4s15.6,18.4,32.6,20
			c6.7,0.7,11-1.5,14.8-4.3c8.5-6.2,19.9,2.3,16.7,12.4c-5.1,15.6-12.3,23.3-12.3,23.3L352,439.6
			C351.8,439.7,357.3,448.7,359.4,464.9L359.4,464.9z"/>
		<path class="st_204" d="M127.9,152.5l2-20.6c0,0-5.6-9-7.6-25.2C121,96.4,133.8,90,141,97.9c3.3,3.4,7,6.3,13.7,7
			c6.9,0.7,11.3-1.7,15.2-4.7c1.4,17.4,5.4,31.5,5.4,31.5L127.9,152.5z"/>
		<path class="st_204" d="M104.7,395.1l-2,20.6c0,0-7.2,7.8-12.3,23.3c-3.3,10,8.1,18.5,16.7,12.4c3.8-2.8,8.1-4.9,14.8-4.3
			c6.9,0.7,10.8,3.8,14.1,7.5c4.7-16.9,11.3-29.9,11.3-29.9L104.7,395.1z"/>
		<path class="st_205" d="M379.1,155.2C311.9,140,243.9,132,175.3,130.9c-15.1-0.3-25.8,3.3-41,3.7c-18.2,94-31.7,185.4-31.7,281.2
			c82,18.4,165.1,26.4,249.2,23.9C370.1,345.7,379.1,250.9,379.1,155.2L379.1,155.2z"/>
		<path class="st_206" d="M147.1,424.6c-14.9-2.6-29.6-5.6-44.4-8.9c0-95.7,9.1-190.5,27.3-284.5c15.1-0.4,30.2-0.6,45.3-0.4
			C156.6,227.9,147.2,325.8,147.1,424.6z"/>
		<path class="st_203" d="M342.4,295.2c-4.9,51.7-54.5,89.1-110.5,83.7c-36.4-3.4-66.6-24.2-81.9-52.4c-8.3-15.3-12.3-32.7-10.5-50.8
			c1.8-18.1,9-34.5,20.1-47.9c20.5-24.8,54.1-39.2,90.4-35.8C305.9,197.4,347.3,243.6,342.4,295.2z"/>
		<path class="st1" d="M225.1,314.4c-25.1,5.3-64-6.3-61.1-40.3s43.2-9.7,43.2-9.7L225.1,314.4z"/>
		<path class="st_202" d="M177.7,256.3c17.3-1.3,28.1,22.6,40.3,47.5c12,25,48.5,38,74.4,20.4c25.8-17.6,39.2-51.3,11.9-75
			c-27.3-23.6-50.2,21.8-75.5,20.7C203.4,268.8,204.9,250,177.7,256.3L177.7,256.3z"/>
	</g>
	<g id="chip_1">
		<path class="st_201" d="M308.9,481.2c-24.9,5.2-63.1-6.2-60.3-39.7c2.9-33.5,42.6-9.6,42.6-9.6L308.9,481.2z"/>
		<path class="st_202" d="M262.2,423.9c17.1-1.3,27.8,22.3,39.7,46.9c11.9,24.6,47.9,37.4,73.3,20.1s38.7-50.7,11.8-73.9
			c-26.9-23.2-49.5,21.5-74.5,20.3C287.6,436.1,289,417.7,262.2,423.9L262.2,423.9z"/>
		<path class="st_201" d="M378.2,474.3c-1.5-0.1-3-1.1-3.8-2.6c-1.1-2.3-0.1-5.1,2.3-6.2l0.3-0.1c2.3-1.1,5.1-0.1,6.2,2.3
			s0.1,5.1-2.3,6.2l-0.3,0.1C379.8,474.3,379,474.5,378.2,474.3z"/>
		<path class="st_201" d="M385.8,464.3c-1.5-0.1-3-1.1-3.8-2.6c-1.1-2.3-0.1-5.1,2.3-6.2l0.3-0.1c2.3-1.1,5.1-0.1,6.2,2.3
			s0.1,5.1-2.3,6.2l-0.3,0.1C387.5,464.3,386.6,464.4,385.8,464.3z"/>
		<path class="st_201" d="M372.9,462.9c-1.5-0.1-3-1.1-3.8-2.6c-1.1-2.3-0.1-5.1,2.3-6.2l0.3-0.1c2.3-1.1,5.1-0.1,6.2,2.3
			s0.1,5.1-2.3,6.2l-0.3,0.1C374.4,462.8,373.6,462.9,372.9,462.9z"/>
	</g>
</g>
</svg>
