<?xml version="1.0" encoding="utf-8"?>
<!-- Generator: Adobe Illustrator 24.0.0, SVG Export Plug-In . SVG Version: 6.00 Build 0)  -->
<svg version="1.1" id="chocolate_svg" xmlns="http://www.w3.org/2000/svg" xmlns:xlink="http://www.w3.org/1999/xlink" x="0px"
	 y="0px" viewBox="0 0 512 512" style="enable-background:new 0 0 512 512;" xml:space="preserve">
<style type="text/css">
	.chocolate_st0{fill:#B2D5FF;}
	.chocolate_st1{fill:#7A432A;}
	.chocolate_st2{fill:#6E3C26;}
	.chocolate_st3{fill:#92563A;}
	.chocolate_st4{fill:#FFB531;}
	.chocolate_st5{fill:#FFA912;}
	.chocolate_st6{fill:#F35244;}
	.chocolate_st7{fill:#E64C3F;}
	.chocolate_st8{fill:#E5E7E9;}
</style>
<g id="chocolate_background">
	<circle class="chocolate_st0" cx="261" cy="260" r="90"/>
</g>
<g id="chocolate_bar">
	<g>
		<g>
			<path class="chocolate_st1" d="M304.2,183.4c3.2-2.6,26.7-76.8,31.5-90.4c0,0,11.8-4.4,14.5-3.4c2.7,0.9,6.5,2.3,6.5,2.3l65.9,22.8
				c8.9,3.1,13.6,12.8,10.5,21.6l0,0l-22.8,65.8c-0.9,2.5-2.3,4.8-4.2,6.6l-9.2,9l1.7,12.8c0.3,2.6,0.1,5.3-0.8,7.8l-81.5,235.6
				c-1.4,3.9-5.7,6-9.6,4.7l0,0L121,414.3c-3.9-1.4-6-5.7-4.7-9.6l0.1-0.3l81.4-235.2c0.9-2.5,2.3-4.8,4.2-6.6l9.2-9
				C211.3,153.5,301.6,185.6,304.2,183.4z"/>
			<path class="chocolate_st2" d="M306.7,478.5l-35.6-12.3l129.1-359.3l22.4,7.8c8.9,3.1,13.6,12.8,10.5,21.6l0,0l-22.8,65.8
				c-0.9,2.5-2.3,4.8-4.2,6.6l-9.2,9l1.7,12.8c0.3,2.6,0.1,5.3-0.8,7.8l-81.5,235.6C315,477.8,310.7,479.9,306.7,478.5L306.7,478.5z
				"/>
			<path class="chocolate_st3" d="M343.1,119.1l57.1,19.8L380.4,196l-57.1-19.8L343.1,119.1z"/>
			<path class="chocolate_st3" d="M227.7,175.1l57.1,19.8L265.1,252L208,232.2L227.7,175.1z"/>
			<path class="chocolate_st3" d="M313.4,204.8l57.1,19.8l-19.8,57.1l-57.1-19.8L313.4,204.8z"/>
			<g>
				<path class="chocolate_st4" d="M110.4,415.4l25.2,51.9l19.5-9.5l9.5,19.5l19.5-9.5l9.5,19.5l19.5-9.5l9.5,19.5l19.5-9.5l9.5,19.5l19.5-9.5
					l6.3,13l38.9-18.9L110.4,415.4z"/>
				<path class="chocolate_st5" d="M189.8,479.8l3.7,7.5l19.5-9.5l9.5,19.5l19.5-9.5l9.5,19.5l19.5-9.5l6.3,13l38.9-18.9l-92.1-34.3
					C223.9,457.6,210.7,468.5,189.8,479.8z"/>
				<path class="chocolate_st6" d="M372.9,311.9l-56.9,180l-205.7-76.6l60.1-173.6L372.9,311.9z"/>
				<path class="chocolate_st7" d="M372.9,311.9l-56.9,180c0,0-70.6-25.8-92.1-34.3c62.4-72.8,99.8-162.8,99.8-162.8L372.9,311.9z"/>
				<path class="chocolate_st8" d="M372.9,311.9l9.6,45.6l-90.8,14.8L170.4,241.8L372.9,311.9z"/>
			</g>
		</g>
		<g id="chocolate_bit">
			<path class="chocolate_st1" d="M305.2,184.4c-5.9,1.4-83.9-26.4-93.9-29.9l-1.7-13.8c-0.3-2.6-0.1-5.3,0.8-7.8l22.8-65.8
				c3.1-8.9,12.8-13.6,21.6-10.5l0,0l66,22.9c0,0,4.6,1.4,6.7,2.5s9.1,11,9.1,11S309.9,183.3,305.2,184.4z"/>
			<path class="chocolate_st3" d="M257.4,89.4l57.1,19.8l-19.8,57.1l-57.1-19.8L257.4,89.4z"/>
		</g>
	</g>
</g>
</svg>
