<?xml version="1.0" encoding="utf-8"?>
<!-- Generator: Adobe Illustrator 24.0.0, SVG Export Plug-In . SVG Version: 6.00 Build 0)  -->
<svg version="1.1" id="cookies_svg" xmlns="http://www.w3.org/2000/svg" xmlns:xlink="http://www.w3.org/1999/xlink" x="0px"
	 y="0px" viewBox="0 0 464 464" style="enable-background:new 0 0 464 464;" xml:space="preserve">
<style type="text/css">
	.cookie_st0{fill:#B2D5FF;}
	.cookie_st1{fill:#A5694B;}
	.cookie_st2{fill:#B97850;}
	.cookie_st3{fill:#734B46;}
	.cookie_st4{fill:#644141;}
	.cookie_st5{fill:#C98850;}
	.cookie_st6{fill:#925F4A;}
</style>
<g id="cookies_background">
	<circle class="cookie_st0" cx="235.1" cy="225.1" r="44.1"/>
</g>
<g>
	<path id="cookie_bit_1" class="cookie_st1" d="M326.6,212.8l6.3,0.8c3.7,0.4,6,4.2,4.8,7.7l-4.3,13.4c-1.3,4.1-6.3,5.4-9.4,2.6l-6-5.2
		c-2-1.8-2.7-4.6-1.5-7l4.2-9C321.5,213.8,324,212.5,326.6,212.8z"/>
	<path id="cookie_bit_2" class="cookie_st1" d="M340.1,262l-0.1,1.1c-0.3,2.8,1.3,5.4,4.1,6.2l17.2,5.6c3.5,1.1,7.3-1.1,7.7-4.8l0.6-4.6
		c0.4-3.3-1.9-6.2-5.2-6.6l-17.6-2.1C343.4,256.5,340.5,258.7,340.1,262z"/>
	<g id="cookie_bit_3">
		<path class="cookie_st2" d="M298.5,207.2l44.3-13.6c2.9-0.9,4.7-4,4-7l-9.3-38.1c-0.7-3.1-3.8-5-6.9-4.4l-28.3,5.7
			c-1.7,0.3-3.2,1.4-4,2.9L285.5,176c-0.7,1.3-0.9,2.9-0.5,4.4l6,22.5C292,206.3,295.3,208.1,298.5,207.2z"/>
	</g>
	<g id="cookie_bit_4">
		<path class="cookie_st2" d="M348.8,215.8l1.6,20.3c0.2,3.1,3,5.6,6.1,5.5l24.5-1.2c3.1-0.1,5.7-2.7,5.6-5.9l-0.1-32.3
			c0-4.3-4.7-7.2-8.5-5.3L352.1,210C349.9,211.1,348.6,213.3,348.8,215.8z"/>
		<path class="cookie_st1" d="M360.6,236.1l-1.9-25.3c-0.2-1.8,0.4-3.5,1.5-4.9L352,210c-2.1,1.1-3.4,3.3-3.2,5.8l1.6,20.3
			c0.2,3.1,3,5.6,6.1,5.5l6.8-0.3C361.8,240,360.8,238.2,360.6,236.1z"/>
	</g>
	<path id="bite" class="cookie_st2" d="M269.9,173.3c-4.2,35.1,14,73.6,39.7,94.1c1.9,1.4,1.2,3.4,0.6,4.3c-2.6,4,0.9,8.8,4.5,11.8l12.5,11
		c3,2.7,7.4,3.1,11,1l12.8-4.2c0.7-0.3,1.1-0.9,1.6-1.3c4.5,1.3,9,2.2,13.9,2.8c10.2,1.3,34.7-2.4,35-0.2c8.5-76-34.3-147-101-176.4
		C303.4,118,272.3,153.1,269.9,173.3z"/>
	<g id="cookie_base">
		<path class="cookie_st2" d="M396.3,287.9c-9.5,2.3-19.6,2.2-29.8,0.9c-4.9-0.6-9.4-1.5-13.9-2.8c-0.5,0.4-0.9,1-1.6,1.3l-10.8,6.2
			c-3.6,2.1-8,1.7-11-1l-12.5-11c-3.6-3-4.1-6.8-1.5-10.8l0,0c0.6-0.9,1.3-2.9-0.6-4.3c-25.7-20.5-39.9-54-35.7-89.1
			c2.4-20.2,10.7-38.1,23-52.5c2.6-3,1.3-7.6-2.3-9.1c-17.1-7.4-35.8-12.2-55.6-13.6c-86.5-6.1-165.3,55-180.5,140.4
			c-17.4,97.5,50.8,188.2,147.8,200c93.7,11.3,179-55.5,190.3-149.3C401.8,290.9,400.8,286.9,396.3,287.9z"/>
		<path class="cookie_st1" d="M132.3,260.6c9.9-81.7,75.8-142.9,154.7-149.8c-11-3.7-22.6-6.5-34.6-7.9c-93.7-11.3-179,55.5-190.3,149.3
			s55.5,179,149.3,190.3c12,1.5,23.9,1.6,35.6,0.6C172,417.5,122.5,342.3,132.3,260.6z"/>
		<path class="cookie_st3" d="M203.6,263.5l-7.9,16.8c-2.6,5.3-0.7,11.7,4.1,14.9l17.4,11.5c4.2,2.8,9.8,2.6,13.8-0.6l12.2-9.6
			c4.2-3.3,5.7-9.2,3.5-14.1l-7.5-16.9c-1.7-3.7-5.3-6.4-9.3-6.9l-14.2-1.7C210.7,256.3,205.9,258.9,203.6,263.5z"/>
		<path class="cookie_st3" d="M148.2,179.6l3.4,18.2c1.1,5.8,6.2,9.8,12.1,9.6l20.9-0.9c5.1-0.2,9.4-3.7,10.8-8.6l4.3-15.1
			c1.5-5.2-0.7-10.8-5.4-13.4l-16-9.2c-3.6-2-8-2.1-11.7-0.1l-12.5,6.9C149.6,169.6,147.3,174.6,148.2,179.6z"/>
		<path class="cookie_st3" d="M275.2,177.3l-16.1,9.1c-5.1,2.9-7.3,9.1-5.2,14.6l7.6,19.4c1.8,4.8,6.5,7.7,11.6,7.4l15.6-0.8
			c5.4-0.4,10-4.2,10.9-9.6l3.5-18.2c0.8-4.1-0.6-8.2-3.6-11l-10.6-9.5C285.1,175.4,279.6,174.8,275.2,177.3z"/>
		<path class="cookie_st3" d="M106.4,273.9l2.2,14.7c0.7,4.6,4.7,8,9.3,8.1h16.6c4.1,0,7.6-2.6,8.9-6.5l4-11.9c1.4-4.1-0.3-8.6-3.9-10.8
			l-12.4-7.9c-2.8-1.7-6.3-1.9-9.3-0.4l-10.2,5.2C107.8,266,105.8,269.9,106.4,273.9z"/>
		<path class="cookie_st3" d="M307.8,333.8l-17.5-6.3c-5.5-2-11.7,0.4-14.5,5.5l-9.8,18.4c-2.5,4.5-1.6,10,1.8,13.6l10.8,11.4
			c3.8,3.9,9.7,4.8,14.3,2.1l16.1-9.1c3.7-2.1,5.8-5.7,6-9.9l0.4-14.3C315.8,340.1,312.6,335.5,307.8,333.8z"/>
		<path class="cookie_st3" d="M194,369.6l-8.4-12.2c-2.7-3.8-7.7-5.2-11.9-3.2l-14.9,7.4c-3.6,1.8-5.6,5.8-5.2,9.6l1.7,12.4
			c0.6,4.3,4,7.6,8.3,8.1l14.6,1.6c3.3,0.3,6.6-1.1,8.5-3.7l6.8-9.1C196.3,377.3,196.3,372.9,194,369.6z"/>
		<path class="cookie_st4" d="M164.2,199.3l-3.4-18.2c-0.9-5,1.4-10.1,5.8-12.5l12.5-6.9c0.3-0.2,0.5-0.2,0.8-0.3l-1.9-1.1
			c-3.6-2-8-2.1-11.7-0.1l-12.5,6.9c-4.5,2.5-6.7,7.4-5.8,12.5l3.4,18.2c1.1,5.8,6.2,9.8,12.1,9.6l6-0.3
			C166.9,205.4,164.9,202.7,164.2,199.3z"/>
		<path class="cookie_st4" d="M274.1,221.9l-7.6-19.4c-2.2-5.4,0.1-11.7,5.2-14.6l16.1-9.1c0.2-0.2,0.4-0.2,0.6-0.3
			c-3.9-3.1-9-3.7-13.4-1.2l-16,9.1c-5.1,2.9-7.3,9.1-5.2,14.6l7.6,19.4c1.8,4.8,6.5,7.7,11.6,7.4l5.8-0.3
			C276.7,226.2,275.1,224.2,274.1,221.9z"/>
		<path class="cookie_st4" d="M291.6,377.9l-10.8-11.4c-3.5-3.7-4.2-9.2-1.8-13.6l9.8-18.4c1.4-2.5,3.6-4.5,6.2-5.5l-4.4-1.6
			c-5.5-2-11.7,0.4-14.5,5.5l-9.8,18.4c-2.5,4.5-1.6,10,1.8,13.6l10.8,11.4c3.6,3.9,9.1,4.6,13.8,2.4
			C292.3,378.4,291.9,378.2,291.6,377.9z"/>
		<path class="cookie_st4" d="M212.6,296.7c-4.9-3.2-6.7-9.6-4.1-14.9l7.9-16.8c2.2-4.7,7-7.2,12.1-6.6l-12.7-1.5c-5-0.6-9.8,2.1-12.1,6.6
			l-7.9,16.8c-2.6,5.3-0.7,11.7,4.1,14.9l17.4,11.5c3.4,2.3,7.8,2.4,11.5,0.8L212.6,296.7z"/>
		<path class="cookie_st4" d="M121.2,290.1l-2.2-14.7c-0.6-4,1.5-7.9,5.1-9.8l9.3-4.6l-2.4-1.5c-2.8-1.7-6.3-1.9-9.3-0.4l-10.2,5.2
			c-3.6,1.8-5.6,5.8-5.1,9.8l2.2,14.7c0.7,4.6,4.7,8,9.3,8.1l7.8-0.1C123.3,295.2,121.6,292.8,121.2,290.1z"/>
		<path class="cookie_st4" d="M168.2,385.2l-1.7-12.4c-0.6-4,1.5-7.9,5.2-9.6l13.4-6.5c-2.8-3.2-7.3-4.2-11.1-2.3l-15,7.4
			c-3.6,1.8-5.6,5.8-5.2,9.6l1.7,12.4c0.6,4.3,4,7.6,8.3,8.1l11.6,1.2C171.6,392.2,168.7,389.2,168.2,385.2z"/>
		<path class="cookie_st5" d="M225,230.3L225,230.3c-3.3-0.4-5.5-3.3-5.2-6.6l1.4-11.7c0.4-3.3,3.3-5.5,6.6-5.2l0,0
			c3.3,0.4,5.5,3.3,5.2,6.6l-1.4,11.7C231.3,228.4,228.3,230.7,225,230.3z"/>
		<path class="cookie_st6" d="M171.7,250L171.7,250c-2.6,2-6.2,1.6-8.2-1l-7.2-9.2c-2-2.6-1.6-6.2,1-8.2l0,0c2.6-2,6.2-1.6,8.2,1l7.2,9.2
			C174.7,244.3,174.2,248,171.7,250z"/>
		<path class="cookie_st5" d="M161.4,328.7L161.4,328.7c-2.8-1.6-3.9-5.1-2.5-8.1l5.6-10.4c1.6-2.8,5.1-3.9,8.1-2.5l0,0
			c2.8,1.6,3.9,5.1,2.5,8.1l-5.6,10.4C167.9,329.1,164.2,330.1,161.4,328.7z"/>
		<path class="cookie_st6" d="M228.4,353.8L228.4,353.8c-3.3,0.4-6.2-2-6.5-5.1l-1.3-11.7c-0.4-3.3,2-6.2,5.1-6.5l0,0
			c3.3-0.4,6.2,2,6.5,5.1l1.3,11.7C234,350.5,231.6,353.5,228.4,353.8z"/>
		<path class="cookie_st6" d="M239.9,406.5L239.9,406.5c-0.8-3.1,1-6.3,4.2-7.2l11.4-3c3.1-0.8,6.3,1,7.2,4.2l0,0c0.8,3.1-1,6.3-4.2,7.2
			l-11.4,3C244,411.5,240.7,409.7,239.9,406.5z"/>
		<path class="cookie_st6" d="M236.4,148.7L236.4,148.7c1.2-3.1,4.6-4.6,7.7-3.4l11.1,4.1c3.1,1.2,4.6,4.6,3.4,7.7l0,0
			c-1.2,3.1-4.6,4.6-7.7,3.4l-11.1-4.1C236.8,155.2,235.2,151.7,236.4,148.7z"/>
		<path class="cookie_st6" d="M104.3,345.3L104.3,345.3c-2.9-1.5-4.1-5-2.6-7.9l5.3-10.5c1.5-2.9,5-4.1,7.9-2.6l0,0c2.9,1.5,4.1,5,2.6,7.9
			l-5.3,10.5C110.7,345.5,107.2,346.7,104.3,345.3z"/>
		<path class="cookie_st5" d="M112.6,206.5L112.6,206.5c3.3-0.4,6.2,1.9,6.6,5.1l1.4,11.8c0.4,3.3-1.9,6.2-5.1,6.6l0,0
			c-3.3,0.4-6.2-1.9-6.6-5.1l-1.4-11.8C107,209.8,109.3,206.8,112.6,206.5z"/>
		<path class="cookie_st6" d="M270.1,279.7L270.1,279.7c-2-2.6-1.6-6.2,1-8.2l9.2-7.2c2.6-2,6.2-1.6,8.2,1l0,0c2,2.6,1.6,6.2-1,8.2
			l-9.2,7.2C275.8,282.7,272.1,282.3,270.1,279.7z"/>
		<path class="cookie_st6" d="M345.2,311.8L345.2,311.8c2.6-2,6.2-1.6,8.2,1l7.2,9.2c2,2.6,1.6,6.2-1,8.2l0,0c-2.6,2-6.2,1.6-8.2-1
			l-7.2-9.2C342.2,317.6,342.7,313.9,345.2,311.8z"/>
		<path class="cookie_st5" d="M341.1,358.4L341.1,358.4c2.8,1.6,3.8,5.2,2.3,8l-5.8,10.3c-1.6,2.8-5.2,3.8-8,2.3l0,0
			c-2.8-1.6-3.8-5.2-2.3-8l5.8-10.3C334.6,357.8,338.3,356.9,341.1,358.4z"/>
	</g>
	<g id="chocolate_chip">
		<path class="cookie_st3" d="M381.1,270.6l-6.4-12.8c-2.1-4-6.5-5.8-10.5-4.3l-14.3,5.9c-3.5,1.4-5.7,5.2-5.7,8.9l0.3,12.3
			c0.1,4.3,2.9,7.8,6.8,8.7l13.2,2.9c3,0.6,6.1-0.5,8.1-2.8l7.1-8.3C382.5,278.4,382.9,274.1,381.1,270.6z"/>
		<path class="cookie_st4" d="M356,283.5l-0.3-12.3c-0.1-4,2.2-7.6,5.7-8.9l12.9-5.1c-2.2-3.4-6.2-4.8-9.9-3.3l-14.4,5.9
			c-3.5,1.4-5.7,5.2-5.7,8.9l0.3,12.3c0.1,4.3,2.9,7.8,6.8,8.7l10.5,2.3C358.4,290.7,356.1,287.5,356,283.5z"/>
	</g>
	<path id="cookie_sprinkle_1" class="cookie_st6" d="M345.5,193.3L345.5,193.3c1.4-2.9,4.9-4.2,7.8-2.7l10.5,5.1c2.9,1.4,4.2,4.9,2.7,7.8
		l0,0c-1.4,2.9-4.9,4.2-7.8,2.7l-10.5-5.1C345.3,199.7,344.1,196.2,345.5,193.3z"/>
	<path id="cookie_sprinkle_2" class="cookie_st5" d="M321.6,238.1L321.6,238.1c2.6-1.9,6.3-1.3,8.2,1.2l7,9.5c1.9,2.6,1.3,6.3-1.2,8.2l0,0
		c-2.6,1.9-6.3,1.3-8.2-1.2l-7-9.5C318.4,243.8,319.1,240.1,321.6,238.1z"/>
</g>
</svg>
