<?xml version="1.0" encoding="utf-8"?>
<!-- Generator: Adobe Illustrator 24.0.0, SVG Export Plug-In . SVG Version: 6.00 Build 0)  -->
<svg version="1.1" id="crackers_svg" xmlns="http://www.w3.org/2000/svg" xmlns:xlink="http://www.w3.org/1999/xlink" x="0px" y="0px"
	 viewBox="0 0 512 512" style="enable-background:new 0 0 512 512;" xml:space="preserve">
<style type="text/css">
	.st35{fill:#B2D5FF;}
	.st36{fill:#F9C450;}
	.st37{fill:#FFE266;}
	.st38{display:none;fill:#F9C450;}
</style>
<g id="crackers_background">
	<circle class="st35" cx="256" cy="282" r="65.7"/>
</g>
<g>
	<path id="cracker_bit_1" class="st36" d="M386.6,248.9c0.4,4.4-3,8.2-7.4,8.5s-8.2-3-8.5-7.4c-0.4-4.4,3-8.2,7.4-8.5
		C382.5,241.1,386.2,244.6,386.6,248.9z"/>
	<path id="cracker_bit_2" class="st36" d="M208.8,181.8c0.4,4.4-3,8.2-7.4,8.5c-4.4,0.4-8.2-3-8.5-7.4c-0.4-4.4,3-8.2,7.4-8.5S208.4,177.5,208.8,181.8z"
		/>
	<path id="cracker_bit_3" class="st37" d="M208.8,181.8c0.4,4.4-3,8.2-7.4,8.5c-4.4,0.4-8.2-3-8.5-7.4c-0.4-4.4,3-8.2,7.4-8.5S208.4,177.5,208.8,181.8z"
		/>
	<path id="cracker_bit_4" class="st37" d="M340,234.1c0.4,4.4-3,8.2-7.4,8.5c-4.4,0.4-8.2-3-8.5-7.4c-0.4-4.4,3-8.2,7.4-8.5
		C335.8,226.4,339.6,229.8,340,234.1z"/>
	<path id="cracker_bit_5" class="st37" d="M340,234.1c0.4,4.4-3,8.2-7.4,8.5c-4.4,0.4-8.2-3-8.5-7.4c-0.4-4.4,3-8.2,7.4-8.5
		C335.8,226.4,339.6,229.8,340,234.1z"/>
	<path id="cracker_bit_6" class="st36" d="M208.8,181.8c0.4,4.4-3,8.2-7.4,8.5c-4.4,0.4-8.2-3-8.5-7.4c-0.4-4.4,3-8.2,7.4-8.5S208.4,177.5,208.8,181.8z"
		/>
</g>
<g id="crackers">
	<g id="cracker_1">
		<path class="st37" d="M268.5,193c-0.8-12.3-11.4-21.5-23.7-20.7c12.3-0.8,21.5-11.4,20.7-23.7s-11.4-21.5-23.7-20.7
			c-12.3,0.8-21.5,11.4-20.7,23.7c-0.8-12.3-11.4-21.5-23.7-20.7s-21.5,11.4-20.7,23.7c-0.8-12.3-11.4-21.5-23.7-20.7
			s-21.5,11.4-20.7,23.7c-0.8-12.1-11.4-21.4-23.7-20.6s-21.5,11.4-20.7,23.7c-0.8-12.2-11.4-21.5-23.7-20.7
			c-12.2,0.9-21.4,11.4-20.7,23.7c0.8,12.3,11.4,21.5,23.7,20.7c-12.3,0.8-21.5,11.4-20.7,23.6c0.8,12.3,11.4,21.5,23.7,20.7
			c-12.2,0.8-21.5,11.4-20.7,23.7c0.9,12.2,11.4,21.5,23.7,20.7C60.7,274,51.5,284.7,52.3,297s11.4,21.5,23.7,20.7
			c-12.3,0.8-21.5,11.4-20.7,23.7S66.7,363,79,362.2c-12.3,0.8-21.5,11.4-20.7,23.7s11.4,21.5,23.7,20.7s21.5-11.4,20.7-23.7
			c0.8,12.3,11.4,21.5,23.7,20.7s21.5-11.4,20.7-23.7c0.8,12.3,11.4,21.5,23.7,20.7s21.5-11.4,20.7-23.7
			c0.8,12.3,11.4,21.5,23.7,20.7s21.5-11.4,20.7-23.7c0.8,12.3,11.4,21.5,23.7,20.7c12.3-0.8,21.5-11.4,20.7-23.7
			s-11.4-21.5-23.7-20.7c12.3-0.8,21.5-11.4,20.7-23.7s-11.4-21.5-23.7-20.7c12.3-0.8,21.5-11.4,20.7-23.7
			c-0.8-12.2-11.4-21.5-23.7-20.7c12.3-0.8,21.5-11.4,20.7-23.7c-0.8-12.3-11.4-21.5-23.7-20.7C260,215.9,269.3,205.3,268.5,193z"/>
		<path class="st36" d="M268.5,193c-0.8-12.1-11.6-21.5-23.7-20.7c12-0.8,21.2-11.1,20.7-22.9c-0.4-12.2-11.3-22.1-23.6-21.4
			c-5.2,0.4-9.8,2.4-13.4,5.5c5.5,3.7,9.4,9.8,9.8,17.1c0.8,12.3-13.6,10.9-12.8,23.1c0.4,7.4,5.8,9.2,10.2,12
			c-20.8,1.5-36.7,19.7-35.3,40.6c0.5,8.3,3.7,15.7,8.7,21.8c-4,6.6-6.2,14.4-5.7,22.7c0.5,8.3,3.7,15.7,8.7,21.8
			c-4,6.5-6.2,14.4-5.7,22.7S210,331,215,337c-4,6.6-6.2,14.4-5.7,22.7c0.1,1.7,0.3,3.3,0.6,5c0.6,3.1-3.1,5.1-5.4,2.9
			c-4.2-4-6.3-10.4-14.6-9.8c-12.3,0.8-9,14.9-21.3,15.7c-12.3,0.8-10.9-13.6-23.1-12.8c-12.3,0.8-9,14.9-21.3,15.7
			s-10.9-13.6-23.1-12.8c-12.4,0.9-9.1,15-21.4,15.8c-7.2,0.4-13.8-2.5-18.3-7.5c-2.6,4-4,8.8-3.6,14c1,12.2,12.2,21.7,24.4,20.5
			c11.9-1.1,20.8-11.6,20-23.6c0.8,12.3,11.4,21.5,23.7,20.7s21.5-11.4,20.7-23.7c0.8,12.3,11.4,21.5,23.7,20.7s21.5-11.4,20.7-23.7
			c0.8,11.3,9.9,20.1,21.1,20.7c6.3,0.4,12.7-2.2,17.1-6.8c4.4-4.6,6.6-10.7,6.2-17c0.4,5.8,3.1,11.3,7.5,15.2
			c4.5,3.9,10.3,5.9,16.3,5.4c12.3-0.8,21.5-11.4,20.7-23.7c-0.8-12.3-11.4-21.5-23.7-20.7c12.3-0.8,21.5-11.4,20.7-23.7
			c-0.8-12.3-11.4-21.5-23.7-20.7c12.3-0.8,21.5-11.4,20.7-23.7s-11.4-21.5-23.7-20.7c12.3-0.8,21.5-11.4,20.7-23.7
			c-0.8-12.3-11.4-21.5-23.7-20.7C260,215.9,269.3,205.3,268.5,193z"/>
		<path class="st36" d="M104.5,195.2c0.4,4.4-3,8.2-7.4,8.5c-4.4,0.4-8.2-3-8.5-7.4c-0.4-4.4,3-8.2,7.4-8.5
			C100.3,187.5,104.2,190.8,104.5,195.2z"/>
		<path class="st36" d="M134.2,233.9c0.4,4.4-3,8.2-7.4,8.5s-8.2-3-8.5-7.4c-0.4-4.4,3-8.2,7.4-8.5
			C130.1,226.1,133.8,229.5,134.2,233.9z"/>
		<path class="st36" d="M200.8,229.4c0.4,4.4-3,8.2-7.4,8.5s-8.2-3-8.5-7.4c-0.4-4.4,3-8.2,7.4-8.5
			C196.8,221.7,200.5,225.1,200.8,229.4z"/>
		<path class="st36" d="M225.1,187.2c0.4,4.4-3,8.2-7.4,8.5c-4.4,0.4-8.2-3-8.5-7.4c-0.4-4.4,3-8.2,7.4-8.5
			C221,179.4,224.8,182.7,225.1,187.2z"/>
		<path class="st36" d="M164.8,191.2c0.4,4.4-3,8.2-7.4,8.5c-4.4,0.4-8.2-3-8.5-7.4c-0.4-4.4,3-8.2,7.4-8.5S164.5,186.7,164.8,191.2z
			"/>
		<path class="st36" d="M169.8,266.5c0.4,4.4-3,8.2-7.4,8.5s-8.2-3-8.5-7.4c-0.4-4.4,3-8.2,7.4-8.5
			C165.7,258.8,169.5,262.2,169.8,266.5z"/>
		<path class="st36" d="M109.6,270.6c0.4,4.4-3,8.2-7.4,8.5s-8.2-3-8.5-7.4s3-8.2,7.4-8.5C105.4,262.9,109.2,266.2,109.6,270.6z"/>
		<path class="st36" d="M114.6,346c0.4,4.4-3,8.2-7.4,8.5s-8.2-3-8.5-7.4c-0.4-4.4,3-8.2,7.4-8.5S114.2,341.5,114.6,346z"/>
		<path class="st36" d="M138.8,303.7c0.4,4.4-3,8.2-7.4,8.5c-4.4,0.4-8.2-3-8.5-7.4c-0.4-4.4,3-8.2,7.4-8.5
			C134.8,296,138.6,299.3,138.8,303.7z"/>
		<path class="st36" d="M205.5,299.2c0.4,4.4-3,8.2-7.4,8.5c-4.4,0.4-8.2-3-8.5-7.4c-0.4-4.4,3-8.2,7.4-8.5
			C201.3,291.5,205.1,294.8,205.5,299.2z"/>
		<path class="st36" d="M174.9,342c0.4,4.4-3,8.2-7.4,8.5c-4.4,0.4-8.2-3-8.5-7.4c-0.4-4.4,3-8.2,7.4-8.5
			C170.8,334.2,174.6,337.5,174.9,342z"/>
	</g>
	<g id="cracker_2">
		<path class="st37" d="M441.6,254.8c-0.8-12.3-11.4-21.5-23.7-20.7c12.3-0.8,21.5-11.4,20.7-23.7c-0.8-12.2-11.4-21.5-23.7-20.7
			c-12.3,0.8-21.5,11.4-20.7,23.7c-0.8-12.3-11.4-21.5-23.7-20.7s-21.5,11.4-20.7,23.7c-0.8-12.3-11.4-21.5-23.7-20.7
			c-12.3,0.8-21.5,11.4-20.7,23.7c-0.8-12.3-11.4-21.5-23.7-20.7c-12.3,0.8-21.5,11.4-20.7,23.7c-0.8-12.3-11.4-21.5-23.7-20.7
			c-12.2,0.8-21.5,11.4-20.7,23.7c0.8,12.2,11.4,21.5,23.7,20.7c-12.3,0.8-21.5,11.4-20.7,23.7s11.4,21.5,23.7,20.7
			c-12.3,0.8-21.5,11.4-20.7,23.7c0.8,12.3,11.4,21.5,23.7,20.7c-12.3,0.8-21.5,11.4-20.7,23.7c0.8,12.2,11.4,21.5,23.7,20.7
			c-12.3,0.8-21.5,11.4-20.7,23.7s11.4,21.5,23.7,20.7c-12.3,0.8-21.5,11.4-20.7,23.7c0.8,12.3,11.4,21.5,23.7,20.7
			c12.2-0.8,21.5-11.4,20.7-23.7c0.8,12.3,11.4,21.5,23.7,20.7s21.5-11.4,20.7-23.7c0.8,12.3,11.4,21.5,23.7,20.7
			c12.3-0.8,21.5-11.4,20.7-23.7c0.8,12.3,11.4,21.5,23.7,20.7c12.3-0.8,21.5-11.4,20.7-23.7c0.8,12.3,11.4,21.5,23.7,20.7
			s21.5-11.4,20.7-23.7c-0.8-12.3-11.4-21.5-23.7-20.7c12.3-0.8,21.5-11.4,20.7-23.7s-11.4-21.5-23.7-20.7
			c12.3-0.8,21.5-11.4,20.7-23.7s-11.4-21.5-23.7-20.7c12.3-0.8,21.5-11.4,20.7-23.7s-11.4-21.5-23.7-20.7
			C433.2,277.6,442.4,267.1,441.6,254.8z"/>
		<g>
			<path class="st38" d="M441.6,254.8c-0.8-12.3-11.4-21.5-23.7-20.7c12.3-0.8,21.5-11.4,20.7-23.7c-0.8-12.2-11.4-21.5-23.7-20.7
				c-5.1,0.4-9.7,2.4-13.2,5.5c5.5,3.7,9.4,9.8,9.8,17.1c0.8,12.3-13.6,10.9-12.8,23.1c0.8,12.3,14.9,9,15.7,21.3
				c0.8,12.3-13.6,10.9-12.8,23.1c0.8,12.3,14.9,9,15.7,21.3s-13.6,10.9-12.8,23.1c0.8,12.3,14.9,9,15.7,21.3s-13.6,10.9-12.8,23.1
				c0.8,12.3,14.9,9,15.7,21.3c0.8,12.3-13.6,10.9-12.8,23.1c0.1,1.2,0.3,2.3,0.6,3.2c-1.1,0-2.1,0.1-3.6,0.2
				c-12.3,0.8-9,14.9-21.3,15.7s-10.8-13.9-23-13.1c-12.3,0.8-9,14.9-21.3,15.7c-12.3,0.8-10.9-13.6-23.1-12.8
				c-12.3,0.8-9,14.9-21.3,15.7s-10.9-13.6-23.1-12.8c-12.3,0.8-9,14.9-21.3,15.7c-7.2,0.4-13.8-2.5-18.3-7.5c-2.6,4-4,8.7-3.7,13.8
				c0.8,12.3,11.4,21.5,23.7,20.7c12.3-0.8,21.5-11.4,20.7-23.7c0.8,12.3,11.4,21.5,23.7,20.7c12.3-0.8,21.5-11.4,20.7-23.7
				c0.8,12.3,11.4,21.5,23.7,20.7s21.5-11.4,20.7-23.7c0.8,12.3,11.4,21.5,23.7,20.7s21.5-11.4,20.7-23.7
				c0.8,12.4,11.9,21.5,23.7,20.7c12.3-0.8,21.5-11.4,20.7-23.7s-11.4-21.5-23.7-20.7c12.3-0.8,21.5-11.4,20.7-23.7
				s-11.4-21.5-23.7-20.7c12.3-0.8,21.5-11.4,20.7-23.7c-0.8-12.3-11.4-21.5-23.7-20.7c12.3-0.8,21.5-11.4,20.7-23.7
				c-0.8-12.3-11.4-21.5-23.7-20.7C433.2,277.6,442.4,267.1,441.6,254.8z"/>
			<path class="st36" d="M277.5,257c0.4,4.4-3,8.2-7.4,8.5s-8.2-3-8.5-7.4c-0.3-4.4,3-8.2,7.4-8.5C273.5,249.2,277.3,252.6,277.5,257
				z"/>
			<path class="st36" d="M307.2,295.6c0.4,4.4-3,8.2-7.4,8.5s-8.2-3-8.5-7.4c-0.4-4.4,3-8.2,7.4-8.5C303.2,288,307,291.2,307.2,295.6
				z"/>
			<path class="st36" d="M373.9,291.2c0.4,4.4-3,8.2-7.4,8.5c-4.4,0.4-8.2-3-8.5-7.4c-0.4-4.4,3-8.2,7.4-8.5
				C369.7,283.5,373.6,286.9,373.9,291.2z"/>
			<path class="st36" d="M398.2,248.9c0.4,4.4-3,8.2-7.4,8.5s-8.2-3-8.5-7.4c-0.4-4.4,3-8.2,7.4-8.5S397.9,244.6,398.2,248.9z"/>
			<path class="st36" d="M337.8,252.9c0.4,4.4-3,8.2-7.4,8.5s-8.2-3-8.5-7.4c-0.3-4.4,3-8.2,7.4-8.5
				C333.8,245.2,337.6,248.6,337.8,252.9z"/>
			<path class="st36" d="M342.9,328.3c0.4,4.4-3,8.2-7.4,8.5c-4.4,0.4-8.2-3-8.5-7.4s3-8.2,7.4-8.5S342.6,323.9,342.9,328.3z"/>
			<path class="st36" d="M403.2,324.3c0.4,4.4-3,8.2-7.4,8.5c-4.4,0.4-8.2-3-8.5-7.4c-0.4-4.4,3-8.2,7.4-8.5S402.9,319.9,403.2,324.3
				z"/>
			<path class="st36" d="M282.5,332.3c0.4,4.4-3,8.2-7.4,8.5c-4.4,0.4-8.2-3-8.5-7.4c-0.4-4.4,3-8.2,7.4-8.5
				C278.5,324.6,282.4,327.9,282.5,332.3z"/>
			<path class="st36" d="M287.6,407.7c0.4,4.4-3,8.2-7.4,8.5s-8.2-3-8.5-7.4c-0.4-4.4,3-8.2,7.4-8.5
				C283.6,400,287.4,403.3,287.6,407.7z"/>
			<path class="st36" d="M311.9,365.4c0.4,4.4-3,8.2-7.4,8.5c-4.4,0.4-8.2-3-8.5-7.4c-0.4-4.4,3-8.2,7.4-8.5S311.5,361,311.9,365.4z"
				/>
			<path class="st36" d="M378.6,360.9c0.4,4.4-3,8.2-7.4,8.5c-4.4,0.4-8.2-3-8.5-7.4c-0.4-4.4,3-8.2,7.4-8.5
				C374.5,353.3,378.3,356.5,378.6,360.9z"/>
			<path class="st36" d="M408.2,399.6c0.4,4.4-3,8.2-7.4,8.5c-4.4,0.4-8.2-3-8.5-7.4c-0.4-4.4,3-8.2,7.4-8.5
				C404.2,392,408,395.3,408.2,399.6z"/>
			<path class="st36" d="M347.9,403.7c0.4,4.4-3,8.2-7.4,8.5c-4.4,0.4-8.2-3-8.5-7.4s3-8.2,7.4-8.5
				C343.8,395.9,347.6,399.4,347.9,403.7z"/>
		</g>
	</g>
</g>
</svg>
