<?xml version="1.0" encoding="utf-8"?>
<!-- Generator: Adobe Illustrator 24.0.0, SVG Export Plug-In . SVG Version: 6.00 Build 0)  -->
<svg version="1.1" id="Layer_1" xmlns="http://www.w3.org/2000/svg" xmlns:xlink="http://www.w3.org/1999/xlink" x="0px" y="0px"
	 viewBox="0 0 512 512" style="enable-background:new 0 0 512 512;" xml:space="preserve">
<style type="text/css">
	.inner{fill:#FFFFFF;}
</style>
<g>
	<path class="inner" d="M205,20.6H41.6C19.8,20.6,2,38.4,2,60.2v93.5c0,21.8,17.8,39.6,39.6,39.6H205c21.8,0,39.6-17.8,39.6-39.6V60.2
		C244.6,38.4,226.8,20.6,205,20.6z"/>
	<path class="inner" d="M205,216.2H41.6C19.8,216.2,2,233.9,2,255.8v196c0,21.8,17.8,39.6,39.6,39.6H205c21.8,0,39.6-17.8,39.6-39.6
		v-196C244.6,233.9,226.8,216.2,205,216.2z"/>
	<path class="inner" d="M470.4,318.7H307c-21.8,0-39.6,17.8-39.6,39.6v93.5c0,21.8,17.8,39.6,39.6,39.6h163.3
		c21.8,0,39.6-17.8,39.6-39.6v-93.5C510,336.4,492.2,318.7,470.4,318.7z"/>
	<path class="inner" d="M470.4,20.6H307c-21.8,0-39.6,17.8-39.6,39.6v196c0,21.8,17.8,39.6,39.6,39.6h163.3
		c21.8,0,39.6-17.8,39.6-39.6v-196C510,38.4,492.2,20.6,470.4,20.6z"/>
</g>
<path d="M205,20.6H41.6C19.8,20.6,2,38.4,2,60.2v93.5c0,21.8,17.8,39.6,39.6,39.6H205c21.8,0,39.6-17.8,39.6-39.6V60.2
	C244.6,38.4,226.8,20.6,205,20.6z M40.4,60.2c0-0.7,0.6-1.2,1.2-1.2H205c0.7,0,1.2,0.6,1.2,1.2v93.5c0,0.7-0.6,1.2-1.2,1.2H41.6
	c-0.7,0-1.2-0.6-1.2-1.2V60.2z"/>
<path d="M205,216.2H41.6C19.8,216.2,2,233.9,2,255.8v196c0,21.8,17.8,39.6,39.6,39.6H205c21.8,0,39.6-17.8,39.6-39.6v-196
	C244.6,233.9,226.8,216.2,205,216.2z M40.4,255.8c0-0.7,0.6-1.2,1.2-1.2H205c0.7,0,1.2,0.6,1.2,1.2v196c0,0.7-0.6,1.2-1.2,1.2H41.6
	c-0.7,0-1.2-0.6-1.2-1.2V255.8z"/>
<path d="M470.4,318.7H307c-21.8,0-39.6,17.8-39.6,39.6v93.5c0,21.8,17.8,39.6,39.6,39.6h163.3c21.8,0,39.6-17.8,39.6-39.6v-93.5
	C510,336.4,492.2,318.7,470.4,318.7z M470.4,453H307c-0.7,0-1.2-0.6-1.2-1.2v-93.5c0-0.7,0.6-1.2,1.2-1.2h163.3
	c0.7,0,1.2,0.6,1.2,1.2v93.5C471.6,452.4,471,453,470.4,453z"/>
<path d="M470.4,20.6H307c-21.8,0-39.6,17.8-39.6,39.6v196c0,21.8,17.8,39.6,39.6,39.6h163.3c21.8,0,39.6-17.8,39.6-39.6v-196
	C510,38.4,492.2,20.6,470.4,20.6z M470.4,257.4H307c-0.7,0-1.2-0.6-1.2-1.2v-196c0-0.7,0.6-1.2,1.2-1.2h163.3c0.7,0,1.2,0.6,1.2,1.2
	v196C471.6,256.9,471,257.4,470.4,257.4z"/>
</svg>
