<?xml version="1.0" encoding="utf-8"?>
<!-- Generator: Adobe Illustrator 24.0.0, SVG Export Plug-In . SVG Version: 6.00 Build 0)  -->
<svg version="1.1" id="fruits_svg" xmlns="http://www.w3.org/2000/svg" xmlns:xlink="http://www.w3.org/1999/xlink" x="0px" y="0px"
	 viewBox="0 0 503.9 503.9" style="enable-background:new 0 0 503.9 503.9;" xml:space="preserve">
<style type="text/css">
	.st39{fill:#B2D5FF;}
	.st40{fill:#7FB241;}
	.st41{fill:#8E6D53;}
	.st42{fill:#E14B4B;}
	.st43{fill:#D03F3F;}
</style>
<g id="fruit_background">
	<circle class="st39" cx="251.9" cy="284.4" r="90"/>
</g>
<g>
	<path id="leaf" class="st40" d="M253.2,183.7c-57.3,5-99.5-37.2-94.5-94.5C215.9,84.2,258.2,126.5,253.2,183.7z"/>
	<g id="fruit_base">
		<path class="st41" d="M255.3,223.6c-4.9-1.3-8.9-5.5-9.4-10.7c-2.7-24.5,4.3-48.7,19.8-67.9s37.5-31.3,62-34.1
			c6.9-0.7,7.1,2.6,7.8,9.5c0.7,6.9,1.8,14.7-5.1,15.4c-17.9,2-33.9,10.7-45.2,24.8s-16.4,31.6-14.4,49.5
			c0.7,6.9-4.2,13.1-11.1,13.9C258.3,224.1,256.7,224,255.3,223.6z"/>
		<path class="st42" d="M348.2,183.6c-13.7-3.7-27.8-2.9-41.6,1.6c-35.6,11.5-73.5,11.5-109.1,0c-13.9-4.5-28-5.2-41.6-1.6
			C101.3,198,75,277,97.1,359.8S181.3,498,235.8,483.5c0.1,0,0.1,0,0.2-0.1c10.6-2.9,21.7-2.9,32.2,0c0.1,0,0.1,0,0.2,0.1
			C322.9,498,385,442.7,407.1,359.8C429,277.1,402.7,198.1,348.2,183.6z"/>
		<path class="st43" d="M407,359.8c-22,82.8-84.2,138.2-138.8,123.7h-0.1c-10.6-2.9-21.7-2.9-32.3,0h-0.1c-20.6,5.5-42.1,1-62.1-11
			c106.9-41.3,187.1-145.7,203.8-272.8C411.4,230,424.6,293.6,407,359.8z"/>
	</g>
</g>
</svg>
