<?xml version="1.0" encoding="utf-8"?>
<!-- Generator: Adobe Illustrator 24.0.0, SVG Export Plug-In . SVG Version: 6.00 Build 0)  -->
<svg version="1.1" id="Layer_1" xmlns="http://www.w3.org/2000/svg" xmlns:xlink="http://www.w3.org/1999/xlink" x="0px" y="0px"
	 viewBox="0 0 512 512" style="enable-background:new 0 0 512 512;" xml:space="preserve">
<style type="text/css">
	.inner{fill:#FFFFFF;}
</style>
<path class="inner" d="M506.1,254.8l-235.2-220c-7.1-6.6-18.3-6.7-25.4-0.1L6,254.7c-7.6,7-8.1,18.8-1.1,26.4
	c3.5,3.8,8.5,6.1,13.8,6.1c4.7,0,9.2-1.8,12.6-4.9l29.7-27.3v210.9c0,10.3,8.4,18.7,18.7,18.7h121.1c10.3,0,18.7-8.4,18.7-18.7
	v-99.7h76.7v99.7c0,10.3,8.4,18.7,18.7,18.7h121.6c10.3,0,18.7-8.4,18.7-18.7V258.4l25.3,23.7c7.5,7,19.4,6.6,26.4-0.9
	C514,273.7,513.6,261.8,506.1,254.8z"/>
<path d="M506.1,254.8l-235.2-220c-7.1-6.6-18.3-6.7-25.4-0.1L6,254.7c-7.6,7-8.1,18.8-1.1,26.4c3.5,3.8,8.5,6.1,13.8,6.1
	c4.7,0,9.2-1.8,12.6-4.9l29.7-27.3v210.9c0,10.3,8.4,18.7,18.7,18.7h121.1c10.3,0,18.7-8.4,18.7-18.7v-99.7h76.7v99.7
	c0,10.3,8.4,18.7,18.7,18.7h121.6c10.3,0,18.7-8.4,18.7-18.7V258.4l25.3,23.7c7.5,7,19.4,6.6,26.4-0.9
	C514,273.7,513.6,261.8,506.1,254.8z M314.9,328.7H200.9c-10.3,0-18.7,8.4-18.7,18.7v99.7H98.5V220.5L258,73.9l159.8,149.5v223.6
	h-84.2v-99.7C333.6,337.1,325.2,328.7,314.9,328.7z"/>
</svg>
