<?xml version="1.0" encoding="utf-8"?>
<!-- Generator: Adobe Illustrator 24.0.0, SVG Export Plug-In . SVG Version: 6.00 Build 0)  -->
<svg version="1.1" id="Layer_1" xmlns="http://www.w3.org/2000/svg" xmlns:xlink="http://www.w3.org/1999/xlink" x="0px" y="0px"
	 viewBox="0 0 512 512" style="enable-background:new 0 0 512 512;" xml:space="preserve">
<path d="M508.8,241.5l0.2-0.5c0.1-0.2,0.2-0.4,0.2-0.7c0.1-0.2,0.1-0.4,0.2-0.6l0.1-0.6c0.1-0.2,0.1-0.5,0.2-0.7
	c0-0.2,0.1-0.5,0.1-0.7l0.1-0.7c0-0.2,0.1-0.3,0.1-0.5c0.1-1.3,0.1-2.6,0-3.8c0-0.2,0-0.3-0.1-0.5l-0.1-0.6c0-0.2-0.1-0.5-0.1-0.7
	c0-0.2-0.1-0.4-0.2-0.7l-0.1-0.6c0-0.2-0.1-0.4-0.2-0.6c-0.1-0.2-0.2-0.5-0.2-0.7l-0.2-0.5c-0.1-0.2-0.1-0.4-0.2-0.6
	c-0.1-0.2-0.2-0.4-0.3-0.6l-0.2-0.5c-0.1-0.2-0.2-0.4-0.3-0.6c-0.1-0.2-0.2-0.3-0.3-0.5l-0.3-0.5c-0.1-0.2-0.2-0.4-0.4-0.6
	c-0.1-0.2-0.3-0.4-0.4-0.6l-0.4-0.5c-0.1-0.1-0.2-0.3-0.3-0.4c-0.4-0.5-0.8-1-1.3-1.4l-64-64c-7.5-7.5-19.8-7.5-27.3,0
	c-7.5,7.5-7.5,19.8,0,27.3l31,31H320c-10.7,0-19.3,8.7-19.3,19.3S309.4,254,320,254h124l-31,31c-7.5,7.5-7.5,19.8,0,27.3
	c3.7,3.7,8.5,5.7,13.7,5.7c5.2,0,10-2,13.7-5.7l64-64c0.4-0.4,0.9-0.9,1.3-1.4l0,0c0.1-0.1,0.2-0.3,0.3-0.4l0.4-0.5
	c0.1-0.2,0.3-0.4,0.4-0.6c0.1-0.2,0.2-0.4,0.4-0.6l0.3-0.5c0.1-0.2,0.2-0.3,0.3-0.5c0.1-0.2,0.2-0.4,0.3-0.6l0.2-0.5
	c0.1-0.2,0.2-0.4,0.3-0.6C508.6,241.9,508.7,241.7,508.8,241.5z"/>
<path d="M2.9,33.5c-0.1,0.5-0.3,0.9-0.4,1.3l0,0.1c-0.1,0.5-0.2,0.9-0.3,1.4l0,0.2c-0.1,0.4-0.1,0.8-0.1,1.3C2,38.6,2,39.4,2,40.1
	L2,430c0,9.2,6.5,17.2,15.5,19l213.3,42.7c5.7,1.1,11.6-0.3,16-4c4.5-3.7,7.1-9.1,7.1-15v-23.3h108.7c10.7,0,19.3-8.7,19.3-19.3V302
	c0-10.7-8.7-19.3-19.3-19.3s-19.3,8.7-19.3,19.3v108.7H254V103.3c0-8.6-5.5-16.1-13.8-18.5l-87.2-26.1h190.3v108.7
	c0,10.7,8.7,19.3,19.3,19.3c10.7,0,19.3-8.7,19.3-19.3v-128c0-10.7-8.7-19.3-19.3-19.3H21.4c0,0,0,0,0,0c-0.5,0-1.1,0-1.7,0.1
	C11.5,20.7,5.3,25.7,2.9,33.5z M40.7,65.3l174.7,52.4v331.4L40.7,414.2V65.3z"/>
</svg>
