<?xml version="1.0" encoding="utf-8"?>
<!-- Generator: Adobe Illustrator 24.0.0, SVG Export Plug-In . SVG Version: 6.00 Build 0)  -->
<svg version="1.1" id="Layer_1" xmlns="http://www.w3.org/2000/svg" xmlns:xlink="http://www.w3.org/1999/xlink" x="0px" y="0px"
	 viewBox="0 0 400 335.9" style="enable-background:new 0 0 400 335.9;" xml:space="preserve">
<style type="text/css">
	.st0{fill-rule:evenodd;clip-rule:evenodd;fill:#080808;}
</style>
<path id="path0" class="st0" d="M225.4,9.9c-0.8,0.4-2.9,0.7-6.3,0.7c-2.9,0-5.2,0.2-5.4,0.5c-0.2,0.3-1.1,0.5-2.1,0.5
	c-1,0-2.3,0.3-3,0.7c-0.7,0.4-1.6,0.7-2.2,0.7c-0.5,0-1.5,0.6-2.1,1.2c-0.6,0.7-1.4,1.2-1.7,1.2c-0.7,0-4.5,3.7-4.5,4.4
	c0,0.3-0.9,1.4-1.9,2.6c-1.2,1.3-1.9,2.5-1.9,3.3c0,0.6-0.2,1.3-0.5,1.5c-0.3,0.2-0.5,2.2-0.5,4.5c0,2.9-0.2,4.5-0.7,5.1
	c-0.6,0.8-0.7,3.6-0.7,16.8c0,10.1-0.2,16-0.5,16.2c-0.3,0.2-0.5,1.3-0.5,2.5c0,1.2-0.3,2.8-0.7,3.4c-0.5,0.8-0.7,2.8-0.7,6.6
	c0,3-0.2,5.5-0.5,5.7c-0.3,0.2-0.5,3.8-0.5,9.2c0,7-0.2,9.2-0.7,10.3c-0.4,0.8-0.7,2.6-0.7,4.4c0,1.6-0.3,3.8-0.7,4.7
	c-0.6,1.4-0.7,4.6-0.7,17.8c0,13.2,0.1,16.4,0.7,17.8c0.5,1.2,0.7,3.4,0.7,7.3c0,4.1,0.2,5.8,0.7,6.6c0.5,0.7,0.7,2.6,0.8,6l0.1,5
	h1.4h1.4l0.1-5.9c0.1-3.6-0.1-6.1-0.4-6.4c-0.3-0.3-0.5-3-0.5-6.3c0-4.1-0.2-6.1-0.7-7c-0.6-1-0.7-4.1-0.7-16.5
	c0-12.4,0.1-15.5,0.7-16.5c0.4-0.7,0.7-2.6,0.7-4.6c0-1.9,0.2-3.6,0.5-3.7c0.3-0.2,0.5-3.9,0.5-9.5c0-7.3,0.2-9.4,0.7-10.1
	c0.5-0.7,0.7-2.4,0.7-6.8c0-3.4,0.2-6,0.5-6.2c0.3-0.2,0.5-1.4,0.5-2.8c0-1.5,0.3-2.9,0.7-3.4c0.6-0.8,0.7-3.5,0.7-16.1
	c0-9.6,0.2-15.3,0.5-15.5c0.3-0.2,0.5-2.3,0.5-4.7c0-3.1,0.2-4.7,0.7-5.3c0.4-0.5,0.7-1.4,0.7-2c0-0.6,0.7-1.8,1.6-2.8
	c0.9-1,1.8-2.2,1.9-2.7c0.3-1,2.9-3.4,3.7-3.4c0.3,0,0.9-0.4,1.5-1c1.7-1.6,3.7-2.4,6-2.4c1.2,0,2.6-0.3,3.1-0.7
	c0.7-0.5,2.3-0.7,5.8-0.7c2.8,0,5-0.2,5.2-0.5c0.2-0.3,15.6-0.5,44.8-0.5c29.1,0,44.6,0.2,44.8,0.5c0.2,0.3,2.9,0.5,6.4,0.5
	c4.6,0,6.3,0.2,7,0.7c0.7,0.5,2.2,0.7,5.2,0.7c4.2,0,6.4,0.4,9.1,1.7c0.7,0.4,2.7,0.7,4.3,0.7c1.8,0,3.3,0.3,3.9,0.7
	c0.6,0.4,2,0.7,3.9,0.7c1.6,0,3.1,0.2,3.3,0.5c0.2,0.3,1.8,0.5,3.5,0.5c5,0,11.6,3.8,11.6,6.7c0,0.5,0.2,1.1,0.5,1.2
	c0.3,0.2,0.5,0.9,0.5,1.6c0,0.7,0.3,1.7,0.7,2.2c0.4,0.5,0.7,1.6,0.7,2.5c0,0.9,0.5,2.5,1.2,3.7c0.7,1.2,1.2,2.7,1.2,3.3
	c0,0.7,0.2,1.3,0.5,1.5c0.3,0.2,0.5,1.5,0.5,3c0,1.5,0.3,3.3,0.7,4.1c0.5,0.9,0.7,2.8,0.7,5.8c0,2.5,0.2,4.6,0.5,4.8
	c0.3,0.2,0.5,2.1,0.5,4.4c0,2.4,0.2,4.5,0.6,5.1c0.5,0.8,0.7,9.6,0.9,37.2c0.3,37.7,0.7,47.9,1.7,48.9c0.3,0.3,0.6,1.8,0.6,3.5
	c0,1.8,0.3,3.3,0.7,3.9c0.5,0.6,0.7,2.2,0.7,5.1c0,2.3,0.2,4.3,0.5,4.5s0.5,2,0.5,4c0,2.5,0.2,4,0.7,4.6c0.4,0.5,0.7,2,0.7,3.4
	c0,1.4,0.2,2.6,0.5,2.8c0.3,0.2,0.5,1.1,0.5,2.1c0,1,0.3,2.2,0.7,2.7c0.6,0.7,0.7,2.8,0.7,9.9c0,5.5,0.2,9.1,0.5,9.3
	c0.3,0.2,0.5,4.1,0.5,10c0,7.5,0.2,9.9,0.7,10.9c0.6,1,0.7,5.3,0.7,25.6s-0.1,24.6-0.7,25.6c-0.4,0.7-0.7,2.5-0.7,4
	c0,2.2-0.3,3.1-1.2,4.4c-0.7,0.9-1.2,1.8-1.2,2c0,0.6-3,3.5-3.7,3.5c-0.3,0-1.7,1.1-3.1,2.4c-1.4,1.3-2.7,2.4-2.9,2.4
	c-0.2,0-1.4,1-2.7,2.2c-3.6,3.3-10.3,6.4-14.1,6.4c-0.9,0-2.3,0.3-3,0.7c-1.1,0.6-3.4,0.7-10.8,0.7c-5.8,0-9.5,0.2-9.7,0.5
	c-0.2,0.3-1.6,0.5-3.3,0.5c-1.9,0-3.3,0.3-3.9,0.7c-0.7,0.5-2.2,0.7-5.4,0.7c-2.6,0-4.4,0.2-4.4,0.5c0,0.6-16.3,0.6-17.8,0
	c-0.6-0.2-1.7-0.6-2.4-0.7c-1.3-0.3-1.3-0.4-1.3-3.5c0-2.1-0.2-3.6-0.7-4.2c-0.4-0.6-0.7-2-0.7-3.9c0-1.6-0.2-3.1-0.5-3.3
	c-0.3-0.2-0.5-1.5-0.5-3c0-1.5-0.3-3.3-0.7-4.1c-0.5-1-0.7-3.1-0.7-8.5c0-4.2-0.2-7.2-0.5-7.4c-0.3-0.2-0.5-3-0.5-6.9
	c0-5-0.2-6.8-0.7-7.5c-0.5-0.7-0.7-2.4-0.7-6.4c0-4.1-0.2-5.7-0.7-6.4c-0.4-0.5-0.7-1.7-0.7-2.7s-0.2-1.9-0.5-2.1
	c-0.3-0.2-0.5-2.4-0.5-5c0-3.2-0.2-5.1-0.7-6.1c-0.4-0.8-0.7-2.6-0.7-4.1c0-1.5-0.2-2.9-0.5-3s-0.5-1.6-0.5-3.3
	c0-1.9-0.3-3.3-0.7-3.9c-0.4-0.5-0.7-1.7-0.7-2.7c0-1-0.2-1.9-0.5-2.1c-0.3-0.2-0.5-2.2-0.5-4.5c0-2.9-0.2-4.5-0.7-5.1
	c-0.4-0.5-0.7-1.5-0.7-2.2c0-0.7-0.2-1.4-0.5-1.6s-0.5-1-0.5-1.9c0-2.1-4.8-11.9-6.9-13.9c-1.6-1.6-6.7-4.6-7.8-4.6
	c-0.3,0-1.8-0.5-3.1-1.2c-2-1-3.2-1.2-6.4-1.2c-2.7,0-4.2-0.2-4.8-0.7c-0.7-0.5-2.3-0.7-5.8-0.7c-2.7,0-5-0.2-5.2-0.5
	c-0.2-0.3-2.1-0.5-4.2-0.5c-2.5,0-4.4-0.3-5.3-0.7c-1.1-0.6-3.9-0.7-15.9-0.7c-9.2,0-14.6-0.2-14.8-0.5c-0.2-0.3-1.3-0.5-2.6-0.5
	c-1.3,0-2.7-0.3-3.2-0.7c-1.4-1.1-6.1-1-7.1,0.1c-1.5,1.7-0.4,3,2.7,3c0.9,0,1.8,0.2,2,0.5c0.2,0.3,1.3,0.5,2.6,0.5
	c1.3,0,2.7,0.3,3.2,0.7c0.8,0.6,3.5,0.7,15.6,0.7c9.3,0,14.8,0.2,15,0.5c0.2,0.3,2.4,0.5,5,0.5c3.4,0,4.9,0.2,5.6,0.7
	c0.7,0.5,2.3,0.7,5.8,0.7c2.7,0,5,0.2,5.2,0.5c0.2,0.3,1.9,0.5,3.8,0.5c2.9,0,4,0.2,6.4,1.4c1.6,0.8,3.3,1.4,3.9,1.4
	c0.5,0,1.1,0.2,1.3,0.5c0.2,0.3,0.8,0.5,1.4,0.5c2.7,0,9.9,10.5,9.9,14.6c0,0.9,0.2,1.8,0.5,1.9s0.5,1,0.5,1.8
	c0,0.8,0.3,2.1,0.7,2.7c0.4,0.8,0.7,2.7,0.7,5.4c0,2.3,0.2,4.3,0.5,4.5c0.3,0.2,0.5,0.8,0.5,1.3c0,0.6,0.3,1.7,0.7,2.4
	c0.4,0.8,0.7,2.6,0.7,4.4c0,1.7,0.3,3.6,0.7,4.4c0.4,0.8,0.7,2.4,0.7,3.6c0,1.2,0.2,2.4,0.5,2.5c0.3,0.2,0.5,2.5,0.5,5.5
	c0,3.7,0.2,5.6,0.7,6.6c0.4,0.8,0.7,2.1,0.7,2.9c0,0.8,0.2,1.7,0.5,1.8c0.3,0.2,0.5,2.6,0.5,5.7c0,3.7,0.2,5.7,0.7,6.6
	c0.5,0.9,0.7,3,0.7,7.8c0,3.8,0.2,6.7,0.5,6.9c0.3,0.2,0.5,3.2,0.5,7.6c0,5.7,0.2,7.5,0.7,8.2c0.4,0.5,0.7,2,0.7,3.4
	c0,1.4,0.2,2.6,0.5,2.8c0.3,0.2,0.5,1.5,0.5,3c0,1.5,0.3,3.3,0.7,4.1c0.4,0.8,0.7,2.7,0.7,4.6c0,3.6,1.1,5.7,3,5.8
	c0.6,0,1.6,0.3,2.2,0.7c1.8,1,21,1,22.3,0c0.7-0.5,2.2-0.7,5.3-0.7c2.4,0,4.5-0.2,4.7-0.5c0.2-0.3,1.3-0.5,2.5-0.5
	c1.2,0,2.8-0.3,3.4-0.7c0.9-0.5,3.4-0.7,11.3-0.7c6.2,0,10.3-0.2,10.4-0.5c0.2-0.3,1.1-0.5,2.1-0.5s2.2-0.3,2.7-0.7
	c0.5-0.4,1.6-0.7,2.4-0.7c1.6,0,6.9-2.5,7.8-3.6c0.3-0.4,1.2-0.9,1.9-1.2c0.8-0.3,1.5-1.1,1.7-1.7c0.2-0.6,1-1.4,1.8-1.8
	c0.9-0.4,2.2-1.4,3-2.2c0.8-0.8,1.6-1.5,1.9-1.5c2.5,0,7.9-8.7,7.9-12.7c0-1.4,0.3-3.2,0.7-3.9c1.1-2,1.1-51.7,0-53.1
	c-0.6-0.7-0.7-2.9-0.7-11.2c0-8.3-0.2-10.5-0.7-11.2c-0.6-0.7-0.7-2.7-0.7-9.4c0-5.1-0.2-8.6-0.5-8.8c-0.3-0.2-0.5-1.1-0.5-2.1
	c0-1-0.3-2.3-0.7-3c-0.4-0.7-0.7-2.4-0.7-3.9c0-1.5-0.2-2.9-0.5-3c-0.3-0.2-0.5-2-0.5-4c0-2.5-0.2-4-0.7-4.6
	c-0.5-0.6-0.7-2.1-0.7-4.6c0-2-0.2-3.8-0.5-4c-0.3-0.2-0.5-1.6-0.5-3.3c0-1.8-0.3-3.4-0.7-4c-1-1.5-1.2-8-1.6-49.1
	c-0.3-28.4-0.5-36.9-0.9-37.3c-0.4-0.4-0.6-2.1-0.6-5c0-2.4-0.2-4.6-0.5-4.7c-0.3-0.2-0.5-2-0.5-4.1c0-2.3-0.3-4.4-0.7-5.4
	c-0.4-0.8-0.8-2.8-0.9-4.4c-0.3-4.2-1-6.9-2.4-9.6c-0.7-1.3-1.3-3.1-1.3-3.9c0-0.8-0.2-1.7-0.5-1.8c-0.3-0.2-0.5-0.9-0.5-1.6
	c0-0.7-0.3-1.7-0.7-2.2c-0.4-0.5-0.7-1.3-0.7-1.9c0-1.8-5.2-6.1-7.5-6.1c-0.5,0-1.3-0.3-1.8-0.7c-0.6-0.4-2-0.7-3.9-0.7
	c-1.6,0-3.1-0.2-3.3-0.5c-0.2-0.3-1.6-0.5-3.3-0.5c-1.7,0-3.5-0.3-4.2-0.7c-0.7-0.4-2.5-0.7-4.4-0.7c-1.8,0-3.6-0.2-4.1-0.4
	c-3.2-1.6-5-1.8-20.2-2.8c-3-0.2-6-0.6-6.6-1C317.3,8.8,227.1,9,225.4,9.9 M53.8,42.2c-0.8,0.9-0.8,1.1-0.1,2.7
	c0.4,0.9,0.8,2.6,0.8,3.8c0,1.2,0.2,2.2,0.5,2.4c0.3,0.2,0.5,3.1,0.5,7.3c0,5.1,0.2,7.4,0.7,8.5c0.8,1.6,1.1,5.9,1.5,17.7l0.2,7.5
	l-9.2,0c-7.1,0-9.5,0.2-10.4,0.7c-0.7,0.4-1.8,0.7-2.6,0.7c-0.8,0-2.4,0.6-3.8,1.2c-1.3,0.7-2.7,1.2-3,1.2c-0.4,0-1.7,0.5-2.9,1.2
	c-1.2,0.7-2.6,1.2-3.1,1.2c-0.5,0-2,1.1-3.4,2.4c-1.4,1.3-2.8,2.4-3.1,2.4c-0.8,0-8.3,7.3-8.3,8.1c0,0.3-0.9,1.9-1.9,3.5
	c-1.1,1.6-1.9,3.2-1.9,3.6c0,0.3-0.2,0.6-0.5,0.6c-0.3,0-0.5,0.6-0.5,1.4c0,0.8-0.2,1.5-0.5,1.7c-0.3,0.2-0.6,1.4-0.8,2.7
	c-0.2,1.3-0.5,2.5-0.7,2.6c-0.6,0.4-0.5,26.9,0.1,27.3c0.3,0.2,0.5,1.5,0.5,3s0.3,3.3,0.7,4.1c0.4,0.8,0.7,1.8,0.7,2.3
	c0,0.5,1,1.9,2.1,3.1s2.4,2.8,2.7,3.5c0.3,0.8,0.9,1.5,1.4,1.6c0.4,0.1,1.2,0.9,1.6,1.7c0.5,0.8,1.6,1.8,2.5,2.2
	c0.9,0.4,2.8,1.9,4.2,3.3l2.4,2.6h3.5c1.9,0,3.6-0.2,3.8-0.5c0.2-0.3,0.8-0.5,1.4-0.5c0.6,0,1.5-0.3,2-0.7c1-0.7,3.4-1.2,8.4-1.6
	c1.7-0.1,3.4-0.5,3.8-0.8c0.6-0.5,2.8-0.8,13.2-1.6c2.4-0.2,4.8-0.6,5.4-0.9c0.8-0.5,8.2-0.6,31.9-0.6h30.8l1-1.1
	c0.6-0.6,1-1.4,1-1.7c0-0.3,0.6-1.5,1.3-2.6c2.2-3.3,2.5-3.9,2.5-5.5c0-0.9,0.2-1.6,0.5-1.6c0.3,0,0.5-1.4,0.5-3.2
	c0-2.1,0.3-3.6,0.7-4.2c0.6-0.8,0.7-3.2,0.7-13.7c0-8,0.2-12.9,0.5-13.1c0.3-0.2,0.5-2.1,0.5-4.3c0-2.6,0.2-4.5,0.7-5.4
	c1.2-2.3,1-14-0.2-16.4c-1.1-2.1-3.6-4.7-5-5.1c-0.5-0.2-1.3-0.7-1.7-1.2c-0.7-0.9-2.5-1.5-6.4-2.3c-1.1-0.2-2.4-0.6-3-0.9
	c-0.6-0.3-2.1-0.6-3.4-0.6c-1.3,0-3.1-0.3-4.1-0.7c-0.9-0.4-2.6-0.7-3.6-0.7c-1,0-2-0.2-2.2-0.5c-0.2-0.3-4.2-0.5-10.5-0.5
	s-10.4,0.2-10.5,0.5c-0.2,0.3-2.7,0.5-6.1,0.5h-5.8l0.3-1.3c0.1-0.7,0.5-2.3,0.7-3.5c0.2-1.2,0.7-2.6,1-3.2c0.3-0.6,0.6-1.4,0.6-1.8
	c0-0.4,0.5-1.4,1.2-2.2c0.8-0.9,1.2-2,1.2-3c0-0.9,0.2-1.7,0.5-1.9c0.3-0.2,0.5-0.9,0.5-1.6c0-0.7,0.3-1.7,0.7-2.2
	c0.4-0.5,0.7-1.6,0.7-2.5c0-0.8,0.6-2.5,1.2-3.8c0.7-1.2,1.2-3,1.2-3.8c0-0.9,0.2-1.7,0.5-1.9c0.3-0.2,0.5-3.3,0.5-7.6
	c0-8.8-0.3-9.2-4.2-6c-1.2,1-3,2.4-3.8,3.1c-0.9,0.7-1.6,1.5-1.6,1.8c0,0.3-0.9,1.4-1.9,2.6c-1.1,1.1-1.9,2.4-1.9,2.7
	c0,0.3-0.8,1.4-1.7,2.3c-0.9,0.9-1.7,2-1.7,2.4c0,0.4-0.5,1.3-1.2,1.9c-0.7,0.6-1.2,1.4-1.2,1.8c0,0.4-0.5,1.7-1,2.9l-1,2.2
	l-0.4-1.5c-0.2-0.8-0.6-1.7-0.9-1.8c-0.3-0.2-0.5-3.3-0.5-7.7c0-4.4-0.2-7.5-0.5-7.7c-0.3-0.2-0.5-1.3-0.5-2.6
	C58.3,42.6,55.6,40.1,53.8,42.2 M78.8,52.1c0.1,1.7-0.1,2.6-0.6,3c-0.5,0.4-0.7,1.4-0.7,2.9c0,1.5-0.4,3.1-1.2,4.6
	c-0.7,1.2-1.2,2.7-1.2,3.3c0,0.6-0.2,1.2-0.5,1.5c-0.4,0.4-1.2,3.3-1.8,6.7c-0.1,0.8-0.8,2-1.4,2.6c-0.7,0.6-1.1,1.6-1.1,2.4
	c0,0.7-0.3,1.6-0.7,1.9c-0.4,0.4-0.7,1.4-0.7,2.6c0,1.1-0.2,2.2-0.4,2.5c-0.2,0.3-0.5,1-0.6,1.6c-0.1,0.7-0.7,1.4-1.4,1.8
	c-0.7,0.3-1.6,1-2,1.6c-2.3,2.8-4.2-6.1-2.1-9.2c0.5-0.7,0.7-2.1,0.7-4c0-1.6,0.2-3.1,0.5-3.3c0.3-0.2,0.5-1,0.5-2
	c0-0.9,0.5-2.6,1.2-3.8c0.7-1.2,1.2-2.6,1.2-3.2c0-0.6,0.5-1.6,1.2-2.2c0.7-0.6,1.2-1.4,1.2-1.7s0.5-1.2,1.1-2
	c0.6-0.7,1.6-2.2,2.1-3.2c0.5-1,1.5-2.1,2.1-2.4c0.6-0.3,1.4-1.2,1.8-2C77.8,48.5,78.6,48.6,78.8,52.1 M310.7,79.6
	c-0.7,0.7-0.8,8.8-0.1,9.2c0.3,0.2,0.5,0.9,0.5,1.6c0,0.7,0.3,1.7,0.7,2.2c1.3,1.7,0.5,3.5-2,4.2c-0.5,0.2-1.5,0.9-2.3,1.7
	c-2.6,2.7-0.1,5.7,2.6,3.2c2.4-2.3,2.8-1.6,3.3,6.3c0.4,4.9,1.2,6.6,2.8,5.6c1-0.6,1.5-11.3,0.6-12.4c-1-1.2-0.1-2.1,1.9-2.1
	c1.7,0,2.5-0.6,2.5-1.7c0-0.7-1.8-1.7-3.1-1.7c-1.5,0-1.6-0.1-1.6-1.6c0-0.9-0.3-2-0.7-2.5c-0.4-0.5-0.7-1.5-0.7-2.2
	c0-0.7-0.2-1.4-0.5-1.6c-0.3-0.2-0.5-1.8-0.5-3.7C314,79.6,312.6,77.7,310.7,79.6 M274.6,82.9c-0.7,0.4-0.8,1.2-0.8,5.7
	c0,5.2,0,5.2-1.3,6.1c-2,1.3-9.1,1.7-10.6,0.5c-1.5-1.1-3.5-1.1-4.5,0c-1,1.1-0.6,2.2,1,2.9l1.3,0.6l-1.5,0.9
	c-1.5,0.9-3.9,4.2-3.9,5.4c0,0.4-0.5,1.2-1.2,1.8c-1.3,1.2-1.8,8.4-0.7,10.1c0.5,0.8,7.6,1.3,9.8,0.8c2.7-0.7,4.9-15.2,2.6-17.4
	c-0.8-0.8,1.1-1.2,5.3-1l3.6,0.1l0.1,2.4c0.1,1.3,0.3,2.8,0.6,3.4c0.2,0.5,0.5,1.9,0.7,3.1c0.3,3.5,1.6,6.4,3.3,7.4
	c5.7,3.6,8.1,4,8.4,1.6c0.1-1.1-0.2-1.4-2.4-2.5c-3.9-1.8-5.6-4.4-5.6-8.1c0-1.1-0.3-2.5-0.7-3c-1.2-1.5-0.9-5.7,0.5-8.2
	c0.7-1.2,1.2-2.7,1.2-3.4c0-0.7-0.5-1.6-1.2-2.2c-1-0.8-1.2-1.3-1.2-3.8C277.1,83.1,276.3,82,274.6,82.9 M230.9,86.5
	c-0.5,0.4-1.7,0.7-2.7,0.7c-3.1,0-5.1,6.7-2.4,8.1c1.7,0.9,2.9-0.3,2.9-3.2c0-0.8,0.3-1.1,1.2-1.1h1.2v7c0,5-0.2,7.4-0.7,8.3
	c-1.1,2.2-2.2,6-2.2,7.8c0,1-0.2,1.9-0.5,2.1c-0.7,0.4-0.6,12.4,0.1,13.1c2.5,2.5,4.2-1.4,4.2-10c0-6.2,0.4-8.3,1.8-10.4
	c0.1-0.1,0.5,0.2,1.1,0.6c1.2,1.1,2.5,0.8,3.2-0.6c1.1-2.3,4.7-5.3,8.3-7.1c5.1-2.4,6.9-7.1,4.2-10.6c-0.6-0.7-1.3-1.8-1.6-2.3
	C247.5,86,233.9,84.2,230.9,86.5 M244.7,90.3c0.5,0.4,0.8,0.8,0.8,1.1c0,0.3,0.4,0.8,0.9,1.3c2.2,1.9,1,4-3.3,5.9
	c-1.2,0.5-3.5,2.3-5.1,3.9c-2.1,2-3,2.7-3.2,2.2c-0.2-0.5-0.5-12.6-0.3-14.7C234.5,89.3,243.8,89.6,244.7,90.3 M103.6,93.9
	c0.2,0.3,1.4,0.5,2.8,0.5c1.4,0,2.9,0.3,3.4,0.7c0.5,0.4,2,0.7,3.4,0.7c1.4,0,2.6,0.2,2.8,0.5c0.2,0.3,1,0.5,1.8,0.5
	c0.8,0,2.1,0.3,2.9,0.7c0.8,0.4,1.7,0.7,2.2,0.7c0.5,0,1.3,0.5,1.9,1.2c0.6,0.7,1.5,1.2,1.9,1.2c1,0,2.5,1.6,3.5,3.7
	c1,1.9,1.1,12.1,0.2,13c-0.3,0.3-0.7,2.5-0.8,5c-0.1,2.4-0.4,4.6-0.6,4.9c-0.2,0.3-0.4,6.2-0.4,13.2c0,8.8-0.2,12.9-0.5,13.3
	c-0.3,0.3-0.6,2.1-0.8,3.9c-0.1,1.9-0.4,3.5-0.7,3.7c-0.2,0.1-0.4,1-0.4,1.9c0,1-0.3,1.8-0.9,2.2c-0.5,0.3-1.5,1.8-2.2,3.1l-1.3,2.5
	l-29.8,0c-24.7,0-30.1,0.1-31.7,0.7c-1.1,0.4-3.7,0.7-6.2,0.7c-3,0-4.6,0.2-5.2,0.7c-0.6,0.4-2,0.7-3.9,0.7c-1.6,0-3.1,0.2-3.3,0.5
	c-0.2,0.3-1.8,0.5-3.7,0.5c-2.1,0-3.9,0.3-4.6,0.7c-0.7,0.4-1.9,0.7-2.7,0.7c-0.8,0-1.7,0.2-1.8,0.5c-0.2,0.3-0.8,0.5-1.5,0.5
	c-0.7,0-1.8,0.4-2.6,0.8c-1.7,1-3.6,0-4.4-2.3c-0.4-1-1.2-1.7-3.1-2.6c-1.6-0.8-2.8-1.7-3-2.4c-0.2-0.6-1.1-1.5-1.9-1.9
	c-0.8-0.4-1.5-1.1-1.7-1.6c-0.2-0.5-1-1.6-1.9-2.5c-1-1-1.7-2.1-1.7-2.8c0-0.7-0.3-1.6-0.7-2.1c-0.4-0.6-0.7-2-0.7-3.9
	c0-1.6-0.2-3.1-0.5-3.4c-1.5-1.5,0-27,1.7-30.2c0.6-1.2,1.1-2.5,1.1-3c0-0.5,0.5-1.4,1.1-2.2c0.6-0.7,1.6-2.4,2.3-3.8
	c0.7-1.3,1.7-2.6,2.3-2.9c1.5-0.8,3-2.2,3-2.9c0-0.4,0.5-0.6,1.1-0.6c1.1,0,3.8-1.7,5.9-3.8c0.6-0.5,1.2-1,1.4-1s2.1-0.8,4.3-1.8
	c4.4-2.1,6.6-2.9,8.5-3.3c0.7-0.1,1.4-0.4,1.6-0.7c0.1-0.2,6.2-0.4,13.5-0.4c10.9,0,13.5-0.1,14.2-0.7c0.7-0.6,2.7-0.7,8.9-0.7
	c4.8,0,8.1-0.2,8.3-0.5c0.2-0.3,3.9-0.5,9.6-0.5C99.7,93.4,103.4,93.6,103.6,93.9 M324.1,94c-1,1-0.7,3.2,0.6,3.8
	c1.2,0.5,1.2,0.7,1.2,5.4v4.9l1.9,1.7c3.2,2.9,8.8,2.3,10.1-1c0.2-0.6,0.8-1.1,1.1-1.1c1.2,0,1.7-1.7,1.7-5.9c0-5.5-1.5-7.5-5.5-7.5
	c-1.4,0-2.7-0.2-2.9-0.5C332,93.2,324.8,93.3,324.1,94 M296.5,96.3c-0.2,0.3-1.4,0.5-2.8,0.5c-2.9,0-3.8,0.7-4.3,3.2
	c-0.2,0.9-0.5,1.7-0.8,1.8c-0.5,0.3-0.6,9.7-0.1,11c1.2,3,8.3,3.4,9.5,0.6l0.6-1.5l0.5,1.3c0.6,1.5,1.9,2.3,3.9,2.3
	c2.8,0,3.4-0.7,3.4-3.8c0-3.2-1-4.1-3.1-2.7c-1.4,0.9-1.7,0.6-1.7-1.5c0-0.9-0.2-2-0.4-2.4c-0.9-1.8-1.6-4.3-1.8-6.1
	C299,96.6,297.3,95,296.5,96.3 M336.4,99.1c1.2,1.5,0.7,4.6-1,6.7c-3.1,3.9-5.6,2.1-5.6-4v-3.9l3,0.2
	C334.8,98.2,336,98.6,336.4,99.1 M294.4,106.6c0,4.7-0.1,5.2-1.5,4.5c-1.2-0.6-1.2-5.6-0.1-8.2C293.9,100.3,294.3,101.4,294.4,106.6
	 M261.2,108.4c0.2,5.1-0.1,5.6-3.3,5.6h-2.3v-1.7c0-2.6,3.2-8.4,4.5-8.2C261,104.2,261.1,104.5,261.2,108.4 M57.9,191.2
	c-0.4,0.4-4.2,0.7-13.6,0.9c-17.2,0.5-21.8,0.8-23,1.6c-0.6,0.4-2.1,0.7-4,0.7c-1.6,0-3.1,0.2-3.3,0.5c-0.2,0.3-1,0.5-1.9,0.5
	c-0.9,0-2.2,0.3-3,0.7c-0.7,0.4-1.9,0.8-2.7,1c-1.1,0.2-1.4,0.6-1.9,2.4c-0.3,1.2-0.7,2.3-1,2.4c-0.2,0.1-0.4,0.9-0.4,1.6
	c0,0.7-0.2,1.5-0.5,1.8c-1.4,1.4-2.7,34.4-1.4,35.8c0.3,0.3,0.5,2.5,0.5,5c0,2.9,0.3,5.1,0.7,6.2c0.6,1.5,0.7,7,0.7,39.5
	c0,39.5,0,39.2,1.9,39.2c0.2,0,0.7-0.3,1.2-0.8c1.1-1.1,1.1-76.4,0-78.2c-0.5-0.8-0.7-2.8-0.7-6.3c0-2.9-0.2-5.2-0.5-5.4
	c-0.7-0.4-0.7-27.4,0-27.8c0.3-0.2,0.5-1.2,0.5-2.3c0-1.1,0.3-2.4,0.7-2.9c0.4-0.5,0.7-1.4,0.7-2c0-0.6,0.2-1.2,0.5-1.4
	c0.3-0.2,0.5-0.8,0.5-1.5c0-0.9,0.4-1.3,1.3-1.7c0.7-0.3,1.7-0.7,2.3-0.9c1-0.5,3.4-0.9,7.3-1.3l2.5-0.3v29.2
	c0,22.7,0.1,29.3,0.6,29.8c0.6,0.6,1.1,4.6,1.7,14.4c0.2,3,0.6,6,0.9,6.6c0.4,0.6,0.6,2.8,0.6,5.6c0,2.5,0.2,4.7,0.5,4.8
	c0.3,0.2,0.5,3.2,0.5,7.5c0,4.6,0.2,7.6,0.6,8.2c0.8,1.4,1.3,4.5,1.8,9.3c0.4,4.3,0.8,5.1,2.5,4.8c1.2-0.2,2-8.9,1-11.2
	c-1.6-3.5-1.7-4.7-1.9-12.2c-0.1-4.3-0.4-8.1-0.6-8.4c-0.3-0.3-0.5-2.5-0.5-5c0-3.1-0.2-5-0.7-5.8c-0.5-0.8-0.7-2.7-0.7-6
	c0-3.2-0.2-5-0.6-5.4c-1.1-1.1-1.4-8.6-1.6-36.7c-0.2-32.1-0.4-30.9,3.6-30.9c1.2,0,2.7-0.3,3.3-0.7c1.2-0.8,11.7-1.1,58.5-1.5
	c20.2-0.2,30.5-0.1,30.9,0.2c0.3,0.3,6.6,0.5,17.3,0.5c14,0,17,0.1,17.7,0.7c0.6,0.5,2.1,0.7,4.3,0.7c2.1,0,4,0.3,4.8,0.7
	c1,0.5,3,0.7,7.9,0.7c3.9,0,6.7,0.2,6.9,0.5c0.2,0.3,2.6,0.5,5.7,0.5c3.7,0,5.7,0.2,6.6,0.7c0.9,0.5,3,0.7,8.2,0.7
	c4.2,0,7.2,0.2,7.3,0.5c0.2,0.3,1.8,0.5,3.7,0.5c2.1,0,3.9,0.3,4.6,0.7c0.7,0.4,2.6,0.7,4.6,0.7c1.9,0,3.6,0.2,3.7,0.5
	c0.2,0.3,1.6,0.5,3.3,0.5c1.9,0,3.3,0.3,3.9,0.7c0.6,0.4,2.1,0.7,4.1,0.7c1.7,0,3.3,0.2,3.6,0.5c0.3,0.2,1.3,0.5,2.3,0.6l1.9,0.2
	l-0.1,10.1c-0.1,8.2,0.1,10.5,0.7,11.9c0.4,1,0.7,3,0.8,4.5c0,1.6,0.3,3.1,0.7,3.6c0.6,0.7,0.7,2.8,0.7,9.9c0,5.5,0.2,9.1,0.5,9.3
	c0.3,0.2,0.5,3.7,0.5,8.8c0,6.4,0.2,8.8,0.7,9.7c0.5,0.9,0.7,3,0.7,8.2c0,4.2,0.2,7.2,0.5,7.3c0.3,0.2,0.5,3.4,0.5,8
	c0,5.8,0.2,8.1,0.7,8.9c0.4,0.8,0.7,2.7,0.7,5.4c0,2.3,0.2,4.3,0.5,4.5c0.3,0.2,0.5,1.7,0.5,3.4v3.1H225c-18,0-27.8-0.2-28-0.5
	c-0.2-0.3-10.8-0.5-30.3-0.5c-24.9,0-30.3-0.1-31.9-0.7c-1.6-0.6-8.2-0.7-40.8-0.7c-25.4,0-39-0.2-39.2-0.5c-0.2-0.3-5-0.5-12.9-0.5
	s-12.7,0.2-12.9,0.5c-0.2,0.3-3.7,0.5-9,0.5c-9.6,0-11.1,0.3-11.1,2.4v1.2l10.7,0.1c6.8,0.1,10.9,0,11.2-0.4
	c0.7-0.7,21.7-0.7,22.1,0c0.2,0.3,13.9,0.5,39.6,0.5c33.2,0,39.5,0.1,40.6,0.7c1,0.6,6.2,0.7,31.9,0.7c20,0,30.8,0.2,31,0.5
	c0.2,0.3,10.8,0.5,30.2,0.5c19.4,0,30-0.2,30.2-0.5c0.2-0.3,1.3-0.5,2.6-0.5c1.3,0,2.7-0.3,3.2-0.7c0.5-0.4,2-0.7,3.4-0.7
	c1.4,0,2.6-0.2,2.8-0.5c0.2-0.3,1.3-0.5,2.6-0.5c1.3,0,2.7-0.3,3.2-0.7c0.5-0.4,1.4-0.7,2-0.7c0.6,0,1.8-0.6,2.7-1.2
	c0.9-0.7,2-1.2,2.6-1.2c0.5,0,1.5-0.7,2.2-1.5l1.2-1.5l0-15.6c0-12.7-0.1-15.9-0.7-16.8c-0.5-0.9-0.7-2.9-0.7-7.2
	c0-4.5-0.2-6.2-0.7-6.9c-0.4-0.5-0.7-1.4-0.7-2c0-0.6-0.2-1.2-0.5-1.4c-0.3-0.2-0.5-1.1-0.5-2c0-0.9-0.3-2.1-0.6-2.7
	c-0.6-1-1.2-3.7-1.7-7.3c-0.1-1.1-0.6-2.3-0.9-2.9c-0.4-0.5-0.7-1.4-0.7-2c0-0.6-0.2-1.2-0.5-1.4c-0.3-0.2-0.5-0.9-0.5-1.6
	c0-0.7-0.3-1.7-0.7-2.2c-0.4-0.5-0.7-1.9-0.7-3c0-1.3-0.5-3-1.2-4.4c-0.7-1.5-1.2-3.2-1.2-4.5c0-1.2-0.2-2.3-0.5-2.4
	c-0.3-0.2-0.5-1-0.5-1.8s-0.3-2.1-0.7-2.9c-0.4-0.8-0.7-2.4-0.7-3.6s-0.3-2.6-0.7-3.1c-0.4-0.5-0.7-1.3-0.7-1.7
	c0-4.2-6.1-11.9-9.4-11.9c-1.3,0-2.8-0.3-3.3-0.7c-0.6-0.5-2.1-0.7-4.6-0.7c-2,0-3.8-0.2-4-0.5c-0.2-0.3-1-0.5-1.8-0.5
	c-0.8,0-2.1-0.3-2.9-0.7c-0.8-0.4-2.6-0.7-4.3-0.7c-1.6,0-3.8-0.3-4.9-0.7c-1.1-0.4-3-0.7-4.4-0.7c-1.4,0-2.6-0.2-2.8-0.5
	c-0.2-0.3-1.8-0.5-3.7-0.5c-1.8,0-3.8-0.2-4.4-0.5c-1.4-0.7-7.8-1.4-15.9-1.7c-4.7-0.2-6.9-0.4-7.6-0.9c-0.7-0.5-2.4-0.7-6.4-0.7
	c-3.1,0-5.5-0.2-5.7-0.5c-0.2-0.3-3.1-0.5-7.2-0.5c-4.6,0-7.3-0.2-8-0.6c-1.7-1-8.2-1.4-26.5-1.7c-12.9-0.2-17.5-0.5-17.9-0.9
	c-0.5-0.5-7.6-0.6-32.5-0.6C65.5,190.6,58.4,190.7,57.9,191.2 M253.4,208.3c0.2,0.3,1.3,0.5,2.6,0.5c2.3,0,5.3,1.7,5.3,2.9
	c0,0.3,0.5,1.2,1.2,2c0.7,0.9,1.2,1.9,1.2,2.3c0,0.4,0.5,1.7,1.2,3c0.7,1.4,1.2,3,1.2,4.3c0,1.1,0.3,2.6,0.7,3.4
	c0.4,0.8,0.7,2.3,0.7,3.4c0,1.1,0.2,2.2,0.5,2.4c0.3,0.2,0.5,1,0.5,2s0.5,2.7,1.2,4c0.7,1.3,1.2,3.1,1.2,4.1s0.3,2.5,0.7,3.4
	c0.4,0.9,0.7,2.2,0.7,2.8s0.5,2.1,1.2,3.3c0.7,1.2,1.2,2.9,1.2,3.7s0.3,1.9,0.6,2.5c0.6,1.2,1.3,4.2,1.7,7.5
	c0.1,1.2,0.5,2.8,0.9,3.6c1.4,3.1,1.7,5.1,1.7,10.4c0,4.1,0.2,5.7,0.7,6.4c0.8,1,1.1,28.2,0.4,29.2c-0.2,0.3-1.2,0.9-2.1,1.4
	c-1,0.5-1.8,1.1-1.8,1.3c0,0.2-0.8,0.4-1.9,0.4c-1.1,0-2.1,0.3-2.5,0.7c-0.4,0.4-1.4,0.7-2.7,0.7c-1.1,0-2.2,0.2-2.4,0.5
	c-0.2,0.3-1.1,0.5-2.2,0.5c-1,0-2.7,0.3-3.8,0.8c-3.7,1.5-4.6,1-4.7-2.9c-0.1-1.8-0.3-3.6-0.6-3.8c-0.2-0.2-0.5-2.3-0.5-4.6
	c0-2.9-0.2-4.4-0.7-5.1c-0.5-0.7-0.7-2.6-0.7-8.4c0-5.3-0.2-7.6-0.6-8c-0.6-0.6-1.1-8.7-1.6-25c-0.2-6.4-0.4-9.3-0.9-10.4
	c-0.5-1.1-0.7-3.5-0.7-9.7c0-4.9-0.2-8.3-0.5-8.5c-0.3-0.2-0.5-1.6-0.5-3.3c0-1.7-0.3-3.5-0.7-4.2c-0.7-1.3-1.1-19.1-0.4-19.8
	C248.7,207.7,253.1,207.8,253.4,208.3 M157.7,236.6c-0.7,0.8-0.8,1.2-0.3,2.2c0.9,1.9,0.7,23.8-0.1,26.3c-0.4,1.1-0.7,3.4-0.7,5.1
	c0,1.8-0.2,3.2-0.5,3.2c-0.7,0-0.6,18.3,0.1,19.1c1.6,1.6,3.3-0.1,3.3-3.5c0-0.9,0.3-2.1,0.6-2.6c0.5-0.8,0.5-1.1,0-1.9
	c-0.7-1.1-0.8-8.4-0.1-8.9c0.3-0.2,0.5-2.2,0.5-4.5c0-2.7,0.3-4.6,0.7-5.4c1.2-2.1,1-27.9-0.2-29.2
	C159.6,235.4,158.8,235.4,157.7,236.6 M209.9,240.8c-2.1,0.4-6.9,3.5-8,5.1c-0.7,0.9-1.8,2.2-2.5,2.7c-0.7,0.6-1.3,1.4-1.3,1.9
	c0,0.5-0.5,1.9-1.2,3.1c-0.7,1.2-1.2,2.8-1.2,3.5c0,0.7-0.3,1.8-0.7,2.5c-0.4,0.7-0.7,2-0.7,3c0,1-0.2,1.9-0.5,2.1
	c-0.3,0.2-0.5,3.6-0.5,8.7c0,7-0.1,8.6-0.8,9.8c-1.1,1.8-0.2,4,1.4,3.7c2.2-0.3,2.7-2.3,2.8-11.4c0-6.6,0.2-8.6,0.8-9.3
	c0.4-0.5,0.7-1.6,0.7-2.5c0-0.8,0.3-2.1,0.7-2.9c0.4-0.8,0.7-1.9,0.7-2.6c0-1.7,2.5-6.7,4.3-8.3c0.8-0.8,1.5-1.7,1.5-2
	c0-0.7,4.1-2.7,5.2-2.5c0.5,0.1,0.9,0.7,1,1.6c0.1,0.8,0.4,1.6,0.6,1.9c0.2,0.3,0.4,0.8,0.4,1.1c0,0.4,0.3,1.3,0.7,2.2
	c0.4,0.8,1,2.8,1.5,4.4c0.5,1.6,1.3,3.6,2,4.4c0.9,1.2,1.1,2.1,1.1,4.5c0,4-1.2,4.7-7.8,4.7c-4.8,0-5.9,0.5-5.3,2.4
	c0.4,1.2,11.4,1.5,13.1,0.4c1.2-0.7,2.5-0.2,2.5,1c0,0.5,0.2,1.4,0.4,1.8c0.9,1.7,1.6,4.3,1.9,6.1c0.1,1,0.7,2.8,1.4,3.9
	c0.6,1.1,1.1,2.5,1.1,3c0,0.5,0.2,1.1,0.5,1.3c0.9,0.5,0.5,2.8-0.5,3.5c-1.5,0.9-1.2,1.9,1.4,4.5c4.7,4.8,8.1,0.7,4.6-5.5
	c-0.7-1.2-1.2-2.5-1.2-2.9c0-0.6-0.5-1.6-3.2-6.5c-0.4-0.7-0.7-1.8-0.7-2.6c0-1.5-0.6-3.6-1.8-6.6c-0.8-2-0.5-2.8,1-2.8
	c3.2,0,2.6-2.8-0.7-3.6c-3.1-0.7-3.3-0.9-3.3-4.2c0-2.4-0.2-3.2-1.2-4.5c-0.7-0.9-1.2-2.2-1.2-3c0-0.8-0.5-2.5-1.2-3.7
	c-0.7-1.2-1.2-2.7-1.2-3.3s-0.2-1.2-0.5-1.4c-0.3-0.2-0.5-0.7-0.5-1.1C215.3,243.3,212.3,240.3,209.9,240.8 M34.7,243.8
	c-1,0.6-1.3,11.6-0.4,12.2c0.3,0.2,0.5,6.3,0.5,16.7c0,18.7,0.1,19,3.8,19c1.9,0,4.8-4.7,4.8-7.6c0-0.8,0.3-2,0.7-2.7
	c0.4-0.8,0.7-2,0.7-2.7c0-0.7,0.2-1.4,0.5-1.6c0.3-0.2,0.5-0.9,0.5-1.6c0-0.7,0.7-2.7,1.6-4.3c1.8-3.4,2.2-3.2,2.2,1.4
	c0,1.5,0.2,2.9,0.5,3.1c0.3,0.2,0.5,1.6,0.5,3.3c0.1,4.9,3.2,9.9,5.8,9.3c1.5-0.4,1.8-1.4,1.8-6.2c0-2,0.2-3.8,0.5-4
	c1-0.6,0.6-28.9-0.4-29.4c-2.5-1.3-2.7-0.3-2.9,14.6L55.2,277l-1.1-2.3c-0.8-1.8-1.1-3.2-1.1-6c0-4.1-1.2-6.9-3.4-8.2
	c-1.9-1.1-3.8,0.3-3.8,2.8c0,1.7-1.2,4.9-2,5.2c-0.2,0.1-0.4,0.4-0.4,0.8c0,0.3-0.3,1.2-0.7,2c-0.4,0.8-0.7,2-0.7,2.7
	c0,0.7-0.2,1.4-0.5,1.6c-0.3,0.2-0.5,0.9-0.5,1.6c0,0.7-0.3,1.7-0.7,2.2c-0.4,0.5-0.7,1.7-0.7,2.7c0,1-0.2,1.8-0.5,1.8
	c-0.3,0-0.5-5.2-0.5-14.5c0-12-0.1-14.8-0.7-15.9c-0.5-0.9-0.7-2.7-0.7-5.2C37.2,243.7,36.7,242.7,34.7,243.8 M139.3,245.2
	c-1.2,0.8-1.6,5-1.9,20.2c-0.2,8.3-0.4,15.2-0.4,15.3c-0.2,0.5-2.7-2.3-3.3-3.7c-0.4-0.9-1.1-1.7-1.6-1.8c-0.8-0.2-2.4-2.8-2.4-3.9
	c0-0.3-0.4-0.6-1-0.8c-0.5-0.2-1-0.7-1-1.2s-0.6-1.7-1.4-2.7c-0.8-1-1.4-2.3-1.4-2.9c0-0.6-0.3-1.3-0.7-1.7
	c-0.4-0.3-1.6-2.4-2.6-4.6c-2-4.2-2.4-4.5-5.2-4.5c-2,0-3.8,1.4-5,4c-1.2,2.5-1.1,27.9,0.2,28.6c2.7,1.4,2.9,0.3,2.9-13.4
	c0-9.1,0.2-11.7,0.7-13.1c0.9-2.1,2.2-2.1,2.6,0c0.4,2.1,1.8,4.4,2.9,5c0.7,0.4,1,1,1,2.1c0,0.9,0.3,1.9,0.8,2.3
	c0.4,0.4,1.1,1.3,1.5,2.1c0.4,0.8,1.4,2.3,2.2,3.4c0.8,1.1,2.1,2.8,2.7,3.8c0.7,1,2.7,3.3,4.4,5.1c1.8,1.8,3.2,3.5,3.2,3.6
	c0,0.6,2.8,2,3.5,1.7c1.2-0.5,1.3-1.7,1.3-19.5c0-10.9,0.2-17.2,0.5-17.4c0.3-0.2,0.5-1.4,0.5-2.8
	C142.1,245.2,141.1,244,139.3,245.2 M81.7,247.7c-1.2,1.1-2.7,3.3-3.5,4.8c-0.8,1.5-1.8,3.1-2.3,3.5c-0.5,0.4-0.9,1.1-0.9,1.4
	c0,0.3-0.3,1.2-0.7,2c-0.4,0.8-0.7,2-0.7,2.7c0,0.7-0.2,1.4-0.5,1.6c-0.6,0.4-0.7,19.1-0.1,20.2c0.2,0.5,0.6,1.5,0.8,2.2
	c0.2,0.8,0.8,1.6,1.4,1.9c0.5,0.3,1.6,1,2.3,1.6c1.2,0.9,1.9,1.1,6,1.1c5.4,0,6.3-0.4,7.8-3.7c0.6-1.2,1.5-2.9,2.2-3.6
	c0.9-1.1,1.1-1.9,1.1-4.4c0-1.7,0.2-3.2,0.5-3.3c1.2-0.7,0.6-21.4-0.7-23.5c-0.7-1.1-1.2-2.7-1.2-3.6c0-2.5-0.6-2.8-5.3-2.8h-4.1
	L81.7,247.7 M178.3,248.9c-0.4,0.5-1.4,1.7-2.2,2.7c-1.9,2.5-4.1,5.1-9.2,10.5l-4.2,4.5v2.8c0,3.6,3.2,7.1,9.1,10c2,1,4.7,2.7,6,3.9
	c3.2,2.9,4.2,3.4,6.7,3.4c3.7,0,3.7-2.1-0.1-3.9c-1.2-0.6-3.2-1.9-4.3-2.9c-1.1-1-2.4-1.8-2.8-1.8c-0.4,0-0.7-0.2-0.7-0.5
	s-1.3-1.1-2.9-2c-1.6-0.8-3.7-2.2-4.6-3.1c-0.9-0.9-1.9-1.6-2.1-1.6c-0.2,0-0.4-0.4-0.4-0.9c0-1.1,1.4-3.9,1.9-3.9
	c0.7,0,3.8-2.9,3.8-3.5c0-0.3,1.4-2.1,3.1-3.9c1.7-1.8,3.1-3.6,3.1-3.8c0-0.3,0.5-1,1.2-1.6c1.5-1.4,1.7-4,0.3-4.8
	C179.3,248.2,178.9,248.3,178.3,248.9 M89.5,251.7c0.4,0.8,1.2,2,1.8,2.8c1.4,1.7,1.6,16.2,0.3,18.6c-0.4,0.8-0.7,2.7-0.7,4.5
	c0,2.6-0.2,3.4-1.2,4.7c-0.7,0.9-1.2,1.8-1.2,2c-0.1,4-9.4,3.3-11.2-0.7c-0.9-2.1-1.2-18.4-0.3-18.9c0.3-0.2,0.5-0.8,0.5-1.4
	c0-1.2,2.4-6.1,3.8-7.7c0.4-0.5,1.2-1.8,1.7-2.9C84.7,248.9,87.8,248.4,89.5,251.7"/>
</svg>
