<?xml version="1.0" encoding="utf-8"?>
<!-- Generator: Adobe Illustrator 24.0.0, SVG Export Plug-In . SVG Version: 6.00 Build 0)  -->
<svg version="1.1" id="other_svg" xmlns="http://www.w3.org/2000/svg" xmlns:xlink="http://www.w3.org/1999/xlink" x="0px" y="0px"
	 viewBox="0 0 512 512" style="enable-background:new 0 0 512 512;" xml:space="preserve">
<style type="text/css">
	.st0{fill:#B2D5FF;}
	.st1{fill:#4A5160;}
	.st2{fill:#6D7486;}
	.st3{fill:#B0B5CA;}
	.st4{fill:#D1D6E5;}
</style>
<g id="tray_background">
	<circle class="st0" cx="255" cy="291.8" r="85.6"/>
</g>
<g id="plate">
	<path class="st1" d="M473.2,420.6l-5.8,27.9c-2,9.6-10.5,16.5-20.3,16.5H64.2c-10,0-18.6-7.1-20.4-17l-5.1-27.5H473.2z"/>
	<path class="st2" d="M479.8,385.4H32.2c-4.7,0-9.2,1.8-12.5,5.1c-6.9,6.8-6.9,17.9-0.1,24.7c3.3,3.3,7.8,5.2,12.4,5.2h447.8
		c4.7,0,9.2-1.8,12.5-5.1c3.3-3.3,5.2-7.7,5.2-12.4C497.5,393.3,489.6,385.4,479.8,385.4C479.9,385.4,479.8,385.4,479.8,385.4z"/>
	<path class="st3" d="M44.5,402.9c0-4.6,1.9-9.1,5.2-12.4c3.3-3.3,7.8-5.1,12.5-5.1h-30c-4.7,0-9.2,1.8-12.5,5.1
		c-6.9,6.8-6.9,17.9-0.1,24.7c3.3,3.3,7.8,5.2,12.4,5.2h30c-9.6,0-17.5-7.7-17.5-17.4C44.5,403,44.5,402.9,44.5,402.9z"/>
	<path class="st2" d="M73.8,448l-5.1-27.5h-30l5.1,27.5c1.8,9.8,10.4,17,20.4,17h30C84.2,465,75.6,457.9,73.8,448z"/>
</g>
<g id="lid">
	<path class="st2" d="M272.8,176.2l-33.8-0.1v30.4h34v-30L272.8,176.2z"/>
	<path class="st3" d="M239.1,176.1c-15.9-9.3-21.2-29.8-11.9-45.7s29.8-21.2,45.7-11.9s21.2,29.8,11.9,45.7
		c-6,10.2-17,16.5-28.8,16.5C250.1,180.7,244.2,179.1,239.1,176.1z"/>
	<path class="st3" d="M272.9,206.8c102.4,7.6,183.7,83.3,191.3,178.5H47.8c7.6-95.2,88.9-170.9,191.3-178.5
		c5.6-0.4,11.2-0.6,16.9-0.6C261.7,206.1,267.3,206.4,272.9,206.8L272.9,206.8z"/>
	<path class="st4" d="M269.1,206.8c0.6,0,1.3-0.1,1.9-0.1c-5-0.3-10-0.5-15-0.5c-5.7,0-11.3,0.2-16.9,0.6
		c-102.4,7.6-183.7,83.3-191.3,178.5h50C105.4,290.1,166.7,214.3,269.1,206.8L269.1,206.8z"/>
</g>
</svg>
