<?xml version="1.0" encoding="utf-8"?>
<!-- Generator: Adobe Illustrator 24.0.0, SVG Export Plug-In . SVG Version: 6.00 Build 0)  -->
<svg version="1.1" id="other_svg" xmlns="http://www.w3.org/2000/svg" xmlns:xlink="http://www.w3.org/1999/xlink" x="0px" y="0px"
	 viewBox="0 0 512 512" style="enable-background:new 0 0 512 512;" xml:space="preserve">
<style type="text/css">
	.st0{fill:#B2D5FF;}
	.st1{fill:#FFC200;}
	.st2{fill:#4A5160;}
	.st3{fill:#6D7486;}
	.st4{fill:#B0B5CA;}
	.st5{fill:#D1D6E5;}
</style>
<g id="tray_background">
	<circle class="st0" cx="253.5" cy="334.2" r="85.6"/>
</g>
<g id="stars">
	<polygon class="st1" points="271.3,408.9 265.4,398 259.5,408.9 248.5,414.8 259.5,420.7 265.4,431.7 271.3,420.7 282.2,414.8 	"/>
	<polygon class="st1" points="316.1,346 312.2,338.8 308.3,346 301.1,349.9 308.3,353.7 312.2,360.9 316.1,353.7 323.2,349.9 	"/>
	<polygon class="st1" points="306.8,420.1 303.2,413.5 299.6,420.1 293,423.7 299.6,427.3 303.2,433.9 306.8,427.3 313.4,423.7 	"/>
	<polygon class="st1" points="301,386.5 298.8,382.4 296.6,386.5 292.5,388.7 296.6,390.9 298.8,395 301,390.9 305.1,388.7 	"/>
	<polygon class="st1" points="257.4,316.3 253.6,309.1 249.7,316.3 242.5,320.2 249.7,324 253.6,331.2 257.4,324 264.6,320.2 	"/>
	<polygon class="st1" points="228.9,404.1 226.9,400.4 224.8,404.1 221.1,406.1 224.8,408.1 226.9,411.8 228.9,408.1 232.6,406.1 	
		"/>
	<polygon class="st1" points="212.4,425.4 210.2,421.3 208,425.4 203.9,427.6 208,429.8 210.2,433.9 212.4,429.8 216.5,427.6 	"/>
	<polygon class="st1" points="231.5,308.1 229.5,304.3 227.5,308.1 223.7,310.1 227.5,312.1 229.5,315.9 231.5,312.1 235.3,310.1 	
		"/>
</g>
<g id="plate">
	<path class="st2" d="M449.8,438.3l-5.2,24.9c-1.8,8.6-9.4,14.7-18.1,14.7H84.8c-8.9,0-16.6-6.3-18.2-15.2l-4.6-24.5L449.8,438.3
		L449.8,438.3z"/>
	<path class="st3" d="M455.7,406.9H56.3c-4.2,0-8.2,1.6-11.2,4.6c-6.2,6.1-6.2,16-0.1,22c2.9,2.9,7,4.6,11.1,4.6h399.6
		c4.2,0,8.2-1.6,11.2-4.6s4.6-6.9,4.6-11.1C471.5,413.9,464.5,406.9,455.7,406.9C455.8,406.9,455.7,406.9,455.7,406.9z"/>
	<path class="st4" d="M67.2,422.5c0-4.1,1.7-8.1,4.6-11.1s7-4.6,11.2-4.6H56.3c-4.2,0-8.2,1.6-11.2,4.6c-6.2,6.1-6.2,16-0.1,22
		c2.9,2.9,7,4.6,11.1,4.6h26.8C74.3,438.1,67.2,431.2,67.2,422.5C67.2,422.6,67.2,422.5,67.2,422.5z"/>
	<path class="st3" d="M93.4,462.7l-4.6-24.5H62.1l4.6,24.5c1.6,8.7,9.3,15.2,18.2,15.2h26.8C102.7,477.9,95,471.6,93.4,462.7z"/>
</g>
<g id="lid">
	<path class="st3" d="M271,220.2l-30.2-0.1v27.1h30.3v-26.8L271,220.2z"/>
	<path class="st4" d="M240.9,220.1c-14.2-8.3-18.9-26.6-10.6-40.8c8.3-14.2,26.6-18.9,40.8-10.6c14.2,8.3,18.9,26.6,10.6,40.8
		c-5.4,9.1-15.2,14.7-25.7,14.7C250.7,224.2,245.5,222.8,240.9,220.1z"/>
	<path class="st4" d="M271.1,247.5c91.4,6.8,163.9,74.3,170.7,159.3H70.2c6.8-85,79.3-152.5,170.7-159.3c5-0.4,10-0.5,15.1-0.5
		C261.1,246.9,266.1,247.1,271.1,247.5L271.1,247.5z"/>
	<path class="st5" d="M267.7,247.5c0.5,0,1.2-0.1,1.7-0.1c-4.5-0.3-8.9-0.4-13.4-0.4c-5.1,0-10.1,0.2-15.1,0.5
		C149.5,254.3,77,321.8,70.2,406.8h44.6C121.6,321.8,176.3,254.2,267.7,247.5L267.7,247.5z"/>
</g>
</svg>
