<?xml version="1.0" encoding="utf-8"?>
<!-- Generator: Adobe Illustrator 24.0.0, SVG Export Plug-In . SVG Version: 6.00 Build 0)  -->
<svg version="1.1" id="Layer_1" xmlns="http://www.w3.org/2000/svg" xmlns:xlink="http://www.w3.org/1999/xlink" x="0px" y="0px"
	 viewBox="0 0 512 512" style="enable-background:new 0 0 512 512;" xml:space="preserve">
<style type="text/css">
	.inner{fill:#FFFFFF;}
</style>
<path class="inner" d="M500.9,17.8c-6.8-3-14.7-1.8-20.2,3.1L428,67.5l-52.8-47.2c-7.1-6.4-18-6.4-25.1,0l-52.7,47.1l-52.7-47.1
	c-7.1-6.4-17.9-6.4-25.1,0l-52.8,47.2l-52.7-46.6c-5.5-4.9-13.4-6.1-20.2-3.1c-6.8,3-11.1,9.8-11.1,17.2v307.1h-64
	C8.4,342.1,0,350.5,0,360.9v45.8c0,48.4,38.6,88,86.6,89.7v0.1h331.3v-0.1c1.5,0.1,2.9,0.1,4.4,0.1c49.5,0,89.7-40.3,89.7-89.7V35
	C512,27.6,507.7,20.9,500.9,17.8z"/>
<path d="M311.8,174.6H195.8c-10.4,0-18.8,8.4-18.8,18.8s8.4,18.8,18.8,18.8h116.1c10.4,0,18.8-8.4,18.8-18.8
	S322.2,174.6,311.8,174.6z"/>
<path d="M399.7,262.4H195.8c-10.4,0-18.8,8.4-18.8,18.8s8.4,18.8,18.8,18.8h203.9c10.4,0,18.8-8.4,18.8-18.8
	S410.1,262.4,399.7,262.4z"/>
<path d="M500.9,17.8c-6.8-3-14.7-1.8-20.2,3.1L428,67.5l-52.8-47.2c-7.1-6.4-18-6.4-25.1,0l-52.7,47.1l-52.7-47.1
	c-7.1-6.4-17.9-6.4-25.1,0l-52.8,47.2l-52.7-46.6c-5.5-4.9-13.4-6.1-20.2-3.1c-6.8,3-11.1,9.8-11.1,17.2v307.1h-64
	C8.4,342.1,0,350.5,0,360.9v45.8c0,48.4,38.6,88,86.6,89.7v0.1h331.3v-0.1c1.5,0.1,2.9,0.1,4.4,0.1c49.5,0,89.7-40.3,89.7-89.7V35
	C512,27.6,507.7,20.9,500.9,17.8z M37.6,406.7v-27h294.9v27c0,19.4,6.2,37.4,16.7,52.1H89.7C61,458.8,37.6,435.5,37.6,406.7z
	 M474.4,406.7c0,28.7-23.4,52.1-52.1,52.1c-28.7,0-52.1-23.4-52.1-52.1v-45.8c0-10.4-8.4-18.8-18.8-18.8H120.5V76.8l34,30
	c7.2,6.3,17.9,6.3,25-0.1l52.7-47.1l52.7,47.1c7.1,6.4,18,6.4,25.1,0l52.7-47.1l52.7,47.1c7.1,6.4,17.9,6.4,25,0.1l34-30V406.7z"/>
</svg>
