<?xml version="1.0" encoding="utf-8"?>
<!-- Generator: Adobe Illustrator 24.0.0, SVG Export Plug-In . SVG Version: 6.00 Build 0)  -->
<svg version="1.1" id="search_svg" xmlns="http://www.w3.org/2000/svg" xmlns:xlink="http://www.w3.org/1999/xlink" x="0px" y="0px"
	 viewBox="0 0 512 512" style="enable-background:new 0 0 512 512;" xml:space="preserve">
<path d="M492.1,464.5L372,339.1c31.1-37.3,48-83.6,48-131.6C420,94.6,328.4,3,215.5,3S11,94.6,11,207.5s91.6,204.5,204.5,204.5
	c42.7,0,82.7-12.4,117.4-37.3L453.8,501c5.3,5.3,11.6,8,19.6,8c7.1,0,13.3-2.7,18.7-7.1C502.7,492.1,502.7,475.2,492.1,464.5z
	 M215.5,56.4c83.6,0,151.2,67.6,151.2,151.2s-67.6,151.2-151.2,151.2S64.3,291.1,64.3,207.5S131.9,56.4,215.5,56.4z"/>
</svg>
