<?xml version="1.0" encoding="utf-8"?>
<!-- Generator: Adobe Illustrator 24.0.0, SVG Export Plug-In . SVG Version: 6.00 Build 0)  -->
<svg version="1.1" id="Layer_1" xmlns="http://www.w3.org/2000/svg" xmlns:xlink="http://www.w3.org/1999/xlink" x="0px" y="0px"
	 viewBox="0 0 512 512" style="enable-background:new 0 0 512 512;" xml:space="preserve">
<style type="text/css">
	.inner{fill:#FFFFFF;}
</style>
<circle class="inner" cx="256" cy="256" r="256"/>
<path d="M386.1,169c-4.4-10.3-10.6-19.6-18.6-27.6c-8-8-17.3-14.2-27.6-18.6c-10.7-4.5-22-6.8-33.8-6.8c-11.7,0-23.1,2.3-33.8,6.8
	c-10.3,4.4-19.6,10.6-27.6,18.6c-8,8-14.2,17.3-18.6,27.6c-4.5,10.7-6.8,22-6.8,33.8c0,14.6,3.7,29,10.7,41.8l1.4,2.6L120.5,358
	c-1.4,1.4-1.8,3.5-0.9,5.6c0.1,0.1,0.2,0.4,0.6,0.8l24.4,24.4c0.3,0.3,0.5,0.5,0.9,0.6c2,0.8,4,0.5,5.5-0.9l17.9-17.9l24.5,24.5
	c0.2,0.2,0.5,0.5,0.9,0.6c2,0.8,4,0.5,5.5-0.9l24-24c0.3-0.3,0.5-0.5,0.6-0.9c0.8-2,0.5-4-0.9-5.5L199,340.1l62.6-62.6l2.6,1.4
	c12.7,7,27.2,10.7,41.8,10.7c11.7,0,23.1-2.3,33.8-6.8c10.3-4.4,19.6-10.6,27.6-18.6c8-8,14.2-17.2,18.6-27.6
	c4.5-10.8,6.8-22.2,6.8-33.9C392.9,191.1,390.6,179.8,386.1,169z M340.7,237.5c-9.3,9.3-21.6,14.4-34.7,14.4
	c-13.1,0-25.4-5.1-34.7-14.4c-9.3-9.3-14.4-21.6-14.4-34.7c0-13.1,5.1-25.4,14.4-34.7c9.3-9.3,21.6-14.4,34.7-14.4
	s25.4,5.1,34.7,14.4c9.3,9.3,14.4,21.6,14.4,34.7C355.1,215.9,350,228.2,340.7,237.5z"/>
<path d="M256,0C114.6,0,0,114.6,0,256s114.6,256,256,256s256-114.6,256-256S397.4,0,256,0z M256,474.8
	c-120.8,0-218.8-98-218.8-218.8S135.2,37.2,256,37.2s218.8,98,218.8,218.8S376.8,474.8,256,474.8z"/>
</svg>
