<?xml version="1.0" encoding="utf-8"?>
<!-- Generator: Adobe Illustrator 24.0.0, SVG Export Plug-In . SVG Version: 6.00 Build 0)  -->
<svg version="1.1" id="Layer_1" xmlns="http://www.w3.org/2000/svg" xmlns:xlink="http://www.w3.org/1999/xlink" x="0px" y="0px"
	 viewBox="0 0 512 512" style="enable-background:new 0 0 512 512;" xml:space="preserve">
<style type="text/css">
	.inner{fill:#FFFFFF;}
</style>
<circle class="inner" cx="256" cy="256.8" r="256.8"/>
<path d="M437.6,75.2C389.1,26.7,324.6,0,256,0S122.9,26.7,74.4,75.2c-48.5,48.5-75.2,113-75.2,181.6s26.7,133.1,75.2,181.6
	c48.5,48.5,113,75.2,181.6,75.2s133.1-26.7,181.6-75.2c48.5-48.5,75.2-113,75.2-181.6S486.1,123.7,437.6,75.2z M256,149
	c42,0,76.1,34.1,76.1,76.1S298,301.2,256,301.2c-42,0-76.1-34.1-76.1-76.1S214,149,256,149z M256,339.2c59.4,0,110,41.7,121.3,99.6
	c-36,24.1-77.9,36.8-121.3,36.8s-85.3-12.7-121.3-36.8C146,380.9,196.6,339.2,256,339.2z M364.5,343c-12-10.9-25.4-19.8-40-26.6
	c28.8-21.6,45.7-55.1,45.7-91.3c0-62.9-51.2-114.1-114.1-114.1c-62.9,0-114.1,51.2-114.1,114.1c0,36.1,16.9,69.7,45.7,91.3
	c-14.6,6.8-28,15.7-40,26.6c-20.9,18.9-36.4,42.8-45.2,69.4c-19.6-19.3-35.1-41.7-46.3-66.7c-12.5-28.1-18.9-58-18.9-88.9
	C37.2,136.2,135.4,38,256,38c120.6,0,218.8,98.2,218.8,218.8c0,30.9-6.4,60.8-18.9,88.9c-11.2,25-26.7,47.5-46.3,66.8
	C400.9,385.8,385.4,361.9,364.5,343z"/>
</svg>
