<?xml version="1.0" encoding="utf-8"?>
<!-- Generator: Adobe Illustrator 24.0.0, SVG Export Plug-In . SVG Version: 6.00 Build 0)  -->
<svg version="1.1" id="Layer_1" xmlnssvgjs="http://svgjs.com/svgjs"
	 xmlns="http://www.w3.org/2000/svg" xmlnsxlink="http://www.w3.org/1999/xlink" x="0px" y="0px" viewBox="0 0 512 512"
	 style="enable-background:new 0 0 512 512;" xmlspace="preserve">
<style type="text/css">
	.inner{fill:#FFFFFF;}
</style>
<path class="inner" d="M479,288.7c-9.8-10.6-21.2-19.1-33.8-25.2c20.5-16.4,33.7-41.6,33.7-69.9c0-49.4-40.2-89.5-89.5-89.5
	s-89.5,40.2-89.5,89.5c0,28.2,13.2,53.5,33.7,69.9c-12.7,6.2-24,14.6-33.8,25.2c-2.5,2.7-4.8,5.5-7,8.4
	c-14.6-13.4-31.3-23.9-49.7-31.2c28.2-20.9,46.4-54.4,46.4-92.2c0-63.3-51.5-114.8-114.8-114.8S59.9,110.4,59.9,173.7
	c0,37.7,18.3,71.2,46.4,92.2c-22.6,9-42.6,22.6-59.3,40.8c-30,32.5-46.5,76.5-46.5,124.1c0,10.9,8.8,19.7,19.7,19.7
	c0.5,0,1,0,1.6-0.1v0h305.2v0c0.7,0.1,1.3,0.1,2,0.1c10.9,0,19.7-8.8,19.7-19.7c0-12.5-1.1-24.7-3.4-36.6h146v-0.1
	c0.6,0.1,1.1,0.1,1.7,0.1c10.2,0,18.5-8.3,18.5-18.5C511.7,342.3,500.1,311.5,479,288.7z"/>
<path d="M479,288.7c-9.8-10.6-21.2-19.1-33.8-25.2c20.5-16.4,33.7-41.6,33.7-69.9c0-49.4-40.2-89.5-89.5-89.5s-89.5,40.2-89.5,89.5
	c0,28.2,13.2,53.5,33.7,69.9c-12.7,6.2-24,14.6-33.8,25.2c-2.5,2.7-4.8,5.5-7,8.4c-14.6-13.4-31.3-23.9-49.7-31.2
	c28.2-20.9,46.4-54.4,46.4-92.2c0-63.3-51.5-114.8-114.8-114.8S59.9,110.4,59.9,173.7c0,37.7,18.3,71.2,46.4,92.2
	c-22.6,9-42.6,22.6-59.3,40.8c-30,32.5-46.5,76.5-46.5,124.1c0,10.9,8.8,19.7,19.7,19.7c0.5,0,1,0,1.6-0.1v0h305.2v0
	c0.7,0.1,1.3,0.1,2,0.1c10.9,0,19.7-8.8,19.7-19.7c0-12.5-1.1-24.7-3.4-36.6h146v-0.1c0.6,0.1,1.1,0.1,1.7,0.1
	c10.2,0,18.5-8.3,18.5-18.5C511.7,342.3,500.1,311.5,479,288.7z M389.4,143c27.8,0,50.5,22.7,50.5,50.5c0,27.8-22.7,50.5-50.5,50.5
	c-27.8,0-50.5-22.7-50.5-50.5C338.9,165.7,361.5,143,389.4,143z M97.9,173.7c0-42.4,34.5-76.8,76.8-76.8s76.8,34.5,76.8,76.8
	s-34.5,76.8-76.8,76.8S97.9,216.1,97.9,173.7z M307.9,410.3H41.5c4.2-28.4,17.2-55.4,36.9-76.2c25.4-26.7,59.5-41.4,96.3-41.4
	s70.9,14.7,96.3,41.4c0.6,0.7,1.2,1.3,1.8,2c15,16.4,25.8,36.5,31.7,57.9C305.9,399.5,307.1,404.9,307.9,410.3z M333.2,354.1
	c-4.1-9.4-9-18.5-14.7-26.9c2.9-4.6,6.3-8.9,10-12.8c16-16.9,37.6-26.2,60.8-26.2s44.8,9.3,60.8,26.2c10.5,11.1,18,24.9,21.7,39.7
	H333.2z"/>
</svg>
