<?xml version="1.0" standalone="no"?>
<!DOCTYPE svg PUBLIC "-//W3C//DTD SVG 20010904//EN"
 "http://www.w3.org/TR/2001/REC-SVG-20010904/DTD/svg10.dtd">
<svg version="1.0" xmlns="http://www.w3.org/2000/svg"
 width="512.000000pt" height="512.000000pt" viewBox="0 0 512.000000 512.000000"
 preserveAspectRatio="xMidYMid meet">
<metadata>
Created by potrace 1.11, written by Peter Selinger 2001-2013
</metadata>
<g transform="translate(0.000000,512.000000) scale(0.100000,-0.100000)"
fill="#000000" stroke="none">
<path d="M2360 5114 c-202 -24 -306 -41 -425 -71 -912 -228 -1630 -946 -1858
-1858 -55 -222 -72 -365 -72 -625 0 -260 17 -403 72 -625 228 -912 946 -1630
1858 -1858 222 -55 365 -72 625 -72 260 0 403 17 625 72 912 228 1630 946
1858 1858 55 222 72 365 72 625 0 260 -17 403 -72 625 -225 902 -929 1614
-1828 1851 -207 54 -368 75 -610 79 -115 2 -226 1 -245 -1z m630 -1100 c230
-58 408 -243 456 -474 21 -101 15 -258 -13 -321 -48 -107 -156 -179 -270 -179
-148 0 -224 93 -220 270 1 63 -3 82 -23 120 -99 178 -378 123 -475 -93 -24
-52 -29 -76 -29 -148 -1 -83 0 -87 38 -145 42 -63 112 -135 388 -397 186 -177
277 -284 328 -392 39 -82 64 -195 55 -255 -15 -107 -48 -250 -72 -310 -107
-271 -351 -489 -638 -572 -66 -19 -103 -23 -215 -22 -119 0 -145 4 -217 27
-91 31 -212 106 -264 164 -58 67 -109 155 -136 237 -34 104 -38 279 -10 363
64 186 307 264 432 139 50 -50 65 -98 65 -205 0 -88 17 -136 62 -178 64 -60
176 -70 273 -24 62 29 130 94 160 151 23 44 47 176 39 217 -15 81 -102 181
-374 433 -395 366 -478 523 -425 811 40 217 125 381 270 525 229 227 543 326
815 258z"/>
</g>
</svg>
