<?xml version="1.0" encoding="utf-8"?>
<!-- Generator: Adobe Illustrator 24.0.0, SVG Export Plug-In . SVG Version: 6.00 Build 0)  -->
<svg version="1.1" id="Layer_1" xmlns="http://www.w3.org/2000/svg" xmlns:xlink="http://www.w3.org/1999/xlink" x="0px" y="0px"
	 viewBox="0 0 512 256" style="enable-background:new 0 0 512 256;" xml:space="preserve">
<style type="text/css">
	.snacktrack_outline_st0{fill:#FF4B61;}
	.snacktrack_outline_st1{fill:#262626;}
</style>
<g>
	<path class="snacktrack_outline_st0" d="M55.2,165.8c-5,0-9.5-1.8-12.8-5.1c-0.2-0.2-0.4-0.4-0.6-0.6c-0.1-0.1-0.2-0.3-0.4-0.4
		c-0.3-0.4-0.6-0.8-0.9-1.2c-2.5-3.7-3.5-8.3-2.8-13c0.6-4.2,4.7-7.7,9.1-7.7c2,0,3.8,0.7,5.1,2.1l0.3,0.3l0,0l0.1,0.1
		c0.1,0.2,0.3,0.3,0.4,0.5c1,1.5,1.5,3.5,1.2,5.4c-0.1,0.9,0.1,1.7,0.5,2.3c0,0.1,0.1,0.1,0.1,0.2l0.2,0.2c0.6,0.6,1.4,0.9,2.3,0.9
		c2.5,0,5-2.1,5.5-4.7l0.3-1.9c0.1-0.5-0.2-1.3-0.9-2.3c-0.2-0.3-0.5-0.6-0.8-1c-0.2-0.2-0.3-0.4-0.5-0.6c-0.3-0.4-0.7-0.7-1-1.1
		c-1.2-1.3-2.7-2.6-4.2-4c-1.7-1.5-3.4-3.1-5-4.8l-0.1-0.1c-0.6-0.6-1.1-1.2-1.7-1.8c-0.3-0.3-0.6-0.7-0.9-1
		c-0.6-0.7-1.2-1.5-1.6-2.2c-2.6-3.8-3.5-7.3-2.9-10.8l0.5-2.7c1.9-11.1,12.5-20,23.6-20c5,0,9.6,1.8,12.8,5.1
		c0.2,0.2,0.4,0.4,0.6,0.6c0.1,0.2,0.3,0.3,0.4,0.4c0.3,0.4,0.6,0.8,0.9,1.2c2.5,3.7,3.5,8.3,2.7,13c-0.6,4.2-4.7,7.7-9.1,7.7
		c-2,0-3.8-0.7-5.1-2.1c-0.1-0.1-0.2-0.2-0.2-0.3l-0.2-0.2c-0.1-0.2-0.3-0.3-0.4-0.5c-1-1.5-1.4-3.4-1.2-5.3c0.1-1,0-1.8-0.5-2.5
		c0-0.1-0.1-0.1-0.1-0.2l-0.1-0.2c-0.6-0.6-1.4-0.9-2.3-0.9c-2.6,0-5,2.2-5.5,4.8l-0.3,1.8c-0.1,0.5,0.2,1.3,0.9,2.3
		c0.2,0.3,0.5,0.6,0.8,1c0.1,0.2,0.3,0.4,0.5,0.5c0.3,0.4,0.7,0.7,1,1.1c1.2,1.3,2.7,2.6,4.2,4c1.7,1.6,3.5,3.2,5.1,4.9
		c0.6,0.6,1.2,1.2,1.7,1.8c0.3,0.3,0.6,0.7,0.9,1c0.6,0.7,1.1,1.5,1.6,2.2c2.6,3.8,3.5,7.3,2.9,10.8l-0.5,2.7
		C76.8,157,66.5,165.8,55.2,165.8z"/>
	<path class="snacktrack_outline_st1" d="M67.5,93.4c4.5,0,8.3,1.7,11,4.4c0.2,0.2,0.3,0.3,0.5,0.5c0.1,0.1,0.2,0.2,0.3,0.4c0.3,0.3,0.5,0.7,0.8,1
		c2.1,3,3,7,2.3,11.3c-0.5,3.1-3.5,5.5-6.6,5.5c-1.4,0-2.5-0.5-3.4-1.4c0-0.1-0.1-0.1-0.1-0.2c0,0-0.1-0.1-0.1-0.1
		c-0.1-0.1-0.2-0.2-0.2-0.3c-0.7-1-1-2.2-0.8-3.6c0.2-1.6-0.1-3.1-0.9-4.2c-0.1-0.1-0.2-0.3-0.3-0.4c0,0-0.1-0.1-0.1-0.1
		c-0.1-0.1-0.1-0.1-0.2-0.2c-1-1-2.4-1.6-4.1-1.6c-3.7,0-7.3,3-8,6.9l-0.3,1.8c-0.2,1.3,0.3,2.7,1.3,4.1c0.3,0.4,0.6,0.8,0.9,1.2
		c0.2,0.2,0.3,0.4,0.5,0.6c0.4,0.4,0.7,0.8,1.1,1.2c2.7,2.7,6.2,5.7,9.3,8.8c0,0,0,0,0,0c0.5,0.6,1.1,1.1,1.6,1.7
		c0.3,0.3,0.6,0.6,0.8,1c0.5,0.7,1,1.3,1.5,2c1.9,2.8,3,5.8,2.5,9l-0.5,2.7c-1.7,9.9-11.1,18-21.2,18c-4.5,0-8.3-1.7-11-4.4
		c-0.2-0.2-0.3-0.3-0.5-0.5c-0.1-0.1-0.2-0.2-0.3-0.4c-0.3-0.3-0.5-0.7-0.8-1c-2.1-3-3-6.9-2.3-11.2c0.5-3.1,3.5-5.5,6.6-5.5
		c1.4,0,2.5,0.5,3.3,1.3c0,0,0,0,0,0c0.1,0.1,0.1,0.1,0.1,0.2c0,0,0.1,0.1,0.1,0.1c0.1,0.1,0.2,0.2,0.2,0.3c0.7,1,1,2.3,0.8,3.7
		c-0.2,1.5,0.2,3,0.9,4.1c0.1,0.1,0.2,0.3,0.3,0.4c0,0,0.1,0.1,0.1,0.1c0.1,0.1,0.1,0.1,0.2,0.2c1,1,2.4,1.6,4.1,1.6
		c3.7,0,7.3-3,7.9-6.8l0.3-1.9c0.2-1.3-0.3-2.7-1.3-4.1c-0.3-0.4-0.6-0.8-0.9-1.2c-0.2-0.2-0.3-0.4-0.5-0.6
		c-0.3-0.4-0.7-0.8-1.1-1.2c-2.7-2.7-6.2-5.7-9.3-8.8c0,0,0,0,0,0c-0.6-0.6-1.1-1.1-1.6-1.7c-0.3-0.3-0.6-0.6-0.8-1
		c-0.5-0.7-1-1.3-1.5-2c-1.9-2.8-3-5.8-2.5-9l0.5-2.7C48.1,101.5,57.6,93.4,67.5,93.4 M67.5,88.4c-12.2,0-23.9,9.9-26.1,22.1
		l-0.5,2.7c-0.7,4.2,0.4,8.4,3.3,12.7c0.5,0.8,1.1,1.6,1.8,2.3c0.3,0.4,0.6,0.7,0.9,1.1c0.5,0.6,1.1,1.2,1.7,1.8l0,0l0,0
		c0,0,0,0,0.1,0.1l0.1,0.1l0,0c1.7,1.7,3.4,3.3,5.1,4.8c1.5,1.4,2.9,2.7,4.1,3.9c0.3,0.4,0.7,0.7,0.9,1c0.1,0.2,0.3,0.3,0.4,0.5
		c0.2,0.3,0.4,0.6,0.6,0.8c0.2,0.3,0.4,0.6,0.4,0.7l-0.3,1.6c-0.2,1.3-1.7,2.6-3,2.6c-0.3,0-0.5-0.1-0.6-0.1
		c-0.1-0.1-0.1-0.3-0.1-0.6c0.3-2.6-0.3-5.1-1.6-7.2c-0.2-0.2-0.3-0.5-0.5-0.7c-0.1-0.1-0.2-0.2-0.2-0.3c-0.1-0.1-0.2-0.2-0.3-0.3
		l0,0l0,0c-1.8-1.8-4.2-2.8-6.9-2.8c-5.6,0-10.7,4.3-11.5,9.8c-0.8,5.3,0.3,10.6,3.2,14.8c0.3,0.5,0.7,0.9,1,1.4
		c0.1,0.2,0.3,0.3,0.4,0.5c0.2,0.2,0.4,0.5,0.6,0.7c3.7,3.8,8.9,5.9,14.6,5.9c12.4,0,23.9-9.7,26.1-22.1l0.5-2.7
		c0.7-4.2-0.4-8.4-3.3-12.7c-0.5-0.8-1.1-1.6-1.8-2.3c-0.3-0.4-0.6-0.7-0.9-1.1c-0.5-0.6-1.1-1.2-1.8-1.9l0,0l0,0
		c-1.7-1.7-3.5-3.4-5.2-4.9c-1.5-1.4-2.9-2.7-4.1-3.9c-0.4-0.4-0.7-0.7-1-1c-0.1-0.2-0.3-0.3-0.4-0.5c-0.2-0.3-0.4-0.6-0.6-0.8
		c-0.2-0.3-0.4-0.6-0.4-0.7l0.3-1.5c0.3-1.6,1.8-2.7,3-2.7c0.3,0,0.5,0.1,0.5,0.1c0.1,0.1,0.2,0.4,0.1,0.8c-0.3,2.5,0.2,5,1.6,7
		c0.2,0.2,0.3,0.5,0.5,0.7c0.1,0.1,0.1,0.2,0.2,0.3c0.1,0.1,0.2,0.2,0.3,0.3c1.8,1.8,4.3,2.8,6.9,2.8c5.6,0,10.7-4.3,11.5-9.8
		c0.8-5.4-0.3-10.6-3.1-14.8c-0.3-0.5-0.7-0.9-1-1.4c-0.1-0.2-0.3-0.3-0.4-0.5c-0.2-0.2-0.4-0.5-0.6-0.7
		C78.4,90.5,73.2,88.4,67.5,88.4L67.5,88.4z"/>
</g>
<g>
	<path class="snacktrack_outline_st0" d="M114.3,164.6c-2.8,0-5.3-1-7.1-2.9c-0.1-0.1-0.2-0.2-0.3-0.3c-0.1-0.1-0.1-0.2-0.2-0.3
		c-0.2-0.2-0.3-0.4-0.5-0.7c-0.7-1.1-1.2-2.3-1.5-3.6l-4.1-21.7l-3.8,21.8c-0.8,4.3-4.7,7.7-9.1,7.7c-2,0-3.9-0.8-5.2-2.1
		c-0.1-0.1-0.1-0.2-0.2-0.2l-0.1-0.2c-0.1-0.2-0.3-0.3-0.4-0.5c-1.1-1.6-1.5-3.5-1.1-5.5l9.8-55.6c0.8-4.6,5-8.2,9.6-8.2
		c2.8,0,5.3,1,7.1,2.9c0.1,0.1,0.2,0.2,0.3,0.3c0.1,0.1,0.1,0.2,0.2,0.3c0.2,0.2,0.3,0.4,0.5,0.7c0.7,1.1,1.2,2.3,1.5,3.6l4.1,21.6
		l3.8-21.7c0.8-4.3,4.7-7.7,9.1-7.7c2,0,3.9,0.8,5.2,2.1c0.1,0.1,0.1,0.2,0.2,0.2l0.2,0.2c0.1,0.2,0.3,0.3,0.4,0.5
		c1.1,1.6,1.4,3.5,1.1,5.5l-9.8,55.6C123.1,161,118.9,164.6,114.3,164.6z"/>
	<path class="snacktrack_outline_st1" d="M126.7,94.8c1.4,0,2.6,0.5,3.4,1.4c0,0,0.1,0.1,0.1,0.2c0,0,0.1,0.1,0.1,0.1c0.1,0.1,0.2,0.2,0.2,0.3
		c0.7,1,1,2.3,0.7,3.7l-9.8,55.6c-0.6,3.4-3.8,6.1-7.2,6.1c-2.1,0-4-0.8-5.3-2.1c-0.1-0.1-0.2-0.2-0.2-0.2c-0.1-0.1-0.1-0.1-0.2-0.2
		c-0.1-0.2-0.3-0.3-0.4-0.5c-0.5-0.8-0.9-1.7-1.1-2.7l-6.4-33.4c0,0,0-0.1,0-0.1c0,0,0,0,0,0c0,0,0,0,0,0c0,0-0.1-0.1-0.2-0.1
		c-0.2,0-0.3,0.1-0.4,0.3l-5.9,33.4c-0.5,3.1-3.5,5.6-6.6,5.6c-1.4,0-2.6-0.5-3.4-1.4c-0.1-0.1-0.1-0.1-0.1-0.2c0,0-0.1-0.1-0.1-0.1
		c-0.1-0.1-0.2-0.2-0.2-0.3c-0.7-1-1-2.3-0.7-3.7l9.8-55.6c0.6-3.4,3.8-6.1,7.2-6.1c2.1,0,4,0.8,5.3,2.1c0.1,0.1,0.2,0.2,0.2,0.2
		c0.1,0.1,0.1,0.1,0.2,0.2c0.1,0.2,0.3,0.3,0.4,0.5c0.5,0.8,0.9,1.7,1.1,2.7l6.4,33.3c0,0,0,0.1,0,0.1c0,0,0,0,0,0c0,0,0,0,0,0
		c0,0.1,0.1,0.1,0.2,0.1c0.2,0,0.3-0.1,0.4-0.3l5.9-33.3C120.6,97.3,123.6,94.8,126.7,94.8 M126.7,89.8c-5.5,0-10.6,4.3-11.5,9.7
		l-1.5,8.3l-1.6-8.3c-0.3-1.7-0.9-3.2-1.9-4.5c-0.2-0.3-0.4-0.6-0.6-0.9c-0.1-0.1-0.2-0.2-0.3-0.3c-0.1-0.1-0.3-0.3-0.4-0.4
		c-2.3-2.4-5.5-3.7-8.9-3.7c-5.8,0-11.1,4.5-12.1,10.2l-9.8,55.6c-0.5,2.6,0.1,5.2,1.5,7.3c0.2,0.2,0.3,0.5,0.5,0.7
		c0.1,0.1,0.1,0.2,0.2,0.2c0.1,0.1,0.2,0.3,0.3,0.4c1.8,1.9,4.3,2.9,7,2.9c5.5,0,10.6-4.3,11.5-9.7l1.5-8.3l1.6,8.3
		c0.3,1.7,0.9,3.2,1.9,4.5c0.2,0.3,0.4,0.6,0.6,0.9c0.1,0.1,0.2,0.2,0.3,0.3c0.1,0.1,0.3,0.3,0.4,0.4c2.3,2.3,5.5,3.6,8.9,3.6
		c5.8,0,11.1-4.5,12.1-10.2l9.8-55.6c0.5-2.6-0.1-5.2-1.5-7.3c-0.2-0.2-0.3-0.5-0.5-0.7c-0.1-0.1-0.2-0.2-0.2-0.3
		c-0.1-0.1-0.2-0.2-0.3-0.3C131.9,90.8,129.4,89.8,126.7,89.8L126.7,89.8z"/>
</g>
<g>
	<path class="snacktrack_outline_st0" d="M163,164.6c-2.3,0-4.4-0.8-5.9-2.4c-0.1-0.1-0.2-0.2-0.3-0.3l-0.2-0.2c-0.1-0.2-0.3-0.4-0.4-0.5
		c-0.9-1.3-1.4-2.9-1.4-4.6l0-4.7h-9.6c0,0,0,0.1,0,0.1l-2,5.5c-1.5,4.2-5.7,7.2-9.9,7.2c-1.8,0-3.4-0.7-4.6-1.9
		c-0.1-0.1-0.1-0.1-0.2-0.2l-0.1-0.1c-0.1-0.2-0.3-0.3-0.4-0.5c-1.2-1.8-1.4-4-0.6-6.2l21.1-55.8c1.7-4.5,6.2-7.7,10.8-7.7h1.1
		c2.5,0,4.8,0.9,6.4,2.6c0.1,0.1,0.2,0.2,0.3,0.3c0.1,0.1,0.1,0.1,0.2,0.2c0.2,0.2,0.3,0.4,0.5,0.6c0.9,1.4,1.5,3,1.5,4.8l1.5,55.8
		c0.1,2-0.8,4-2.3,5.6C167.1,163.7,165,164.6,163,164.6z M154.8,138l0-12.8l-4.6,12.8H154.8z"/>
	<path class="snacktrack_outline_st1" d="M160.6,94.8c1.9,0,3.5,0.7,4.6,1.9c0.1,0.1,0.1,0.1,0.2,0.2c0,0.1,0.1,0.1,0.1,0.2c0.1,0.1,0.2,0.3,0.3,0.4
		c0.7,1,1,2.1,1.1,3.4l1.5,55.8c0.1,2.8-2.6,5.5-5.5,5.5c-1.6,0-3.1-0.6-4.1-1.6c-0.1-0.1-0.1-0.1-0.2-0.2c0,0-0.1-0.1-0.1-0.1
		c-0.1-0.1-0.2-0.2-0.3-0.4c-0.6-0.9-0.9-2-0.9-3.2l0-5.5c0-0.4-0.1-0.7-0.3-1c0,0-0.1-0.1-0.1-0.1c0,0,0,0,0,0c0,0,0,0-0.1-0.1
		c-0.3-0.3-0.8-0.5-1.3-0.5h-10.3c-1,0-2,0.7-2.4,1.7l-2,5.5c-1.1,3.2-4.3,5.5-7.6,5.5c-1.2,0-2.1-0.4-2.8-1.1c0,0-0.1-0.1-0.1-0.1
		c0,0-0.1-0.1-0.1-0.1c-0.1-0.1-0.1-0.2-0.2-0.3c-0.7-1-0.9-2.4-0.3-3.9l21.1-55.8c1.3-3.5,4.9-6.1,8.5-6.1H160.6 M148.5,140.5h7.1
		c0.9,0,1.8-0.8,1.8-1.7l0-26.3c0-0.1,0-0.1,0-0.2c0,0,0,0,0,0c0,0,0,0,0,0c0-0.1-0.1-0.1-0.2-0.1c-0.1,0-0.3,0.1-0.4,0.3l-9.3,26.3
		c-0.2,0.5-0.1,0.9,0.1,1.2c0,0,0,0.1,0.1,0.1c0,0,0,0,0,0c0,0,0,0,0,0C147.8,140.4,148.1,140.5,148.5,140.5 M160.6,89.8h-1.1
		c-5.7,0-11.1,3.8-13.2,9.3l-21.1,55.8c-1.1,2.9-0.8,6,0.9,8.5c0.2,0.2,0.3,0.4,0.5,0.6c0.1,0.1,0.1,0.2,0.2,0.2
		c0.1,0.1,0.2,0.2,0.3,0.3c1.6,1.7,3.9,2.6,6.4,2.6c5.4,0,10.4-3.6,12.3-8.8l1.4-3.9h5.3l0,2.2c0,2.2,0.6,4.3,1.8,6.1
		c0.2,0.3,0.4,0.5,0.6,0.7c0.1,0.1,0.2,0.2,0.2,0.3c0.1,0.1,0.2,0.2,0.3,0.4c2,2,4.7,3.1,7.6,3.1c2.7,0,5.5-1.2,7.5-3.2
		c2-2,3.1-4.7,3-7.4l-1.5-55.8c-0.1-2.2-0.7-4.3-1.9-6.1c-0.2-0.3-0.4-0.5-0.6-0.8c-0.1-0.1-0.2-0.2-0.2-0.3
		c-0.1-0.2-0.3-0.3-0.4-0.4C166.7,90.9,163.8,89.8,160.6,89.8L160.6,89.8z"/>
</g>
<g>
	<path class="snacktrack_outline_st0" d="M191.4,164.3c-4.9,0-9.3-1.8-12.4-5c-0.2-0.2-0.4-0.4-0.5-0.6c-0.1-0.1-0.2-0.3-0.4-0.4
		c-0.3-0.4-0.6-0.8-0.9-1.2c-2.5-3.7-3.4-8.4-2.6-13.1l5.8-32.8c1.9-10.7,12.2-19.4,23-19.4c4.9,0,9.3,1.8,12.4,5
		c0.2,0.2,0.4,0.4,0.5,0.6c0.1,0.1,0.2,0.3,0.4,0.4c0.3,0.4,0.6,0.8,0.9,1.2c2.3,3.3,3.2,7.3,2.8,11.6c-0.4,4.2-4.4,7.7-8.8,7.7
		c-1.9,0-3.6-0.7-4.9-2c-0.1-0.1-0.2-0.2-0.2-0.3l-0.2-0.2c-0.1-0.2-0.3-0.3-0.4-0.5c-0.9-1.4-1.4-3.1-1.4-4.9
		c0-0.7-0.2-1.3-0.5-1.8c0-0.1-0.1-0.1-0.1-0.2l-0.1-0.2c-0.5-0.5-1.3-0.8-2.2-0.8c-2.5,0-4.8,2.1-5.3,4.6l-5.8,32.8
		c-0.2,1,0,2,0.5,2.7c0.1,0.1,0.1,0.1,0.2,0.2l-1.8,1.7l1.9-1.7l0.1,0.1c0.5,0.5,1.2,0.8,2,0.8c2.1,0,4.3-1.6,5-3.7
		c1.2-3.4,4.5-7.1,8.9-7.1c2,0,3.9,0.7,5.2,2.1c0.1,0.1,0.2,0.2,0.2,0.2l0.1,0.2c0.1,0.2,0.3,0.3,0.4,0.5c1.1,1.6,1.4,3.5,0.9,5.5
		C211.5,156.6,201.7,164.3,191.4,164.3z"/>
	<path class="snacktrack_outline_st1" d="M203.3,94.3c4.4,0,8.1,1.6,10.7,4.2c0.2,0.2,0.3,0.3,0.5,0.5c0.1,0.1,0.2,0.2,0.3,0.4c0.3,0.3,0.5,0.6,0.7,1
		c1.9,2.7,2.8,6.2,2.4,10c-0.3,3-3.3,5.4-6.3,5.4c-1.3,0-2.3-0.5-3.1-1.3c-0.1-0.1-0.1-0.1-0.2-0.2c0,0-0.1-0.1-0.1-0.1
		c-0.1-0.1-0.2-0.2-0.3-0.3c-0.7-1-1-2.2-1-3.5c0-1.2-0.3-2.3-0.9-3.2c-0.1-0.1-0.2-0.2-0.3-0.4c0,0-0.1-0.1-0.1-0.1
		c-0.1-0.1-0.1-0.1-0.2-0.2c-1-1-2.4-1.6-4-1.6c-3.6,0-7.1,2.9-7.7,6.6l-5.8,32.8c-0.3,1.7,0.1,3.3,0.9,4.6c0.1,0.1,0.2,0.3,0.3,0.4
		c0,0,0.1,0.1,0.1,0.1c0.1,0.1,0.1,0.1,0.2,0.2c0.9,1,2.3,1.6,3.8,1.6c3.2,0,6.3-2.3,7.4-5.4c1-2.9,3.6-5.5,6.5-5.5
		c1.4,0,2.6,0.5,3.4,1.3c0,0,0.1,0.1,0.1,0.2c0,0,0.1,0.1,0.1,0.1c0.1,0.1,0.2,0.2,0.2,0.3c0.6,0.9,0.9,2.2,0.5,3.5
		c-2.3,8.9-11,16-20.2,16c-4.3,0-8-1.6-10.6-4.2c-0.2-0.2-0.3-0.3-0.5-0.5c-0.1-0.1-0.2-0.2-0.3-0.4c-0.3-0.3-0.5-0.6-0.7-1
		c-2.1-3-3-7-2.2-11.3l5.8-32.8C184.5,102.1,193.8,94.3,203.3,94.3 M203.3,89.3c-11.9,0-23.3,9.6-25.4,21.5l-5.8,32.8
		c-1,5.4,0.1,10.7,3,15c0.3,0.5,0.7,0.9,1,1.4c0.1,0.2,0.3,0.3,0.4,0.5c0.2,0.2,0.4,0.5,0.6,0.7c3.6,3.7,8.7,5.7,14.2,5.7
		c11.4,0,22.2-8.5,25.1-19.8c0.7-2.7,0.2-5.4-1.3-7.6c-0.2-0.2-0.3-0.5-0.5-0.7c-0.1-0.1-0.1-0.2-0.2-0.2c-0.1-0.1-0.2-0.2-0.3-0.3
		c-1.8-1.8-4.3-2.9-7-2.9c-5.6,0-9.7,4.4-11.2,8.8c-0.4,1.1-1.6,2-2.7,2c-0.2,0-0.2,0-0.3-0.1l0,0l0,0c-0.1-0.1-0.2-0.4-0.1-0.9
		l5.8-32.8c0.3-1.4,1.7-2.5,2.8-2.5c0.3,0,0.4,0.1,0.4,0.1c0,0,0.1,0.2,0.1,0.4c0,2.3,0.6,4.5,1.9,6.3c0.2,0.2,0.3,0.5,0.5,0.7
		c0.1,0.1,0.1,0.2,0.2,0.3c0.1,0.1,0.2,0.2,0.3,0.4c1.7,1.8,4.1,2.7,6.6,2.7c5.7,0,10.8-4.4,11.3-9.9c0.5-4.9-0.6-9.5-3.2-13.3
		c-0.3-0.5-0.7-0.9-1-1.3c-0.1-0.2-0.3-0.3-0.4-0.5c-0.2-0.2-0.4-0.5-0.6-0.7C214,91.3,208.9,89.3,203.3,89.3L203.3,89.3z"/>
</g>
<g>
	<path class="snacktrack_outline_st0" d="M245.3,164.7c-2,0-3.7-0.7-5-2c-0.1-0.1-0.2-0.2-0.2-0.2c0-0.1-0.1-0.1-0.2-0.2c-0.1-0.1-0.2-0.3-0.4-0.5
		c-0.6-0.9-1-1.9-1.2-3.1l-3.3-18.9l-1,1.3c-0.5,0.7-0.9,1.5-1,2.3l-2.4,13.5c-0.8,4.3-4.7,7.7-9.1,7.7c-2,0-3.9-0.8-5.2-2.1
		c-0.1-0.1-0.2-0.2-0.2-0.3l-0.1-0.2c-0.1-0.2-0.3-0.3-0.4-0.5c-1.1-1.6-1.5-3.5-1.1-5.5l9.9-56.1c0.8-4.3,4.7-7.7,9.1-7.7
		c2,0,3.9,0.8,5.2,2.1c0.1,0.1,0.2,0.2,0.2,0.2c0.1,0.1,0.1,0.1,0.2,0.2c0.1,0.2,0.3,0.3,0.4,0.5c1.1,1.6,1.5,3.5,1.1,5.5l-1.7,9.6
		l9.8-13.7c3-4.2,6.4-4.8,8.2-4.8c2,0,3.8,0.7,5.1,2.1c0.1,0.1,0.2,0.2,0.2,0.3c0,0.1,0.1,0.1,0.2,0.2c0.1,0.1,0.2,0.3,0.3,0.4
		c1.7,2.5,1.4,5.8-0.6,8.6l-13.4,17.9c-0.3,0.4-0.4,0.9-0.4,1.3l6,32c0.4,2.4-0.2,4.7-1.8,6.6C250.8,163.3,248,164.7,245.3,164.7
		C245.3,164.7,245.3,164.7,245.3,164.7z"/>
	<path class="snacktrack_outline_st1" d="M256.9,94.4c1.3,0,2.5,0.5,3.3,1.3c0,0,0.1,0.1,0.1,0.2c0,0,0.1,0.1,0.1,0.1c0.1,0.1,0.1,0.2,0.2,0.3
		c1,1.4,1,3.5-0.6,5.7l-13.3,17.9c-0.7,1-1,2.2-0.8,3.2l6,32c0.8,4.1-3.2,7.2-6.7,7.2c-1.2,0-2.4-0.4-3.2-1.2c0,0-0.1-0.1-0.1-0.1
		c0,0-0.1-0.1-0.1-0.1c-0.1-0.1-0.2-0.2-0.2-0.3c-0.4-0.6-0.7-1.3-0.8-2.1l-4-23c0-0.1-0.1-0.2-0.1-0.3c0,0,0,0,0,0c0,0,0,0,0,0
		c0,0,0,0,0,0c-0.1-0.1-0.3-0.2-0.5-0.2c-0.3,0-0.6,0.1-0.8,0.4l-3.3,4.5c-0.7,1-1.2,2.2-1.4,3.3l-2.4,13.5
		c-0.5,3.1-3.5,5.6-6.6,5.6c-1.4,0-2.6-0.5-3.4-1.4c-0.1-0.1-0.1-0.1-0.2-0.2c0,0-0.1-0.1-0.1-0.1c-0.1-0.1-0.2-0.2-0.2-0.3
		c-0.7-1-1-2.3-0.7-3.7l9.9-56.1c0.5-3.1,3.5-5.6,6.6-5.6c1.4,0,2.6,0.5,3.4,1.4c0,0,0.1,0.1,0.1,0.2c0,0,0.1,0.1,0.1,0.1
		c0.1,0.1,0.2,0.2,0.2,0.3c0.7,1,1,2.3,0.7,3.7l-3.3,18.7c0,0.1,0,0.2,0.1,0.3c0,0,0,0,0,0c0,0,0,0,0,0c0,0,0,0,0,0
		c0.1,0.1,0.2,0.1,0.3,0.1c0.1,0,0.3-0.1,0.4-0.2l15.1-21.1C252.7,95.4,255,94.4,256.9,94.4 M256.9,89.4
		C256.9,89.4,256.9,89.4,256.9,89.4c-3.8,0-7.6,2.1-10.2,5.9l-3.5,4.8c0.1-2.2-0.4-4.4-1.6-6.2c-0.2-0.2-0.3-0.5-0.5-0.7
		c-0.1-0.1-0.1-0.2-0.2-0.3c-0.1-0.1-0.2-0.2-0.3-0.3c-1.8-1.9-4.3-2.9-7-2.9c-5.5,0-10.6,4.3-11.5,9.7l-9.9,56.1
		c-0.5,2.6,0.1,5.2,1.5,7.3c0.2,0.2,0.3,0.5,0.5,0.7c0.1,0.1,0.1,0.2,0.2,0.2c0.1,0.1,0.2,0.2,0.3,0.4c1.8,1.8,4.3,2.9,7,2.9
		c5.5,0,10.6-4.3,11.5-9.7l1.2-6.8l1.5,8.5c0.3,1.5,0.8,2.9,1.6,4.1c0.1,0.2,0.3,0.4,0.5,0.7c0.1,0.1,0.1,0.2,0.2,0.2
		c0.1,0.1,0.2,0.2,0.3,0.3c1.7,1.8,4.1,2.8,6.8,2.8c3.5,0,7-1.7,9.3-4.4c2.1-2.5,2.9-5.6,2.3-8.7l-5.9-31.6l13.2-17.6
		c2.7-3.7,3-8.1,0.7-11.5c-0.2-0.2-0.3-0.4-0.5-0.7c-0.1-0.1-0.1-0.2-0.2-0.2c-0.1-0.1-0.2-0.2-0.3-0.3
		C262,90.4,259.6,89.4,256.9,89.4L256.9,89.4L256.9,89.4z"/>
</g>
<g>
	<path class="snacktrack_outline_st0" d="M273.4,164.6c-2,0-3.9-0.8-5.2-2.1c-0.1-0.1-0.2-0.2-0.2-0.3l-0.1-0.1c-0.1-0.2-0.3-0.3-0.4-0.5
		c-1.1-1.6-1.5-3.5-1.1-5.5l8.4-47.8h-4c-2,0-3.8-0.7-5.1-2.1c-0.1-0.1-0.2-0.2-0.2-0.3l-0.2-0.2c-0.1-0.1-0.2-0.3-0.4-0.5
		c-1-1.5-1.4-3.5-1.1-5.4c0.7-4.2,4.7-7.6,8.9-7.6h25c2,0,3.8,0.7,5.1,2.1c0.1,0.1,0.2,0.2,0.2,0.3l0.1,0.1c0.2,0.2,0.3,0.4,0.4,0.5
		c1,1.5,1.4,3.5,1.1,5.4c-0.7,4.2-4.7,7.6-8.9,7.6h-4.7l-8.6,48.7C281.7,161.2,277.8,164.6,273.4,164.6z"/>
	<path class="snacktrack_outline_st1" d="M297.7,94.8c1.4,0,2.5,0.5,3.4,1.3c0.1,0.1,0.1,0.1,0.1,0.2c0,0,0.1,0.1,0.1,0.1c0.1,0.1,0.2,0.2,0.2,0.3
		c0.7,1,0.9,2.2,0.7,3.6c-0.5,3-3.4,5.5-6.5,5.5h-5c-1,0-1.9,0.8-2.1,1.8l-8.6,49c-0.5,3.1-3.5,5.6-6.6,5.6c-1.4,0-2.6-0.5-3.4-1.4
		c-0.1-0.1-0.1-0.1-0.1-0.2c0,0-0.1-0.1-0.1-0.1c-0.1-0.1-0.2-0.2-0.2-0.3c-0.7-1-1-2.3-0.7-3.7l8.6-49c0.1-0.4,0-0.8-0.2-1.2
		c0,0,0-0.1-0.1-0.1c0,0,0,0,0,0c0,0,0,0,0,0c-0.3-0.3-0.6-0.4-1.1-0.4h-5.2c-1.4,0-2.5-0.5-3.4-1.3c-0.1-0.1-0.1-0.1-0.1-0.2
		c0,0-0.1-0.1-0.1-0.1c-0.1-0.1-0.2-0.2-0.2-0.3c-0.7-1-0.9-2.2-0.7-3.6c0.5-3,3.4-5.5,6.5-5.5H297.7 M297.7,89.8h-25
		c-5.4,0-10.4,4.2-11.4,9.6c-0.5,2.6,0.1,5.2,1.5,7.3c0.2,0.2,0.3,0.5,0.5,0.7c0.1,0.1,0.1,0.1,0.2,0.2c0.1,0.1,0.2,0.2,0.3,0.3
		c1.8,1.8,4.3,2.8,6.9,2.8h1l-7.9,44.9c-0.5,2.6,0.1,5.2,1.5,7.3c0.2,0.2,0.3,0.5,0.5,0.7c0.1,0.1,0.1,0.2,0.2,0.2
		c0.1,0.1,0.2,0.3,0.3,0.4c1.8,1.9,4.3,2.9,7,2.9c5.5,0,10.6-4.3,11.5-9.7l8.2-46.6h2.6c5.4,0,10.4-4.2,11.4-9.6
		c0.5-2.6-0.1-5.2-1.5-7.3c-0.2-0.2-0.3-0.5-0.5-0.7c-0.1-0.1-0.1-0.2-0.2-0.2c-0.1-0.1-0.2-0.2-0.3-0.3
		C302.9,90.8,300.4,89.8,297.7,89.8L297.7,89.8z"/>
</g>
<g>
	<path class="snacktrack_outline_st0" d="M325.7,164.7c-2.1,0-4-0.8-5.3-2.1c-0.1-0.1-0.2-0.2-0.2-0.3l-0.1-0.2c-0.1-0.2-0.3-0.3-0.4-0.5
		c-0.8-1.1-1.2-2.4-1.3-4l-1.6-17.3h-2.1l-2.9,16.5c-0.8,4.3-4.7,7.7-9.1,7.7c-2,0-3.9-0.8-5.2-2.1c-0.1-0.1-0.2-0.2-0.2-0.3
		l-0.1-0.1c-0.2-0.2-0.3-0.3-0.4-0.5c-1.1-1.6-1.5-3.5-1.1-5.5l9.8-55.5c0.8-4.6,5.1-8.3,9.8-8.3h11.8c5,0,9.6,1.8,12.8,5.1
		c0.2,0.2,0.4,0.4,0.5,0.6c0.1,0.1,0.3,0.3,0.4,0.4c0.3,0.4,0.6,0.8,0.9,1.2c2.6,3.8,3.5,8.6,2.6,13.6l-1.2,6.6
		c-1,5.5-4.3,10.7-9.1,14.3c-0.3,0.2-0.4,0.5-0.4,0.6l1.6,20.5c0.2,2.4-0.6,4.7-2.3,6.5C330.9,163.6,328.3,164.7,325.7,164.7z
		 M321.1,124.5c2.5,0,5-2.1,5.5-4.7l1.4-7.7c0.2-1,0-1.9-0.5-2.6c0-0.1-0.1-0.1-0.1-0.2l-0.2-0.2c-0.6-0.6-1.4-0.9-2.3-0.9h-4.7
		l-2.9,16.2H321.1z"/>
	<path class="snacktrack_outline_st1" d="M326.8,94.8c4.5,0,8.4,1.6,11,4.4c0.2,0.2,0.3,0.3,0.5,0.5c0.1,0.1,0.2,0.2,0.3,0.4c0.3,0.3,0.5,0.7,0.8,1
		c2.1,3.1,3,7.2,2.2,11.7l-1.2,6.6c-0.9,5.1-4,9.6-8.1,12.7c-0.9,0.7-1.5,1.8-1.4,2.8l1.6,20.5c0.3,4.2-3.5,6.9-6.8,6.9
		c-1.3,0-2.6-0.4-3.6-1.4c0-0.1-0.1-0.1-0.1-0.2c0,0-0.1-0.1-0.1-0.1c-0.1-0.1-0.2-0.2-0.2-0.3c-0.5-0.7-0.8-1.6-0.9-2.8l-1.6-17.8
		c0-0.3-0.1-0.7-0.3-0.9c0,0-0.1-0.1-0.1-0.1c0,0,0,0,0-0.1c0,0,0,0-0.1-0.1c-0.3-0.4-0.8-0.6-1.4-0.6h-3c-1,0-1.9,0.8-2.1,1.8
		l-3,16.8c-0.5,3.1-3.5,5.6-6.6,5.6c-1.4,0-2.6-0.5-3.4-1.4c-0.1-0.1-0.1-0.1-0.1-0.2c0,0-0.1-0.1-0.1-0.1c-0.1-0.1-0.2-0.2-0.2-0.3
		c-0.7-1-1-2.3-0.7-3.7l9.8-55.5c0.6-3.4,3.9-6.2,7.3-6.2H326.8 M316.1,127h5c3.7,0,7.3-3,8-6.8l1.4-7.7c0.3-1.7,0-3.2-0.8-4.4
		c-0.1-0.1-0.2-0.3-0.3-0.4c0,0-0.1-0.1-0.1-0.1c-0.1-0.1-0.1-0.1-0.2-0.2c-1-1-2.4-1.6-4.1-1.6h-5c-1,0-1.9,0.8-2.1,1.8l-3.1,17.7
		c-0.1,0.4,0,0.8,0.2,1.2c0,0,0,0.1,0.1,0.1c0,0,0,0,0,0c0,0,0,0,0,0C315.3,126.8,315.7,127,316.1,127 M326.8,89.8H315
		c-5.8,0-11.2,4.5-12.2,10.3l-9.8,55.5c-0.5,2.6,0.1,5.2,1.5,7.3c0.2,0.2,0.3,0.5,0.5,0.7c0.1,0.1,0.1,0.2,0.2,0.3
		c0.1,0.1,0.2,0.2,0.3,0.3c1.8,1.9,4.3,2.9,7,2.9c5.5,0,10.6-4.3,11.5-9.7l1.1-6l0.6,6.6c0.2,1.9,0.8,3.7,1.8,5.1
		c0.2,0.2,0.3,0.5,0.5,0.7c0.1,0.1,0.2,0.2,0.2,0.3c0.1,0.1,0.2,0.2,0.3,0.3c1.8,1.9,4.4,2.9,7.2,2.9c3.3,0,6.6-1.4,8.9-3.9
		c2.1-2.3,3.2-5.3,2.9-8.4l-1.5-19.4c5-3.9,8.4-9.5,9.4-15.3l1.2-6.6c1-5.6-0.1-11.1-3-15.4c-0.3-0.5-0.7-0.9-1-1.4
		c-0.1-0.2-0.3-0.3-0.4-0.5c-0.2-0.2-0.4-0.5-0.6-0.7C337.7,91.8,332.5,89.8,326.8,89.8L326.8,89.8z M322.3,110.7h2.6
		c0.3,0,0.5,0.1,0.6,0.1c0.1,0.1,0.1,0.4,0.1,0.7l-1.4,7.7c-0.2,1.4-1.7,2.6-3,2.6h-0.8L322.3,110.7L322.3,110.7z"/>
</g>
<g>
	<path class="snacktrack_outline_st0" d="M370.6,164.6c-2.3,0-4.4-0.8-5.9-2.4c-0.1-0.1-0.2-0.2-0.3-0.3l-0.2-0.2c-0.1-0.2-0.3-0.3-0.4-0.5
		c-0.9-1.3-1.4-2.9-1.4-4.6l0-4.7H353c0,0,0,0.1,0,0.1l-2,5.5c-1.5,4.2-5.7,7.2-9.9,7.2c-1.8,0-3.4-0.7-4.6-1.9
		c-0.1-0.1-0.1-0.1-0.2-0.2l-0.1-0.1c-0.1-0.2-0.3-0.3-0.4-0.5c-1.2-1.8-1.4-4-0.6-6.2l21.1-55.8c1.7-4.5,6.2-7.7,10.8-7.7h1.1
		c2.5,0,4.8,0.9,6.4,2.6c0.1,0.1,0.2,0.2,0.3,0.3c0.1,0.1,0.1,0.1,0.2,0.2c0.2,0.2,0.3,0.4,0.5,0.6c0.9,1.4,1.5,3,1.5,4.8l1.5,55.8
		c0.1,2-0.8,4-2.3,5.6C374.7,163.7,372.7,164.6,370.6,164.6z M362.4,138l0-12.8l-4.6,12.8H362.4z"/>
	<path class="snacktrack_outline_st1" d="M368.2,94.8c1.9,0,3.5,0.7,4.6,1.9c0.1,0.1,0.1,0.1,0.2,0.2c0,0.1,0.1,0.1,0.1,0.2c0.1,0.1,0.2,0.3,0.3,0.4
		c0.7,1,1,2.1,1.1,3.4l1.5,55.8c0.1,2.8-2.6,5.5-5.5,5.5c-1.6,0-3.1-0.6-4.1-1.6c-0.1-0.1-0.1-0.1-0.2-0.2c0,0-0.1-0.1-0.1-0.1
		c-0.1-0.1-0.2-0.2-0.3-0.4c-0.6-0.9-0.9-2-0.9-3.2l0-5.5c0-0.4-0.1-0.7-0.3-1c0,0-0.1-0.1-0.1-0.1c0,0,0,0,0,0c0,0,0,0-0.1-0.1
		c-0.3-0.3-0.8-0.5-1.3-0.5H353c-1,0-2,0.7-2.4,1.7l-2,5.5c-1.1,3.2-4.3,5.5-7.6,5.5c-1.2,0-2.1-0.4-2.8-1.1c0,0-0.1-0.1-0.1-0.1
		c0,0-0.1-0.1-0.1-0.1c-0.1-0.1-0.1-0.2-0.2-0.3c-0.7-1-0.9-2.4-0.3-3.9l21.1-55.8c1.3-3.5,4.9-6.1,8.5-6.1H368.2 M356.1,140.5h7.1
		c0.9,0,1.8-0.8,1.8-1.7l0-26.3c0-0.1,0-0.1,0-0.2c0,0,0,0,0,0c0,0,0,0,0,0c0-0.1-0.1-0.1-0.2-0.1c-0.1,0-0.3,0.1-0.4,0.3l-9.3,26.3
		c-0.2,0.5-0.1,0.9,0.1,1.2c0,0,0,0.1,0.1,0.1c0,0,0,0,0,0c0,0,0,0,0,0C355.4,140.4,355.7,140.5,356.1,140.5 M368.2,89.8h-1.1
		c-5.7,0-11.1,3.8-13.2,9.3l-21.1,55.8c-1.1,2.9-0.8,6,0.9,8.5c0.2,0.2,0.3,0.4,0.5,0.6c0.1,0.1,0.1,0.2,0.2,0.2
		c0.1,0.1,0.2,0.2,0.3,0.3c1.6,1.7,3.9,2.6,6.4,2.6c5.4,0,10.4-3.6,12.3-8.8l1.4-3.9h5.3l0,2.2c0,2.2,0.6,4.3,1.8,6.1
		c0.2,0.3,0.4,0.5,0.6,0.7c0.1,0.1,0.2,0.2,0.2,0.3c0.1,0.1,0.2,0.2,0.3,0.4c2,2,4.7,3.1,7.6,3.1c2.7,0,5.5-1.2,7.5-3.2
		c2-2,3.1-4.7,3-7.4l-1.5-55.8c-0.1-2.2-0.7-4.3-1.9-6.1c-0.2-0.3-0.4-0.5-0.6-0.8c-0.1-0.1-0.2-0.2-0.2-0.3
		c-0.1-0.2-0.3-0.3-0.4-0.4C374.3,90.9,371.4,89.8,368.2,89.8L368.2,89.8z"/>
</g>
<g>
	<path class="snacktrack_outline_st0" d="M399,164.3c-4.9,0-9.3-1.8-12.4-5c-0.2-0.2-0.4-0.4-0.5-0.6c-0.1-0.1-0.2-0.3-0.4-0.4
		c-0.3-0.4-0.6-0.8-0.9-1.2c-2.5-3.7-3.4-8.3-2.6-13.1l5.8-32.8c1.9-10.7,12.2-19.4,23-19.4c4.9,0,9.3,1.8,12.5,5
		c0.2,0.2,0.4,0.4,0.5,0.6c0.1,0.1,0.2,0.3,0.4,0.4c0.3,0.4,0.6,0.8,0.9,1.2c2.3,3.3,3.2,7.3,2.8,11.6c-0.4,4.2-4.4,7.7-8.8,7.7
		c-1.9,0-3.6-0.7-4.9-2c-0.1-0.1-0.2-0.2-0.2-0.3l-0.2-0.2c-0.1-0.2-0.3-0.3-0.4-0.5c-0.9-1.4-1.4-3.1-1.4-4.9
		c0-0.7-0.2-1.3-0.5-1.8c0-0.1-0.1-0.1-0.1-0.2l-0.1-0.1c-0.5-0.6-1.3-0.8-2.2-0.8c-2.5,0-4.8,2.1-5.3,4.6l-5.8,32.8
		c-0.2,1,0,2,0.5,2.7c0.1,0.1,0.1,0.1,0.2,0.2l-1.8,1.7l1.9-1.7l0.1,0.1c0.5,0.5,1.2,0.8,2,0.8c2.1,0,4.3-1.6,5-3.7
		c1.2-3.4,4.5-7.1,8.9-7.1c2,0,3.9,0.7,5.2,2.1c0.1,0.1,0.2,0.2,0.2,0.2l0.1,0.2c0.1,0.2,0.3,0.3,0.4,0.5c1.1,1.6,1.4,3.5,0.9,5.5
		C419.1,156.6,409.3,164.3,399,164.3z"/>
	<path class="snacktrack_outline_st1" d="M411,94.3c4.4,0,8.1,1.6,10.7,4.2c0.2,0.2,0.3,0.3,0.5,0.5c0.1,0.1,0.2,0.2,0.3,0.4c0.3,0.3,0.5,0.6,0.7,1
		c1.9,2.7,2.8,6.2,2.4,10c-0.3,3-3.3,5.4-6.3,5.4c-1.3,0-2.3-0.5-3.1-1.3c-0.1-0.1-0.1-0.1-0.2-0.2c0,0-0.1-0.1-0.1-0.1
		c-0.1-0.1-0.2-0.2-0.3-0.3c-0.7-1-1-2.2-1-3.5c0-1.2-0.3-2.3-0.9-3.2c-0.1-0.1-0.2-0.2-0.3-0.4c0,0-0.1-0.1-0.1-0.1
		c-0.1-0.1-0.1-0.1-0.2-0.2c-1-1-2.4-1.6-4-1.6c-3.6,0-7.1,2.9-7.7,6.6l-5.8,32.8c-0.3,1.7,0.1,3.3,0.9,4.6c0.1,0.1,0.2,0.3,0.3,0.4
		c0,0,0.1,0.1,0.1,0.1c0.1,0.1,0.1,0.1,0.2,0.2c0.9,1,2.3,1.6,3.8,1.6c3.2,0,6.3-2.3,7.4-5.4c1-2.9,3.6-5.5,6.5-5.5
		c1.4,0,2.6,0.5,3.4,1.3c0,0,0.1,0.1,0.1,0.2c0,0,0.1,0.1,0.1,0.1c0.1,0.1,0.2,0.2,0.2,0.3c0.6,0.9,0.9,2.2,0.5,3.5
		c-2.3,8.9-11,16-20.2,16c-4.3,0-8-1.6-10.6-4.2c-0.2-0.2-0.3-0.3-0.5-0.5c-0.1-0.1-0.2-0.2-0.3-0.4c-0.3-0.3-0.5-0.6-0.7-1
		c-2.1-3-3-7-2.2-11.3l5.8-32.8C392.2,102.1,401.4,94.3,411,94.3 M411,89.3c-11.9,0-23.3,9.6-25.4,21.5l-5.8,32.8
		c-1,5.4,0.1,10.7,3,15c0.3,0.5,0.7,0.9,1,1.4c0.1,0.2,0.3,0.3,0.4,0.5c0.2,0.2,0.4,0.5,0.6,0.7c3.6,3.7,8.7,5.7,14.2,5.7
		c11.4,0,22.2-8.5,25.1-19.8c0.7-2.7,0.2-5.4-1.3-7.6c-0.2-0.2-0.3-0.5-0.5-0.7c-0.1-0.1-0.1-0.1-0.2-0.2c-0.1-0.1-0.2-0.2-0.3-0.3
		c-1.8-1.8-4.3-2.9-7-2.9c-5.6,0-9.7,4.4-11.2,8.8c-0.4,1.1-1.6,2-2.7,2c-0.2,0-0.2,0-0.3-0.1l0,0l0,0c-0.1-0.1-0.2-0.4-0.1-0.9
		l5.8-32.8c0.3-1.4,1.7-2.5,2.8-2.5c0.3,0,0.4,0.1,0.4,0.1c0,0,0.1,0.2,0.1,0.4c0,2.3,0.6,4.5,1.9,6.3c0.2,0.2,0.3,0.5,0.5,0.7
		c0.1,0.1,0.1,0.2,0.2,0.3c0.1,0.1,0.2,0.2,0.3,0.4c1.7,1.8,4.1,2.7,6.6,2.7c5.7,0,10.8-4.4,11.3-9.9c0.5-4.9-0.6-9.5-3.2-13.3
		c-0.3-0.5-0.7-0.9-1-1.3c-0.1-0.2-0.3-0.3-0.4-0.5c-0.2-0.2-0.4-0.5-0.6-0.7C421.6,91.3,416.5,89.3,411,89.3L411,89.3z"/>
</g>
<g>
	<path class="snacktrack_outline_st0" d="M455.1,164.8c-2,0-3.7-0.7-5-2c-0.1-0.1-0.2-0.2-0.2-0.3l-0.1-0.1c-0.1-0.2-0.3-0.3-0.4-0.5
		c-0.6-0.9-1-1.9-1.2-3.1l-3.3-18.9l-1,1.3c-0.5,0.7-0.9,1.5-1,2.3l-2.4,13.5c-0.8,4.3-4.7,7.7-9.1,7.7c-2,0-3.9-0.8-5.2-2.1
		c-0.1-0.1-0.2-0.2-0.2-0.3c0,0-0.1-0.1-0.2-0.2c-0.1-0.1-0.3-0.3-0.4-0.5c-1.1-1.6-1.5-3.5-1.1-5.5l9.9-56.1
		c0.8-4.3,4.7-7.7,9.1-7.7c2,0,3.9,0.8,5.2,2.1c0.1,0.1,0.1,0.2,0.2,0.2l0.1,0.2c0.2,0.2,0.3,0.4,0.4,0.5c1.1,1.6,1.5,3.5,1.1,5.5
		l-1.7,9.6l9.8-13.7c3-4.2,6.4-4.8,8.2-4.8c2,0,3.8,0.7,5.1,2.1c0.1,0.1,0.2,0.2,0.2,0.3c0,0,0.1,0.1,0.2,0.2
		c0.1,0.1,0.2,0.3,0.3,0.5c1.7,2.5,1.4,5.7-0.6,8.5l-13.4,17.9c-0.3,0.4-0.4,0.9-0.4,1.3l6,32c0.4,2.4-0.2,4.7-1.8,6.6
		C460.6,163.4,457.8,164.8,455.1,164.8L455.1,164.8z"/>
	<path class="snacktrack_outline_st1" d="M466.7,94.5c1.3,0,2.5,0.5,3.3,1.3c0,0,0.1,0.1,0.1,0.2c0,0,0.1,0.1,0.1,0.1c0.1,0.1,0.1,0.2,0.2,0.3
		c1,1.4,1,3.5-0.6,5.7l-13.3,17.9c-0.7,1-1,2.2-0.8,3.2l6,32c0.8,4.1-3.2,7.2-6.7,7.2c-1.2,0-2.4-0.4-3.2-1.2c0,0-0.1-0.1-0.1-0.1
		c0,0-0.1-0.1-0.1-0.1c-0.1-0.1-0.2-0.2-0.2-0.3c-0.4-0.6-0.7-1.3-0.8-2.1l-4-23c0-0.1-0.1-0.2-0.1-0.3c0,0,0,0,0,0c0,0,0,0,0,0
		c0,0,0,0,0,0c-0.1-0.1-0.3-0.2-0.5-0.2c-0.3,0-0.6,0.1-0.8,0.4l-3.3,4.5c-0.7,1-1.2,2.2-1.4,3.3l-2.4,13.5
		c-0.5,3.1-3.5,5.6-6.6,5.6c-1.4,0-2.6-0.5-3.4-1.4c-0.1-0.1-0.1-0.1-0.1-0.2c0,0-0.1-0.1-0.1-0.1c-0.1-0.1-0.2-0.2-0.2-0.3
		c-0.7-1-1-2.3-0.7-3.7l9.9-56.1c0.5-3.1,3.5-5.6,6.6-5.6c1.4,0,2.6,0.5,3.4,1.4c0,0,0.1,0.1,0.1,0.2c0,0,0.1,0.1,0.1,0.1
		c0.1,0.1,0.2,0.2,0.2,0.3c0.7,1,1,2.3,0.7,3.7l-3.3,18.7c0,0.1,0,0.2,0.1,0.3c0,0,0,0,0,0c0,0,0,0,0,0c0,0,0,0,0,0
		c0.1,0.1,0.2,0.1,0.3,0.1c0.1,0,0.3-0.1,0.4-0.2l15.1-21.1C462.5,95.6,464.8,94.5,466.7,94.5 M466.7,89.5
		C466.7,89.5,466.7,89.5,466.7,89.5c-3.8,0-7.6,2.1-10.2,5.9l-3.5,4.8c0.1-2.2-0.4-4.4-1.6-6.2c-0.2-0.2-0.3-0.5-0.5-0.7
		c-0.1-0.1-0.1-0.2-0.2-0.3c-0.1-0.1-0.2-0.2-0.3-0.3c-1.8-1.9-4.3-2.9-7-2.9c-5.5,0-10.6,4.3-11.5,9.7l-9.9,56.1
		c-0.5,2.6,0.1,5.2,1.5,7.3c0.2,0.2,0.3,0.5,0.5,0.7c0.1,0.1,0.1,0.2,0.2,0.2c0.1,0.1,0.2,0.2,0.3,0.4c1.8,1.8,4.3,2.9,7,2.9
		c5.5,0,10.6-4.3,11.5-9.7l1.2-6.8l1.5,8.5c0.3,1.5,0.8,2.9,1.6,4.1c0.1,0.2,0.3,0.4,0.5,0.7c0.1,0.1,0.1,0.2,0.2,0.2
		c0.1,0.1,0.2,0.2,0.3,0.3c1.7,1.8,4.1,2.8,6.8,2.8c3.5,0,7-1.7,9.3-4.4c2.1-2.5,2.9-5.6,2.3-8.7l-5.9-31.6l13.2-17.6
		c2.7-3.7,3-8.1,0.7-11.5c-0.2-0.2-0.3-0.5-0.5-0.7c-0.1-0.1-0.1-0.2-0.2-0.2c-0.1-0.1-0.2-0.2-0.3-0.3
		C471.8,90.5,469.4,89.5,466.7,89.5L466.7,89.5L466.7,89.5z"/>
</g>
</svg>
