<?xml version="1.0" encoding="utf-8"?>
<!-- Generator: Adobe Illustrator 24.0.0, SVG Export Plug-In . SVG Version: 6.00 Build 0)  -->
<svg version="1.1" id="logo" xmlns="http://www.w3.org/2000/svg" xmlns:xlink="http://www.w3.org/1999/xlink" x="0px" y="0px"
	 viewBox="0 0 512 256" style="enable-background:new 0 0 512 256;" xml:space="preserve">
<style type="text/css">
	.snacktrack_nobg_st0{fill:#FF4B61;}
</style>
<path class="snacktrack_nobg_st0" d="M43.4,147.1l0.6-3.2c0.7-3.8-0.7-7.3-2.9-10.7c-0.5-0.8-1.1-1.6-1.8-2.3c-0.3-0.4-0.6-0.8-1-1.1
	c-0.6-0.7-1.2-1.4-1.9-2c0,0,0,0,0,0c-3.7-3.8-7.9-7.2-11.1-10.5c-0.5-0.5-0.9-1-1.3-1.4c-0.2-0.2-0.4-0.5-0.6-0.7
	c-0.4-0.5-0.7-0.9-1.1-1.4c-1.2-1.7-1.8-3.3-1.5-4.9l0.4-2.1c0.8-4.6,5-8.2,9.5-8.2c2,0,3.7,0.7,4.9,1.9c0.1,0.1,0.1,0.1,0.2,0.2
	c0,0.1,0.1,0.1,0.1,0.2c0.1,0.1,0.2,0.3,0.3,0.5c0.9,1.3,1.3,3,1.1,5c-0.2,1.6,0.2,3.1,0.9,4.3c0.1,0.1,0.2,0.3,0.3,0.4
	c0,0,0.1,0.1,0.1,0.1c0.1,0.1,0.1,0.1,0.2,0.2c1,1,2.4,1.6,4,1.6c3.7,0,7.3-2.9,7.8-6.6c0.8-5.1-0.3-9.7-2.8-13.4
	c-0.3-0.4-0.6-0.8-0.9-1.2c-0.1-0.1-0.2-0.3-0.4-0.4c-0.2-0.2-0.4-0.4-0.6-0.6c-3.2-3.2-7.7-5.2-13.1-5.2c-11.7,0-23,9.6-25.1,21.3
	L7.2,110c-0.7,3.8,0.7,7.3,2.9,10.7c0.5,0.8,1.1,1.6,1.8,2.3c0.3,0.4,0.6,0.8,1,1.1c0.6,0.7,1.2,1.4,1.9,2c0,0,0,0,0,0
	c3.7,3.8,7.9,7.2,11.1,10.5c0.5,0.5,0.9,0.9,1.3,1.4c0.2,0.2,0.4,0.5,0.6,0.7c0.4,0.5,0.7,0.9,1.1,1.4c1.2,1.7,1.8,3.3,1.5,4.9
	l-0.4,2.3c-0.8,4.4-5,8-9.4,8c-2,0-3.7-0.7-4.9-2c-0.1-0.1-0.1-0.1-0.2-0.2c0-0.1-0.1-0.1-0.1-0.2c-0.1-0.1-0.2-0.3-0.3-0.5
	c-0.9-1.3-1.3-3-1.1-4.8c0.2-1.7-0.2-3.2-1-4.4c-0.1-0.1-0.2-0.3-0.3-0.4c0,0-0.1-0.1-0.1-0.1c-0.1-0.1-0.1-0.1-0.2-0.2c0,0,0,0,0,0
	c-1-1-2.3-1.6-3.9-1.6c-3.7,0-7.3,2.9-7.8,6.6c-0.8,5.1,0.3,9.7,2.8,13.3c0.3,0.4,0.6,0.8,0.9,1.2c0.1,0.1,0.2,0.3,0.4,0.4
	c0.2,0.2,0.4,0.4,0.6,0.6c3.2,3.2,7.7,5.2,13,5.2C30.1,168.4,41.3,158.8,43.4,147.1z"/>
<path class="snacktrack_nobg_st0" d="M81.6,164c0.1,0.1,0.1,0.1,0.2,0.2c0.1,0.1,0.2,0.2,0.3,0.3c1.6,1.6,3.8,2.5,6.3,2.5c4,0,7.8-3.2,8.5-7.2
	l11.6-66c0.3-1.7,0-3.2-0.8-4.3c-0.1-0.1-0.2-0.3-0.3-0.4c0,0-0.1-0.1-0.1-0.1c-0.1-0.1-0.1-0.1-0.2-0.2c-1-1-2.4-1.6-4.1-1.6
	c-3.7,0-7.2,3-7.8,6.7l-7,39.5c-0.1,0.3-0.5,0.5-0.7,0.3c0,0,0,0,0,0c0,0,0,0,0,0c0,0,0-0.1,0-0.1L80,93.9c-0.2-1.2-0.7-2.2-1.3-3.2
	c-0.1-0.2-0.3-0.4-0.4-0.6C78.2,90,78.1,90,78,89.9c-0.1-0.1-0.2-0.2-0.3-0.3c-1.6-1.6-3.8-2.5-6.3-2.5c-4,0-7.8,3.2-8.5,7.2
	l-11.6,66c-0.3,1.7,0,3.2,0.8,4.3c0.1,0.1,0.2,0.3,0.3,0.4c0,0,0.1,0.1,0.1,0.1c0.1,0.1,0.1,0.1,0.2,0.2c1,1,2.4,1.6,4.1,1.6
	c3.7,0,7.2-3,7.8-6.7l7-39.7c0.1-0.3,0.5-0.5,0.7-0.3c0,0,0,0,0,0c0,0,0,0,0,0c0,0,0,0.1,0,0.1l7.6,39.7c0.2,1.2,0.7,2.2,1.3,3.2
	C81.3,163.6,81.5,163.8,81.6,164z"/>
<path class="snacktrack_nobg_st0" d="M150.9,94.3c0-1.5-0.5-2.9-1.3-4.1c-0.1-0.2-0.2-0.3-0.4-0.5c-0.1-0.1-0.1-0.1-0.2-0.2
	c-0.1-0.1-0.2-0.2-0.2-0.3c-1.3-1.4-3.3-2.2-5.5-2.2h-1.3c-4.3,0-8.5,3-10.1,7.2l-25.1,66.2c-0.7,1.7-0.4,3.4,0.4,4.6
	c0.1,0.1,0.2,0.2,0.2,0.3c0,0,0.1,0.1,0.1,0.1c0,0.1,0.1,0.1,0.1,0.2c0.8,0.8,2,1.3,3.3,1.3c3.8,0,7.6-2.8,9-6.6l2.3-6.6
	c0.4-1.2,1.6-2.1,2.8-2.1h12.3c0.6,0,1.2,0.2,1.5,0.6c0,0,0,0,0.1,0.1c0,0,0,0,0,0c0,0,0.1,0.1,0.1,0.1c0.2,0.3,0.4,0.7,0.4,1.2
	l0,6.5c0,1.4,0.4,2.8,1.1,3.8c0.1,0.2,0.2,0.3,0.3,0.4c0,0.1,0.1,0.1,0.1,0.2c0.1,0.1,0.1,0.1,0.2,0.2c1.2,1.2,2.9,1.9,4.8,1.9
	c3.4,0,6.6-3.2,6.5-6.5L150.9,94.3z M137.3,141.4h-8.4c-0.4,0-0.8-0.2-1.1-0.4c0,0,0,0,0,0c0,0,0,0,0,0c0,0-0.1-0.1-0.1-0.1
	c-0.3-0.4-0.3-0.9-0.1-1.5l11.1-31.2c0.1-0.3,0.5-0.4,0.7-0.2c0,0,0,0,0,0c0,0,0,0,0,0c0,0,0.1,0.1,0.1,0.2l0.1,31.2
	C139.4,140.4,138.4,141.4,137.3,141.4z"/>
<path class="snacktrack_nobg_st0" d="M203.9,147.6c0.4-1.6,0.1-3.1-0.6-4.2c-0.1-0.1-0.2-0.2-0.3-0.3c0,0-0.1-0.1-0.1-0.1c-0.1-0.1-0.1-0.1-0.2-0.2
	c-1-1-2.4-1.6-4.1-1.6c-3.5,0-6.5,3.1-7.7,6.5c-1.3,3.6-4.9,6.4-8.8,6.4c-1.8,0-3.4-0.7-4.5-1.9c-0.1-0.1-0.1-0.2-0.2-0.2
	c0-0.1-0.1-0.1-0.1-0.2c-0.1-0.2-0.2-0.3-0.4-0.5c-1-1.5-1.4-3.4-1.1-5.4l6.9-38.9c0.8-4.4,4.9-7.9,9.2-7.9c1.9,0,3.6,0.7,4.7,1.9
	c0.1,0.1,0.1,0.1,0.2,0.2c0,0.1,0.1,0.1,0.1,0.2c0.1,0.1,0.2,0.3,0.3,0.4c0.7,1,1.1,2.3,1.1,3.8c0,1.6,0.4,3,1.2,4.2
	c0.1,0.1,0.2,0.3,0.3,0.4c0,0,0.1,0.1,0.1,0.1c0.1,0.1,0.1,0.1,0.2,0.2c0.9,0.9,2.1,1.5,3.6,1.5c3.6,0,7.2-2.8,7.5-6.4
	c0.5-4.5-0.6-8.6-2.8-11.9c-0.3-0.4-0.6-0.8-0.9-1.2c-0.1-0.1-0.2-0.3-0.4-0.4c-0.2-0.2-0.4-0.4-0.5-0.6c-3.1-3.1-7.5-5-12.7-5
	c-11.4,0-22.3,9.3-24.3,20.6l-6.9,38.9c-0.9,5.1,0.1,9.8,2.6,13.4c0.3,0.4,0.6,0.8,0.9,1.2c0.1,0.1,0.2,0.3,0.4,0.4
	c0.2,0.2,0.4,0.4,0.5,0.6c3.1,3.1,7.5,5,12.6,5C190.9,166.6,201.2,158.2,203.9,147.6z"/>
<path class="snacktrack_nobg_st0" d="M251.8,158.6l-7.2-38c-0.2-1.3,0.1-2.6,1-3.8l15.8-21.2c1.9-2.6,1.8-5,0.7-6.7c-0.1-0.1-0.2-0.2-0.3-0.3
	c0,0-0.1-0.1-0.1-0.1c-0.1-0.1-0.1-0.1-0.2-0.2c-2.4-2.4-7.4-2.5-11.2,2.9l-17.9,25.1c-0.2,0.3-0.6,0.4-0.8,0.1c0,0,0,0,0,0
	c0,0,0,0,0,0c0,0,0,0,0,0c-0.1-0.1-0.1-0.2-0.1-0.3l3.9-22.2c0.3-1.7,0-3.2-0.8-4.3c-0.1-0.1-0.2-0.3-0.3-0.4c0,0-0.1-0.1-0.1-0.1
	c-0.1-0.1-0.1-0.1-0.2-0.2c-1-1-2.4-1.6-4.1-1.6c-3.7,0-7.2,3-7.8,6.7l-11.7,66.6c-0.3,1.7,0,3.2,0.8,4.3c0.1,0.1,0.2,0.3,0.3,0.4
	c0,0,0.1,0.1,0.1,0.1c0.1,0.1,0.1,0.1,0.2,0.2c1,1,2.4,1.6,4.1,1.6c3.7,0,7.2-3,7.8-6.7l2.8-16c0.2-1.4,0.8-2.7,1.7-3.9l3.9-5.3
	c0.4-0.6,1.1-0.6,1.5-0.3c0,0,0,0,0,0c0,0,0,0,0,0c0,0,0,0,0,0.1c0.1,0.1,0.1,0.2,0.1,0.3l4.7,27.3c0.2,1,0.5,1.9,1,2.5
	c0.1,0.1,0.2,0.2,0.3,0.4c0,0,0.1,0.1,0.1,0.1c0.1,0.1,0.1,0.1,0.2,0.2C243.9,169.6,253,165.1,251.8,158.6z"/>
<path class="snacktrack_nobg_st0" d="M310.1,88.7c-1-1-2.4-1.6-4-1.6h-29.7c-3.6,0-7,2.9-7.7,6.5c-0.3,1.6,0,3.1,0.8,4.2c0.1,0.1,0.2,0.3,0.3,0.4
	c0,0,0.1,0.1,0.1,0.1c0.1,0.1,0.1,0.1,0.2,0.2c1,1,2.4,1.6,4,1.6h6.1c0.5,0,1,0.2,1.3,0.5c0,0,0,0,0.1,0.1c0,0,0,0,0,0
	c0,0,0.1,0.1,0.1,0.1c0.3,0.4,0.4,0.8,0.3,1.4l-10.3,58.1c-0.3,1.7,0,3.2,0.8,4.3c0.1,0.1,0.2,0.3,0.3,0.4c0,0,0.1,0.1,0.1,0.1
	c0.1,0.1,0.1,0.1,0.2,0.2c1,1,2.4,1.6,4.1,1.6c3.7,0,7.2-3,7.8-6.7l10.3-58.1c0.2-1.2,1.3-2.1,2.5-2.1h6c3.6,0,7-2.9,7.7-6.5
	c0.3-1.6,0-3.1-0.8-4.2c-0.1-0.1-0.2-0.3-0.3-0.4c0,0-0.1-0.1-0.1-0.1C310.3,88.8,310.2,88.7,310.1,88.7z"/>
<path class="snacktrack_nobg_st0" d="M319.7,160.3l3.5-19.9c0.2-1.2,1.3-2.1,2.5-2.1h3.5c0.7,0,1.3,0.2,1.7,0.7c0,0,0,0,0.1,0.1c0,0,0,0,0.1,0.1
	c0,0,0.1,0.1,0.1,0.2c0.2,0.3,0.3,0.7,0.4,1.1l1.9,21.1c0.1,1.4,0.5,2.4,1.1,3.3c0.1,0.1,0.2,0.3,0.3,0.4c0,0,0.1,0.1,0.1,0.1
	c0.1,0.1,0.1,0.1,0.2,0.2c3.8,3.9,12.8,0.4,12.3-6.5l-1.9-24.4c-0.1-1.2,0.6-2.5,1.7-3.3c4.9-3.6,8.6-9.1,9.6-15.1l1.4-7.9
	c0.9-5.4-0.1-10.2-2.7-13.9c-0.3-0.4-0.6-0.8-0.9-1.2c-0.1-0.1-0.2-0.3-0.4-0.4c-0.2-0.2-0.4-0.4-0.6-0.6c-3.2-3.2-7.7-5.2-13.1-5.2
	h-14c-4.1,0-7.9,3.3-8.7,7.4l-11.6,65.9c-0.3,1.7,0,3.2,0.8,4.3c0.1,0.1,0.2,0.3,0.3,0.4c0,0,0.1,0.1,0.1,0.1
	c0.1,0.1,0.1,0.1,0.2,0.2c1,1,2.4,1.6,4.1,1.6C315.5,167,319,164,319.7,160.3z M329.9,102.2c0.2-1.2,1.3-2.1,2.5-2.1h5.9
	c2,0,3.7,0.7,4.9,2c0.1,0.1,0.1,0.1,0.2,0.2c0,0.1,0.1,0.1,0.1,0.2c0.1,0.1,0.2,0.3,0.3,0.5c1,1.4,1.4,3.2,1,5.2l-1.6,9.2
	c-0.8,4.4-5,8-9.4,8h-5.9c-0.5,0-1-0.2-1.3-0.5c0,0,0,0-0.1-0.1c0,0,0,0,0,0c0,0-0.1-0.1-0.1-0.1c-0.3-0.4-0.4-0.8-0.3-1.4
	L329.9,102.2z"/>
<path class="snacktrack_nobg_st0" d="M397.4,94.3c0-1.5-0.5-2.9-1.3-4.1c-0.1-0.2-0.2-0.3-0.4-0.5c-0.1-0.1-0.1-0.1-0.2-0.2
	c-0.1-0.1-0.2-0.2-0.2-0.3c-1.3-1.4-3.3-2.2-5.5-2.2h-1.3c-4.3,0-8.5,3-10.1,7.2l-25.1,66.2c-0.7,1.7-0.4,3.4,0.4,4.6
	c0.1,0.1,0.2,0.2,0.2,0.3c0,0,0.1,0.1,0.1,0.1c0,0.1,0.1,0.1,0.1,0.2c0.8,0.8,2,1.3,3.3,1.3c3.8,0,7.6-2.8,9-6.6l2.3-6.6
	c0.4-1.2,1.6-2.1,2.8-2.1h12.3c0.6,0,1.2,0.2,1.5,0.6c0,0,0,0,0.1,0.1c0,0,0,0,0,0c0,0,0.1,0.1,0.1,0.1c0.2,0.3,0.4,0.7,0.4,1.2
	l0,6.5c0,1.4,0.4,2.8,1.1,3.8c0.1,0.2,0.2,0.3,0.3,0.4c0,0.1,0.1,0.1,0.1,0.2c0.1,0.1,0.1,0.1,0.2,0.2c1.2,1.2,2.9,1.9,4.8,1.9
	c3.4,0,6.6-3.2,6.5-6.5L397.4,94.3z M383.8,141.4h-8.4c-0.4,0-0.8-0.2-1.1-0.4c0,0,0,0,0,0c0,0,0,0,0,0c0,0-0.1-0.1-0.1-0.1
	c-0.3-0.4-0.3-0.9-0.1-1.5l11.1-31.2c0.1-0.3,0.5-0.4,0.7-0.2c0,0,0,0,0,0c0,0,0,0,0,0c0,0,0.1,0.1,0.1,0.2l0.1,31.2
	C385.9,140.4,384.9,141.4,383.8,141.4z"/>
<path class="snacktrack_nobg_st0" d="M450.4,147.6c0.4-1.6,0.1-3.1-0.6-4.2c-0.1-0.1-0.2-0.2-0.3-0.3c0,0-0.1-0.1-0.1-0.1c-0.1-0.1-0.1-0.1-0.2-0.2
	c-1-1-2.4-1.6-4.1-1.6c-3.5,0-6.5,3.1-7.7,6.5c-1.3,3.6-4.9,6.4-8.8,6.4c-1.8,0-3.4-0.7-4.5-1.9c-0.1-0.1-0.1-0.2-0.2-0.2
	c0-0.1-0.1-0.1-0.1-0.2c-0.1-0.2-0.2-0.3-0.4-0.5c-1-1.5-1.4-3.4-1.1-5.4l6.9-38.9c0.8-4.4,4.9-7.9,9.2-7.9c1.9,0,3.6,0.7,4.7,1.9
	c0.1,0.1,0.1,0.1,0.2,0.2c0,0.1,0.1,0.1,0.1,0.2c0.1,0.1,0.2,0.3,0.3,0.4c0.7,1,1.1,2.3,1.1,3.8c0,1.6,0.4,3,1.2,4.2
	c0.1,0.1,0.2,0.3,0.3,0.4c0,0,0.1,0.1,0.1,0.1c0.1,0.1,0.1,0.1,0.2,0.2c0.9,0.9,2.1,1.5,3.6,1.5c3.6,0,7.2-2.8,7.5-6.4
	c0.5-4.5-0.6-8.6-2.8-11.9c-0.3-0.4-0.6-0.8-0.9-1.2c-0.1-0.1-0.2-0.3-0.4-0.4c-0.2-0.2-0.4-0.4-0.5-0.6c-3.1-3.1-7.5-5-12.7-5
	c-11.4,0-22.3,9.3-24.3,20.6l-6.9,38.9c-0.9,5.1,0.1,9.8,2.6,13.4c0.3,0.4,0.6,0.8,0.9,1.2c0.1,0.1,0.2,0.3,0.4,0.4
	c0.2,0.2,0.4,0.4,0.5,0.6c3.1,3.1,7.5,5,12.6,5C437.4,166.6,447.7,158.2,450.4,147.6z"/>
<path class="snacktrack_nobg_st0" d="M500.8,158.7l-7.2-38c-0.2-1.3,0.1-2.6,1-3.8l15.8-21.2c1.9-2.6,1.8-5,0.7-6.7c-0.1-0.1-0.2-0.2-0.3-0.3
	c0,0-0.1-0.1-0.1-0.1c-0.1-0.1-0.1-0.1-0.2-0.2c-2.4-2.4-7.4-2.5-11.2,2.9l-17.9,25.1c-0.2,0.3-0.6,0.4-0.8,0.1c0,0,0,0,0,0
	c0,0,0,0,0,0c0,0,0,0,0,0c-0.1-0.1-0.1-0.2-0.1-0.3l3.9-22.2c0.3-1.7,0-3.2-0.8-4.3c-0.1-0.1-0.2-0.3-0.3-0.4c0,0-0.1-0.1-0.1-0.1
	c-0.1-0.1-0.1-0.1-0.2-0.2c-1-1-2.4-1.6-4.1-1.6c-3.7,0-7.2,3-7.8,6.7l-11.7,66.6c-0.3,1.7,0,3.2,0.8,4.3c0.1,0.1,0.2,0.3,0.3,0.4
	c0,0,0.1,0.1,0.1,0.1c0.1,0.1,0.1,0.1,0.2,0.2c1,1,2.4,1.6,4.1,1.6c3.7,0,7.2-3,7.8-6.7l2.8-16c0.2-1.4,0.8-2.7,1.7-3.9l3.9-5.3
	c0.4-0.6,1.1-0.6,1.5-0.3c0,0,0,0,0,0c0,0,0,0,0,0c0,0,0,0,0,0.1c0.1,0.1,0.1,0.2,0.1,0.3l4.7,27.3c0.2,1,0.5,1.9,1,2.5
	c0.1,0.1,0.2,0.2,0.3,0.4c0,0,0.1,0.1,0.1,0.1c0.1,0.1,0.1,0.1,0.2,0.2C493,169.7,502.1,165.3,500.8,158.7z"/>
</svg>
