<?xml version="1.0" encoding="utf-8"?>
<!-- Generator: Adobe Illustrator 24.0.0, SVG Export Plug-In . SVG Version: 6.00 Build 0)  -->
<svg version="1.1" id="logo" xmlns="http://www.w3.org/2000/svg" xmlns:xlink="http://www.w3.org/1999/xlink" x="0px" y="0px"
	 viewBox="0 0 512 256" style="enable-background:new 0 0 512 256;" xml:space="preserve">
<style type="text/css">
	.snacktrack_st0{fill:#FF4B61;}
	.snacktrack_st1{fill:#FFFFFF;}
</style>
<path class="snacktrack_st0" d="M455.1,183H56.2c-30.6,0-55.3-24.8-55.3-55.3v0c0-30.6,24.8-55.3,55.3-55.3h398.9c30.6,0,55.3,24.8,55.3,55.3v0
	C510.4,158.2,485.6,183,455.1,183z"/>
<path class="snacktrack_st1" d="M77.9,143.9l0.5-2.7c0.6-3.2-0.5-6.2-2.5-9c-0.5-0.7-1-1.3-1.5-2c-0.3-0.3-0.5-0.6-0.8-1
	c-0.5-0.6-1-1.1-1.6-1.7c0,0,0,0,0,0c-3.1-3.2-6.7-6.1-9.3-8.8c-0.4-0.4-0.8-0.8-1.1-1.2c-0.2-0.2-0.4-0.4-0.5-0.6
	c-0.3-0.4-0.6-0.8-0.9-1.2c-1-1.4-1.5-2.8-1.3-4.1l0.3-1.8c0.7-3.9,4.2-6.9,8-6.9c1.7,0,3.1,0.6,4.1,1.6c0.1,0.1,0.1,0.1,0.2,0.2
	c0,0,0.1,0.1,0.1,0.1c0.1,0.1,0.2,0.2,0.3,0.4c0.8,1.1,1.1,2.6,0.9,4.2c-0.2,1.4,0.1,2.6,0.8,3.6c0.1,0.1,0.2,0.2,0.2,0.3
	c0,0,0.1,0.1,0.1,0.1c0,0.1,0.1,0.1,0.1,0.2c0.8,0.8,2,1.4,3.4,1.4c3.1,0,6.1-2.4,6.6-5.5c0.6-4.3-0.3-8.2-2.3-11.3
	c-0.2-0.4-0.5-0.7-0.8-1c-0.1-0.1-0.2-0.2-0.3-0.4c-0.2-0.2-0.3-0.3-0.5-0.5c-2.7-2.7-6.5-4.4-11-4.4c-9.9,0-19.4,8.1-21.2,18
	l-0.5,2.7c-0.6,3.2,0.5,6.2,2.5,9c0.5,0.7,1,1.3,1.5,2c0.3,0.3,0.5,0.6,0.8,1c0.5,0.6,1,1.1,1.6,1.7c0,0,0,0,0,0
	c3.1,3.2,6.7,6.1,9.3,8.8c0.4,0.4,0.8,0.8,1.1,1.2c0.2,0.2,0.4,0.4,0.5,0.6c0.3,0.4,0.6,0.8,0.9,1.2c1,1.4,1.5,2.8,1.3,4.1l-0.3,1.9
	c-0.7,3.7-4.2,6.8-7.9,6.8c-1.7,0-3.1-0.6-4.1-1.6c-0.1-0.1-0.1-0.1-0.2-0.2c0,0-0.1-0.1-0.1-0.1c-0.1-0.1-0.2-0.2-0.3-0.4
	c-0.7-1.1-1.1-2.5-0.9-4.1c0.2-1.4-0.1-2.7-0.8-3.7c-0.1-0.1-0.2-0.2-0.2-0.3c0,0-0.1-0.1-0.1-0.1c0-0.1-0.1-0.1-0.1-0.2
	c0,0,0,0,0,0c-0.8-0.8-1.9-1.3-3.3-1.3c-3.1,0-6.1,2.4-6.6,5.5c-0.6,4.3,0.3,8.2,2.3,11.2c0.2,0.4,0.5,0.7,0.8,1
	c0.1,0.1,0.2,0.3,0.3,0.4c0.2,0.2,0.3,0.3,0.5,0.5c2.7,2.7,6.5,4.4,11,4.4C66.7,161.9,76.1,153.8,77.9,143.9z"/>
<path class="snacktrack_st1" d="M110.1,158.1c0,0.1,0.1,0.1,0.2,0.2c0.1,0.1,0.2,0.2,0.2,0.2c1.3,1.3,3.2,2.1,5.3,2.1c3.4,0,6.6-2.7,7.2-6.1
	l9.8-55.6c0.2-1.4,0-2.7-0.7-3.7c-0.1-0.1-0.2-0.2-0.2-0.3c0,0-0.1-0.1-0.1-0.1c0-0.1-0.1-0.1-0.1-0.2c-0.8-0.9-2-1.4-3.4-1.4
	c-3.1,0-6.1,2.5-6.6,5.6l-5.9,33.3c-0.1,0.3-0.4,0.4-0.6,0.2c0,0,0,0,0,0c0,0,0,0,0,0c0,0,0-0.1,0-0.1l-6.4-33.3
	c-0.2-1-0.6-1.9-1.1-2.7c-0.1-0.2-0.2-0.3-0.4-0.5c0-0.1-0.1-0.1-0.2-0.2c-0.1-0.1-0.2-0.2-0.2-0.2c-1.3-1.3-3.2-2.1-5.3-2.1
	c-3.4,0-6.6,2.7-7.2,6.1l-9.8,55.6c-0.2,1.4,0,2.7,0.7,3.7c0.1,0.1,0.2,0.2,0.2,0.3c0,0,0.1,0.1,0.1,0.1c0,0.1,0.1,0.1,0.1,0.2
	c0.8,0.9,2,1.4,3.4,1.4c3.1,0,6.1-2.5,6.6-5.6l5.9-33.4c0.1-0.3,0.4-0.4,0.6-0.2c0,0,0,0,0,0c0,0,0,0,0,0c0,0,0,0.1,0,0.1l6.4,33.4
	c0.2,1,0.6,1.9,1.1,2.7C109.9,157.8,110,158,110.1,158.1z"/>
<path class="snacktrack_st1" d="M168.5,99.4c0-1.3-0.4-2.5-1.1-3.4c-0.1-0.1-0.2-0.3-0.3-0.4c0-0.1-0.1-0.1-0.1-0.2c-0.1-0.1-0.1-0.1-0.2-0.2
	c-1.1-1.2-2.8-1.9-4.6-1.9H161c-3.6,0-7.2,2.5-8.5,6.1l-21.1,55.8c-0.6,1.5-0.4,2.9,0.3,3.9c0.1,0.1,0.1,0.2,0.2,0.3
	c0,0,0.1,0.1,0.1,0.1c0,0,0.1,0.1,0.1,0.1c0.7,0.7,1.6,1.1,2.8,1.1c3.2,0,6.4-2.3,7.6-5.5l2-5.5c0.4-1,1.4-1.7,2.4-1.7h10.3
	c0.5,0,1,0.2,1.3,0.5c0,0,0,0,0.1,0.1c0,0,0,0,0,0c0,0,0.1,0.1,0.1,0.1c0.2,0.3,0.3,0.6,0.3,1l0,5.5c0,1.2,0.3,2.3,0.9,3.2
	c0.1,0.1,0.2,0.3,0.3,0.4c0,0,0.1,0.1,0.1,0.1c0.1,0.1,0.1,0.1,0.2,0.2c1,1,2.4,1.6,4.1,1.6c2.9,0,5.5-2.7,5.5-5.5L168.5,99.4z
	 M157.1,139.1H150c-0.4,0-0.7-0.1-0.9-0.4c0,0,0,0,0,0c0,0,0,0,0,0c0,0,0-0.1-0.1-0.1c-0.2-0.3-0.3-0.8-0.1-1.2l9.3-26.3
	c0.1-0.3,0.4-0.3,0.6-0.2c0,0,0,0,0,0c0,0,0,0,0,0c0,0,0,0.1,0,0.2l0,26.3C158.8,138.3,158,139.1,157.1,139.1z"/>
<path class="snacktrack_st1" d="M213.2,144.3c0.3-1.3,0.1-2.6-0.5-3.5c-0.1-0.1-0.1-0.2-0.2-0.3c0,0-0.1-0.1-0.1-0.1c0-0.1-0.1-0.1-0.1-0.2
	c-0.8-0.8-2-1.3-3.4-1.3c-2.9,0-5.5,2.6-6.5,5.5c-1.1,3.1-4.2,5.4-7.4,5.4c-1.6,0-2.9-0.6-3.8-1.6c-0.1-0.1-0.1-0.1-0.2-0.2
	c0,0-0.1-0.1-0.1-0.1c-0.1-0.1-0.2-0.3-0.3-0.4c-0.8-1.2-1.2-2.9-0.9-4.6l5.8-32.8c0.7-3.7,4.1-6.6,7.7-6.6c1.6,0,3,0.6,4,1.6
	c0.1,0.1,0.1,0.1,0.2,0.2c0,0,0.1,0.1,0.1,0.1c0.1,0.1,0.2,0.2,0.3,0.4c0.6,0.9,0.9,2,0.9,3.2c0,1.3,0.3,2.5,1,3.5
	c0.1,0.1,0.2,0.2,0.3,0.3c0,0,0.1,0.1,0.1,0.1c0,0.1,0.1,0.1,0.2,0.2c0.8,0.8,1.8,1.3,3.1,1.3c3,0,6-2.4,6.3-5.4
	c0.4-3.8-0.5-7.3-2.4-10c-0.2-0.3-0.5-0.7-0.7-1c-0.1-0.1-0.2-0.2-0.3-0.4c-0.1-0.2-0.3-0.3-0.5-0.5c-2.6-2.6-6.3-4.2-10.7-4.2
	c-9.6,0-18.8,7.8-20.5,17.4l-5.8,32.8c-0.8,4.3,0.1,8.2,2.2,11.3c0.2,0.3,0.5,0.7,0.7,1c0.1,0.1,0.2,0.2,0.3,0.4
	c0.1,0.2,0.3,0.3,0.5,0.5c2.6,2.6,6.3,4.2,10.6,4.2C202.2,160.4,210.9,153.3,213.2,144.3z"/>
<path class="snacktrack_st1" d="M253.5,153.6l-6-32c-0.2-1.1,0.1-2.2,0.8-3.2l13.3-17.9c1.6-2.2,1.5-4.2,0.6-5.7c-0.1-0.1-0.1-0.2-0.2-0.3
	c0,0-0.1-0.1-0.1-0.1c0-0.1-0.1-0.1-0.1-0.2c-2-2-6.2-2.1-9.4,2.4l-15.1,21.1c-0.2,0.3-0.5,0.3-0.7,0.1c0,0,0,0,0,0c0,0,0,0,0,0
	c0,0,0,0,0,0c-0.1-0.1-0.1-0.2-0.1-0.3l3.3-18.7c0.2-1.4,0-2.7-0.7-3.7c-0.1-0.1-0.2-0.2-0.2-0.3c0,0-0.1-0.1-0.1-0.1
	c0-0.1-0.1-0.1-0.1-0.2c-0.8-0.9-2-1.4-3.4-1.4c-3.1,0-6.1,2.5-6.6,5.6l-9.9,56.1c-0.2,1.4,0,2.7,0.7,3.7c0.1,0.1,0.2,0.2,0.2,0.3
	c0,0,0.1,0.1,0.1,0.1c0,0.1,0.1,0.1,0.1,0.2c0.8,0.9,2,1.4,3.4,1.4c3.1,0,6.1-2.5,6.6-5.6l2.4-13.5c0.2-1.2,0.7-2.3,1.4-3.3l3.3-4.5
	c0.3-0.5,1-0.5,1.3-0.2c0,0,0,0,0,0c0,0,0,0,0,0c0,0,0,0,0,0c0,0.1,0.1,0.2,0.1,0.3l4,23c0.2,0.9,0.4,1.6,0.8,2.1
	c0.1,0.1,0.1,0.2,0.2,0.3c0,0,0.1,0.1,0.1,0.1c0,0.1,0.1,0.1,0.1,0.1C246.8,162.9,254.5,159.1,253.5,153.6z"/>
<path class="snacktrack_st1" d="M302.6,94.7c-0.8-0.8-2-1.3-3.4-1.3h-25c-3,0-5.9,2.5-6.5,5.5c-0.2,1.4,0,2.6,0.7,3.6c0.1,0.1,0.2,0.2,0.2,0.3
	c0,0,0.1,0.1,0.1,0.1c0,0.1,0.1,0.1,0.1,0.2c0.8,0.8,2,1.3,3.4,1.3h5.2c0.4,0,0.8,0.2,1.1,0.4c0,0,0,0,0,0c0,0,0,0,0,0
	c0,0,0.1,0.1,0.1,0.1c0.2,0.3,0.3,0.7,0.2,1.2l-8.6,49c-0.2,1.4,0,2.7,0.7,3.7c0.1,0.1,0.2,0.2,0.2,0.3c0,0,0.1,0.1,0.1,0.1
	c0,0.1,0.1,0.1,0.1,0.2c0.8,0.9,2,1.4,3.4,1.4c3.1,0,6.1-2.5,6.6-5.6l8.6-49c0.2-1,1.1-1.8,2.1-1.8h5c3,0,5.9-2.5,6.5-5.5
	c0.2-1.4,0-2.6-0.7-3.6c-0.1-0.1-0.2-0.2-0.2-0.3c0,0-0.1-0.1-0.1-0.1C302.7,94.8,302.7,94.7,302.6,94.7z"/>
<path class="snacktrack_st1" d="M310.7,155.1l3-16.8c0.2-1,1.1-1.8,2.1-1.8h3c0.6,0,1.1,0.2,1.4,0.6c0,0,0,0,0.1,0.1c0,0,0,0,0,0.1
	c0,0,0.1,0.1,0.1,0.1c0.2,0.3,0.3,0.6,0.3,0.9l1.6,17.8c0.1,1.1,0.4,2.1,0.9,2.8c0.1,0.1,0.2,0.2,0.2,0.3c0,0,0.1,0.1,0.1,0.1
	c0,0.1,0.1,0.1,0.1,0.2c3.2,3.3,10.8,0.4,10.4-5.5l-1.6-20.5c-0.1-1,0.5-2.1,1.4-2.8c4.1-3.1,7.2-7.6,8.1-12.7l1.2-6.6
	c0.8-4.5-0.1-8.6-2.2-11.7c-0.2-0.3-0.5-0.7-0.8-1c-0.1-0.1-0.2-0.2-0.3-0.4c-0.2-0.2-0.3-0.3-0.5-0.5c-2.7-2.7-6.5-4.4-11-4.4
	h-11.8c-3.4,0-6.7,2.8-7.3,6.2l-9.8,55.5c-0.2,1.4,0,2.7,0.7,3.7c0.1,0.1,0.2,0.2,0.2,0.3c0,0,0.1,0.1,0.1,0.1
	c0,0.1,0.1,0.1,0.1,0.2c0.8,0.9,2,1.4,3.4,1.4C307.2,160.7,310.1,158.2,310.7,155.1z M319.3,106.1c0.2-1,1.1-1.8,2.1-1.8h5
	c1.7,0,3.1,0.6,4.1,1.6c0.1,0.1,0.1,0.1,0.2,0.2c0,0,0.1,0.1,0.1,0.1c0.1,0.1,0.2,0.3,0.3,0.4c0.8,1.2,1.1,2.7,0.8,4.4l-1.4,7.7
	c-0.7,3.7-4.2,6.8-8,6.8h-5c-0.4,0-0.8-0.2-1.1-0.4c0,0,0,0,0,0c0,0,0,0,0,0c0,0-0.1-0.1-0.1-0.1c-0.2-0.3-0.3-0.7-0.2-1.2
	L319.3,106.1z"/>
<path class="snacktrack_st1" d="M376.1,99.4c0-1.3-0.4-2.5-1.1-3.4c-0.1-0.1-0.2-0.3-0.3-0.4c0-0.1-0.1-0.1-0.1-0.2c-0.1-0.1-0.1-0.1-0.2-0.2
	c-1.1-1.2-2.8-1.9-4.6-1.9h-1.1c-3.6,0-7.2,2.5-8.5,6.1L339,155.2c-0.6,1.5-0.4,2.9,0.3,3.9c0.1,0.1,0.1,0.2,0.2,0.3
	c0,0,0.1,0.1,0.1,0.1c0,0,0.1,0.1,0.1,0.1c0.7,0.7,1.6,1.1,2.8,1.1c3.2,0,6.4-2.3,7.6-5.5l2-5.5c0.4-1,1.4-1.7,2.4-1.7h10.3
	c0.5,0,1,0.2,1.3,0.5c0,0,0,0,0.1,0.1c0,0,0,0,0,0c0,0,0.1,0.1,0.1,0.1c0.2,0.3,0.3,0.6,0.3,1l0,5.5c0,1.2,0.3,2.3,0.9,3.2
	c0.1,0.1,0.2,0.3,0.3,0.4c0,0,0.1,0.1,0.1,0.1c0.1,0.1,0.1,0.1,0.2,0.2c1,1,2.4,1.6,4.1,1.6c2.9,0,5.5-2.7,5.5-5.5L376.1,99.4z
	 M364.7,139.1h-7.1c-0.4,0-0.7-0.1-0.9-0.4c0,0,0,0,0,0c0,0,0,0,0,0c0,0,0-0.1-0.1-0.1c-0.2-0.3-0.3-0.8-0.1-1.2l9.3-26.3
	c0.1-0.3,0.4-0.3,0.6-0.2c0,0,0,0,0,0c0,0,0,0,0,0c0,0,0,0.1,0,0.2l0,26.3C366.5,138.3,365.6,139.1,364.7,139.1z"/>
<path class="snacktrack_st1" d="M420.8,144.3c0.3-1.3,0.1-2.6-0.5-3.5c-0.1-0.1-0.1-0.2-0.2-0.3c0,0-0.1-0.1-0.1-0.1c0-0.1-0.1-0.1-0.1-0.2
	c-0.8-0.8-2-1.3-3.4-1.3c-2.9,0-5.5,2.6-6.5,5.5c-1.1,3.1-4.2,5.4-7.4,5.4c-1.6,0-2.9-0.6-3.8-1.6c-0.1-0.1-0.1-0.1-0.2-0.2
	c0,0-0.1-0.1-0.1-0.1c-0.1-0.1-0.2-0.3-0.3-0.4c-0.8-1.2-1.2-2.9-0.9-4.6l5.8-32.8c0.7-3.7,4.1-6.6,7.7-6.6c1.6,0,3,0.6,4,1.6
	c0.1,0.1,0.1,0.1,0.2,0.2c0,0,0.1,0.1,0.1,0.1c0.1,0.1,0.2,0.2,0.3,0.4c0.6,0.9,0.9,2,0.9,3.2c0,1.3,0.3,2.5,1,3.5
	c0.1,0.1,0.2,0.2,0.3,0.3c0,0,0.1,0.1,0.1,0.1c0,0.1,0.1,0.1,0.2,0.2c0.8,0.8,1.8,1.3,3.1,1.3c3,0,6-2.4,6.3-5.4
	c0.4-3.8-0.5-7.3-2.4-10c-0.2-0.3-0.5-0.7-0.7-1c-0.1-0.1-0.2-0.2-0.3-0.4c-0.1-0.2-0.3-0.3-0.5-0.5c-2.6-2.6-6.3-4.2-10.7-4.2
	c-9.6,0-18.8,7.8-20.5,17.4l-5.8,32.8c-0.8,4.3,0.1,8.2,2.2,11.3c0.2,0.3,0.5,0.7,0.7,1c0.1,0.1,0.2,0.2,0.3,0.4
	c0.1,0.2,0.3,0.3,0.5,0.5c2.6,2.6,6.3,4.2,10.6,4.2C409.8,160.4,418.5,153.3,420.8,144.3z"/>
<path class="snacktrack_st1" d="M463.3,153.7l-6-32c-0.2-1.1,0.1-2.2,0.8-3.2l13.3-17.9c1.6-2.2,1.5-4.2,0.6-5.7c-0.1-0.1-0.1-0.2-0.2-0.3
	c0,0-0.1-0.1-0.1-0.1c0-0.1-0.1-0.1-0.1-0.2c-2-2-6.2-2.1-9.4,2.4L447.1,118c-0.2,0.3-0.5,0.3-0.7,0.1c0,0,0,0,0,0c0,0,0,0,0,0
	c0,0,0,0,0,0c-0.1-0.1-0.1-0.2-0.1-0.3l3.3-18.7c0.2-1.4,0-2.7-0.7-3.7c-0.1-0.1-0.2-0.2-0.2-0.3c0,0-0.1-0.1-0.1-0.1
	c0-0.1-0.1-0.1-0.1-0.2c-0.8-0.9-2-1.4-3.4-1.4c-3.1,0-6.1,2.5-6.6,5.6l-9.9,56.1c-0.2,1.4,0,2.7,0.7,3.7c0.1,0.1,0.2,0.2,0.2,0.3
	c0,0,0.1,0.1,0.1,0.1c0,0.1,0.1,0.1,0.1,0.2c0.8,0.9,2,1.4,3.4,1.4c3.1,0,6.1-2.5,6.6-5.6l2.4-13.5c0.2-1.2,0.7-2.3,1.4-3.3l3.3-4.5
	c0.3-0.5,1-0.5,1.3-0.2c0,0,0,0,0,0c0,0,0,0,0,0c0,0,0,0,0,0c0,0.1,0.1,0.2,0.1,0.3l4,23c0.1,0.9,0.4,1.6,0.8,2.1
	c0.1,0.1,0.1,0.2,0.2,0.3c0,0,0.1,0.1,0.1,0.1c0,0.1,0.1,0.1,0.1,0.1C456.7,163,464.3,159.2,463.3,153.7z"/>
</svg>
