<?xml version="1.0" encoding="utf-8"?>
<!-- Generator: Adobe Illustrator 24.0.0, SVG Export Plug-In . SVG Version: 6.00 Build 0)  -->
<svg version="1.1" xmlns="http://www.w3.org/2000/svg" xmlns:xlink="http://www.w3.org/1999/xlink" x="0px" y="0px"
	 viewBox="0 0 512 512" style="enable-background:new 0 0 512 512;" xml:space="preserve">
<style type="text/css">
	.st0{fill:#FFFFFF;}
	.st1{fill:#CC98E8;}
	.st2{fill:#BF80E2;}
	.st3{fill:#FF94D4;}
	.st4{fill:#FF73C6;}
	.st5{fill:#FF4FB8;}
</style>
<g id="Layer_2">
	<circle class="st0" cx="256" cy="256" r="256"/>
</g>
<g id="Layer_1">
	<g>
		<path class="st1" d="M457.6,171.5c-16.5-16.5-11.4-21.5-27.9-38s-21.5-11.4-38-27.9C378.9,92.9,379,87,372.2,77.4
			c-2.9-4.1-8.9-4.6-11.7-0.9C329,117.3,341,184.9,341,184.9l1,19.3l16.9,16.9l19.3,1c0,0,67.6,12,108.4-19.4
			c3.7-2.9,3.3-8.8-0.9-11.7C476.2,184.1,470.3,184.2,457.6,171.5z"/>
		<path class="st2" d="M485.8,191c-6.2-4.4-10.9-6-16.9-10c-40.9,30.6-110.2,21.5-110.2,21.5l-16.7-0.9l0.1,2.6l16.9,16.9l19.3,1
			c0,0,67.6,12,108.4-19.4C490.4,199.8,489.9,193.9,485.8,191z"/>
		<path class="st1" d="M148.7,480.4c-16.5-16.5-21.5-11.4-38-27.9s-11.4-21.5-27.9-38c-12.7-12.7-18.6-12.6-28.2-19.4
			c-4.1-2.9-4.6-8.9-0.9-11.7c40.7-31.5,108.4-19.4,108.4-19.4l19.3,1l16.9,16.9l1,19.3c0,0,12,67.6-19.4,108.4
			c-2.9,3.7-8.8,3.3-11.7-0.9C161.3,499,161.4,493.1,148.7,480.4z"/>
		<g>
			<path class="st2" d="M179.9,509.5c31.5-40.7,19.4-108.4,19.4-108.4l-1-19.3l-16.9-16.9l-2.6-0.1l0.9,16.7
				c0,0,9.3,69.4-21.5,110.2c4,6,5.5,10.7,10,16.9C171.1,512.7,177,513.2,179.9,509.5z"/>
			<path class="st2" d="M353.7,206.2c-0.6,0-1.2-0.1-1.7-0.2c-3.5-1-5.6-4.6-4.6-8.1c3-10.9,8.5-31.3,21.3-48.5
				c2.2-2.9,6.3-3.6,9.2-1.4c2.9,2.2,3.6,6.3,1.4,9.2c-11.3,15.2-16.2,33.3-19.1,44.1C359.2,204.3,356.6,206.2,353.7,206.2z"/>
			<path class="st2" d="M366.5,219.5c-2.9,0-5.6-2-6.4-5c-0.9-3.5,1.2-7.1,4.7-8.1c10.1-2.6,28.8-7.5,44.6-19.4
				c2.9-2.2,7.1-1.6,9.3,1.3c2.2,2.9,1.6,7.1-1.3,9.3c-17.9,13.5-38.3,18.8-49.2,21.7C367.6,219.4,367,219.5,366.5,219.5z"/>
			<path class="st2" d="M132.1,402.5c-2.1,0-4.1-1-5.4-2.8c-2.1-3-1.4-7.1,1.6-9.2c16.8-11.9,36.4-17.2,46.9-20.1
				c3.5-1,7.2,1.1,8.1,4.6s-1.1,7.2-4.6,8.1c-10.4,2.8-27.8,7.6-42.8,18.1C134.8,402.1,133.4,402.5,132.1,402.5z"/>
			<path class="st2" d="M171,441.3c-1.3,0-2.7-0.4-3.8-1.2c-3-2.1-3.6-6.3-1.5-9.2c11-15.4,15.7-33.3,18.2-43
				c0.9-3.5,4.5-5.7,8.1-4.7c3.5,0.9,5.7,4.5,4.7,8.1c-2.7,10.5-7.8,30-20.3,47.3C175.1,440.4,173,441.3,171,441.3z"/>
		</g>
		<path class="st3" d="M361.4,201.7c-50.4-50.4-132.1-50.4-182.5,0c-50.4,50.4-50.4,132.1,0,182.5c50.4,50.4,132.1,50.4,182.5,0
			C411.8,333.9,411.8,252.1,361.4,201.7z"/>
		<path class="st4" d="M361.4,201.7c-3.4-3.4-6.9-6.5-10.5-9.4c40.7,50.7,37.6,125-9.4,172c-47,47-121.3,50.2-172,9.4
			c2.9,3.6,6.1,7.1,9.4,10.5c50.4,50.4,132.1,50.4,182.5,0C411.8,333.9,411.8,252.1,361.4,201.7z"/>
		<path class="st4" d="M178.9,384.3c3.7,3.7,7.6,7.2,11.7,10.4V191.4c-4.1,3.2-8,6.6-11.7,10.4C128.5,252.1,128.5,333.9,178.9,384.3
			z"/>
		<path class="st4" d="M349.9,191.5v203.1c4-3.2,7.9-6.6,11.6-10.3c50.4-50.4,50.4-132.1,0-182.5C357.7,198,353.9,194.6,349.9,191.5
			z"/>
		<path class="st5" d="M361.4,201.7c-3.4-3.4-6.9-6.5-10.5-9.4c38.1,47.5,37.8,115.7-1.1,162.8v39.4c4-3.2,7.9-6.6,11.6-10.3
			C411.8,333.9,411.8,252.1,361.4,201.7z"/>
		<path class="st4" d="M243.7,166.7v252.6c17.5,3.7,35.6,3.6,53.1,0V166.7C279.3,163,261.2,163,243.7,166.7z"/>
		<path class="st5" d="M296.8,393.4c-17,6.6-35.1,9.4-53.1,8.5v17.4l0,0c17.4,3.6,35.3,3.6,52.7,0.1c0.1,0,0.2-0.1,0.4-0.1V393.4z"
			/>
	</g>
</g>
</svg>
