<?xml version="1.0" encoding="utf-8"?>
<!-- Generator: Adobe Illustrator 24.0.0, SVG Export Plug-In . SVG Version: 6.00 Build 0)  -->
<svg version="1.1" xmlns="http://www.w3.org/2000/svg" xmlns:xlink="http://www.w3.org/1999/xlink" x="0px" y="0px"
	 viewBox="0 0 512 512" style="enable-background:new 0 0 512 512;" xml:space="preserve">
<style type="text/css">
	.st0{fill:#FFFFFF;}
	.st1{fill:#EDEDED;}
	.st2{fill:#DBDBDB;}
	.st3{fill:#F69E20;}
	.st4{fill:#E28424;}
	.st5{fill:#FFC250;}
	.st6{fill:#FFD064;}
</style>
<g id="Layer_2">
	<circle class="st0" cx="256" cy="256" r="256"/>
</g>
<g id="Capa_1">
	<g>
		<g>
			<path class="st1" d="M373.6,458.4c1.5,11.9-13.1,19-21.2,10.1c-3.7-3.9-8-7.2-15.6-8c-19.4-1.9-21.3,17.2-40.7,15.3
				c-19.4-1.9-17.7-20.9-37.1-22.8c-19.4-1.9-21.3,17.2-40.7,15.3c-19.4-1.9-17.7-20.9-37.1-22.8c-19.4-1.9-21.3,17.2-40.7,15.3
				c-19.4-1.9-17.7-20.9-37.1-22.8c-7.6-0.8-12.5,1.7-16.8,4.9c-9.7,7-22.6-2.6-19-14.1c5.8-17.7,14-26.5,14-26.5l31-322.8
				c0,0-6.4-10.2-8.7-28.7c-1.5-11.7,13.1-18.9,21.3-10c3.7,3.9,8,7.2,15.6,8c7.9,0.8,12.9-1.9,17.3-5.3
				c6.6-4.9,11.9-11.3,23.5-10.1c19.4,1.9,17.7,20.9,37.1,22.8s21.3-17.2,40.7-15.3s17.7,20.9,37.1,22.8
				c19.4,1.9,21.3-17.2,40.7-15.3c19.4,1.9,17.7,20.9,37.1,22.8c7.6,0.8,12.5-1.7,16.8-4.9c9.7-7,22.6,2.6,19,14.1
				c-5.8,17.7-14,26.5-14,26.5l-31,322.8C365,429.7,371.3,440,373.6,458.4L373.6,458.4z"/>
			<path class="st2" d="M110.3,103l2.3-23.4c0,0-6.4-10.2-8.7-28.7c-1.5-11.8,13.1-19,21.3-10.1c3.7,3.9,8,7.2,15.6,8
				c7.9,0.8,12.9-1.9,17.3-5.3c1.6,19.8,6.1,35.8,6.1,35.8L110.3,103z"/>
			<path class="st2" d="M83.8,379l-2.3,23.4c0,0-8.2,8.9-14,26.5c-3.8,11.4,9.2,21.1,19,14.1c4.3-3.2,9.2-5.6,16.8-4.9
				c7.9,0.8,12.3,4.3,16,8.5c5.4-19.2,12.9-34,12.9-34L83.8,379z"/>
			<path class="st3" d="M396.1,106c-76.5-17.2-153.9-26.4-231.9-27.6c-17.2-0.3-29.4,3.8-46.6,4.2c-20.7,106.9-36.1,211-36.1,319.9
				c93.3,20.9,187.9,30,283.5,27.2C385.8,322.8,396.1,214.9,396.1,106L396.1,106z"/>
			<path class="st4" d="M132.1,412.6c-16.9-3-33.7-6.4-50.5-10.1c0-108.9,10.3-216.8,31.1-323.7c17.2-0.5,34.4-0.7,51.5-0.4
				C142.9,188.8,132.2,300.2,132.1,412.6z"/>
			<path class="st1" d="M354.3,265.3c-5.6,58.8-62,101.4-125.7,95.2c-41.4-3.9-75.8-27.5-93.2-59.6c-9.5-17.4-14-37.2-12-57.8
				s10.2-39.3,22.9-54.5c23.3-28.2,61.5-44.6,102.9-40.7C312.8,154,359.9,206.6,354.3,265.3z"/>
		</g>
		<g>
			<path class="st5" d="M220.8,287.2c-28.6,6-72.8-7.2-69.5-45.8s49.1-11,49.1-11L220.8,287.2z"/>
			<path class="st6" d="M166.9,221.1c19.7-1.5,32,25.7,45.8,54.1c13.7,28.4,55.2,43.2,84.6,23.2c29.3-20,44.6-58.4,13.5-85.3
				s-57.1,24.8-85.9,23.5C196.1,235.3,197.9,213.9,166.9,221.1L166.9,221.1z"/>
		</g>
		<g>
			<path class="st5" d="M311.2,485.7c-37.1,7.7-94.1-9.3-89.9-59.2c4.3-49.9,63.5-14.3,63.5-14.3L311.2,485.7z"/>
			<path class="st6" d="M241.6,400.2c25.5-1.9,41.4,33.2,59.2,69.9s71.4,55.8,109.4,30c37.9-25.8,57.7-75.6,17.6-110.2
				s-73.8,32-111.1,30.3C279.4,418.5,281.6,391.1,241.6,400.2L241.6,400.2z"/>
		</g>
		<g>
			<path class="st5" d="M414.6,475.5c-2.3-0.2-4.5-1.7-5.6-3.9c-1.6-3.5-0.1-7.6,3.4-9.2l0.4-0.2c3.5-1.6,7.6-0.1,9.2,3.4
				c1.6,3.5,0.1,7.6-3.4,9.2l-0.4,0.2C417,475.5,415.8,475.7,414.6,475.5z"/>
			<path class="st5" d="M425.9,460.5c-2.3-0.2-4.5-1.7-5.6-3.9c-1.6-3.5-0.1-7.6,3.4-9.2l0.4-0.2c3.5-1.6,7.6-0.1,9.2,3.4
				c1.6,3.5,0.1,7.6-3.4,9.2l-0.4,0.2C428.4,460.5,427.1,460.7,425.9,460.5z"/>
			<path class="st5" d="M406.7,458.4c-2.3-0.2-4.5-1.7-5.6-3.9c-1.6-3.5-0.1-7.6,3.4-9.2l0.4-0.2c3.5-1.6,7.6-0.1,9.2,3.4
				c1.6,3.5,0.1,7.6-3.4,9.2l-0.4,0.2C409,458.3,407.8,458.5,406.7,458.4z"/>
		</g>
	</g>
</g>
</svg>
