<?xml version="1.0" encoding="utf-8"?>
<!-- Generator: Adobe Illustrator 24.0.0, SVG Export Plug-In . SVG Version: 6.00 Build 0)  -->
<svg version="1.1" xmlns="http://www.w3.org/2000/svg" xmlns:xlink="http://www.w3.org/1999/xlink" x="0px" y="0px"
	 viewBox="0 0 512 512" style="enable-background:new 0 0 512 512;" xml:space="preserve">
<style type="text/css">
	.st0{fill:#C7463B;}
	.st1{fill:#834B10;}
	.st2{fill:#A45E14;}
	.st3{fill:#DC4D41;}
	.st4{fill:#C4C4C4;}
	.st5{fill:#B94137;}
	.st6{fill:#D8D8D8;}
</style>
<g id="Layer_2">
</g>
<g id="Layer_1">
	<g id="flat">
		<path class="st0" d="M107.5,382.5l236.1,82.3L327.1,512L91,429.7L107.5,382.5z"/>
		<path class="st1" d="M481.4,69.4L343.5,464.8l-236.1-82.3L217.2,67.7c0.6,0.3,1.3,0.5,1.9,0.7c17.4,6,36.4-3.1,42.4-20.4l0,0
			c0.5-1.5,0.9-3.1,1.2-4.6c18.1-0.8,35.2-9,47.2-22.6c0.1-0.1,0.2-0.2,0.3-0.3c1.4,0.7,2.9,1.4,4.4,1.9c14.4,5,30.2-0.3,38.7-13
			L472.3,51C480,53.6,484,61.9,481.4,69.4z"/>
		<g>
			<path class="st2" d="M312.7,21.6l-21.9,63l-47.2-16.5l0.3-0.8c8.3-3.8,14.8-10.8,17.7-19.4c0.5-1.5,0.9-3.1,1.2-4.6
				c18.1-0.8,35.2-9,47.2-22.6L312.7,21.6z"/>
			<path class="st2" d="M336.4,29.9l47.2,16.5l-21.9,63l-47.2-16.5L336.4,29.9z"/>
			<path class="st2" d="M407.2,54.7l47.2,16.5l-21.9,63l-47.2-16.5L407.2,54.7z"/>
			<path class="st2" d="M235.4,91.7l47.2,16.5l-21.9,63l-47.3-16.5L235.4,91.7z"/>
			<path class="st2" d="M205.1,178.3l47.2,16.5l-21.9,63l-47.2-16.5L205.1,178.3z"/>
			<path class="st2" d="M175,264.8l47.2,16.5l-21.9,63l-47.2-16.5L175,264.8z"/>
			<path class="st2" d="M306.1,116.4l47.2,16.5l-21.9,63l-47.2-16.5L306.1,116.4z"/>
			<path class="st2" d="M276,203l47.2,16.5l-21.9,63l-47.2-16.5L276,203z"/>
			<path class="st2" d="M376.9,141.1l47.2,16.5l-21.9,63L355,204.1L376.9,141.1z"/>
			<path class="st2" d="M346.8,227.7l47.2,16.5l-21.9,63l-47.3-16.5L346.8,227.7z"/>
		</g>
		<path class="st3" d="M420.4,244.5l-76.8,220.3l-236.1-82.3l24.7-70.8L420.4,244.5z"/>
		<path class="st4" d="M461.5,126.5l20.1,68.8l-0.4,26.4l-50-8.6L461.5,126.5z"/>
		<path class="st5" d="M209.4,444.5l15.8,5.5l-8.2,23.6l-15.8-5.5L209.4,444.5z"/>
		<path class="st5" d="M177.9,433.6l15.8,5.5l-8.2,23.6l-15.8-5.5L177.9,433.6z"/>
		<path class="st5" d="M146.4,422.6l15.8,5.5l-8.2,23.6l-15.8-5.5L146.4,422.6z"/>
		<path class="st5" d="M115,411.6l15.8,5.5l-8.2,23.6l-15.8-5.5L115,411.6z"/>
		<path class="st5" d="M303.8,477.4l15.8,5.5l-8.2,23.6l-15.8-5.5L303.8,477.4z"/>
		<path class="st5" d="M272.3,466.5l15.8,5.5l-8.2,23.6l-15.8-5.5L272.3,466.5z"/>
		<path class="st5" d="M240.8,455.5l15.8,5.5l-8.2,23.6l-15.8-5.5L240.8,455.5z"/>
		<path class="st6" d="M132.1,311.7l349.5-116.4l20.1,68.8L132.1,311.7z"/>
	</g>
</g>
</svg>
