<?xml version="1.0" encoding="utf-8"?>
<!-- Generator: Adobe Illustrator 24.0.0, SVG Export Plug-In . SVG Version: 6.00 Build 0)  -->
<svg version="1.1" xmlns="http://www.w3.org/2000/svg" xmlns:xlink="http://www.w3.org/1999/xlink" x="0px" y="0px"
	 viewBox="0 0 464 464" style="enable-background:new 0 0 464 464;" xml:space="preserve">
<style type="text/css">
	.st0{fill:#B2D5FF;}
	.st1{fill:#B97850;}
	.st2{fill:#A5694B;}
	.st3{fill:#734B46;}
	.st4{fill:#644141;}
	.st5{fill:#C98850;}
	.st6{fill:#925F4A;}
</style>
<g id="Layer_2">
	<circle class="st0" cx="230.9" cy="230.9" r="230.9"/>
</g>
<g id="Layer_1">
	<g>
		<g>
			<g>
				<path class="st1" d="M418.9,242.5c-10.4,3.8-21.7,5.1-33.4,5.1c-5.5,0-10.8-0.5-16-1.3c-0.5,0.6-0.9,1.2-1.6,1.7l-11.3,8.5
					c-3.7,2.8-8.7,2.9-12.5,0.3l-15.5-10.7c-4.4-3-5.5-7.1-3.2-11.9l0,0c0.6-1.1,1-3.4-1.2-4.8c-31.7-19.6-52.2-55.3-52.2-95.4
					c0-23,6.9-44.3,18.7-62.2c2.5-3.7,0.5-8.7-3.8-10c-20.3-6-41.9-8.8-64.3-7.7C124.5,59,44.2,138.4,38.7,236.4
					c-6.3,112,82.7,204.7,193.3,204.7c106.9,0,193.6-86.7,193.6-193.6C425.6,245.1,423.9,240.6,418.9,242.5z"/>
			</g>
		</g>
		<g>
			<g>
				<path class="st2" d="M118.5,247.6c0-93.2,65.8-171,153.5-189.4C259.1,55.5,245.7,54,232,54C125.1,54,38.4,140.7,38.4,247.6
					c0,106.9,86.7,193.6,193.6,193.6c13.7,0,27.1-1.5,40.1-4.2C184.4,418.5,118.5,340.8,118.5,247.6z"/>
			</g>
		</g>
		<g>
			<g>
				<path class="st3" d="M199,241.1l-6.6,19.9c-2.1,6.3,0.8,13.2,6.7,16.2l21.1,10.5c5.1,2.6,11.3,1.6,15.4-2.5l12.5-12.5
					c4.3-4.3,5.2-11.1,2-16.3l-10.8-18c-2.4-4-6.8-6.5-11.4-6.5h-16.2C206,232,200.9,235.7,199,241.1z"/>
			</g>
		</g>
		<g>
			<g>
				<path class="st3" d="M125.2,154.3l6.3,20c2,6.3,8.3,10.2,14.9,9.2l23.3-3.8c5.7-0.9,10.1-5.4,11-11.1l2.8-17.5
					c1-6-2.3-12-7.9-14.4l-19.3-8.2c-4.3-1.8-9.3-1.3-13.1,1.5l-13.1,9.5C125.5,142.9,123.5,148.8,125.2,154.3z"/>
			</g>
		</g>
		<g>
			<g>
				<path class="st3" d="M267.7,134.5L250.8,147c-5.3,4-7,11.2-3.8,17.1l11.2,20.7c2.7,5.1,8.4,7.8,14,6.8l17.4-3.1
					c6-1.1,10.6-6.1,11-12.2l1.5-20.9c0.3-4.7-1.8-9.2-5.6-11.9l-13.3-9.3C278.6,131,272.3,131.1,267.7,134.5z"/>
			</g>
		</g>
		<g>
			<g>
				<path class="st3" d="M91.1,266l4.4,16.2c1.4,5.1,6.3,8.4,11.6,7.8l18.7-2.3c4.6-0.6,8.2-4,9.2-8.5l2.8-13.9
					c1-4.8-1.5-9.6-5.9-11.7l-15.1-7.2c-3.4-1.6-7.4-1.3-10.5,0.8l-10.8,7.2C91.6,256.9,89.9,261.6,91.1,266z"/>
			</g>
		</g>
		<g>
			<g>
				<path class="st3" d="M325.7,306l-20.5-4.7c-6.5-1.5-13.1,2-15.5,8.2l-8.5,22c-2.1,5.4-0.5,11.4,3.9,15.1l13.7,11.3
					c4.7,3.9,11.5,4.1,16.4,0.5l16.9-12.4c3.8-2.8,5.8-7.3,5.4-12l-1.5-16.1C335.5,312,331.3,307.3,325.7,306z"/>
			</g>
		</g>
		<g>
			<g>
				<path class="st3" d="M202.6,361.7l-11.1-12.6c-3.5-4-9.4-4.8-13.8-1.9L162,357.5c-3.8,2.5-5.6,7.2-4.5,11.6l3.6,13.7
					c1.2,4.7,5.6,8,10.4,7.9l16.7-0.2c3.7-0.1,7.2-2.1,9.1-5.3l6.5-11.2C206.2,370.1,205.7,365.1,202.6,361.7z"/>
			</g>
		</g>
		<g>
			<g>
				<path class="st4" d="M146,174.3l-6.3-20c-1.7-5.5,0.2-11.5,4.9-14.8l13.1-9.5c0.3-0.2,0.6-0.3,0.9-0.5l-2.3-1
					c-4.3-1.8-9.3-1.3-13.1,1.5l-13.1,9.5c-4.7,3.4-6.6,9.3-4.9,14.8l6.3,20c2,6.3,8.3,10.2,14.9,9.2l6.7-1.1
					C149.8,180.9,147.2,178,146,174.3z"/>
			</g>
		</g>
		<g>
			<g>
				<path class="st4" d="M272.6,184.8l-11.2-20.7c-3.2-5.8-1.5-13.1,3.8-17.1l16.9-12.5c0.2-0.2,0.5-0.2,0.7-0.4
					c-4.7-3-10.7-2.9-15.2,0.4L250.8,147c-5.3,4-7,11.2-3.8,17.1l11.2,20.7c2.7,5.1,8.4,7.8,14,6.8l6.4-1.1
					C276.1,189.3,274,187.3,272.6,184.8z"/>
			</g>
		</g>
		<g>
			<g>
				<path class="st4" d="M313.4,357.8l-13.7-11.3c-4.4-3.7-6-9.7-3.9-15.1l8.5-22c1.2-3.1,3.4-5.5,6.2-7l-5.2-1.2
					c-6.5-1.5-13.1,2-15.5,8.2l-8.5,22c-2.1,5.4-0.5,11.4,3.9,15.1l13.7,11.3c4.5,3.8,10.9,4,15.8,0.8
					C314.3,358.3,313.8,358.1,313.4,357.8z"/>
			</g>
		</g>
		<g>
			<g>
				<path class="st4" d="M213.6,277.2c-5.9-3-8.8-9.9-6.7-16.2l6.6-19.9c1.8-5.5,6.9-9.1,12.7-9.1h-14.5c-5.7,0-10.8,3.7-12.7,9.1
					l-6.6,19.9c-2.1,6.3,0.8,13.2,6.7,16.2l21.1,10.5c4.2,2.1,9.1,1.7,13-0.7L213.6,277.2z"/>
			</g>
		</g>
		<g>
			<g>
				<path class="st4" d="M110,282.2l-4.4-16.2c-1.2-4.4,0.6-9.1,4.4-11.7l9.8-6.5l-3-1.4c-3.4-1.6-7.4-1.3-10.5,0.8l-10.8,7.2
					c-3.8,2.5-5.6,7.3-4.4,11.7l4.4,16.2c1.4,5.1,6.3,8.4,11.6,7.8l8.7-1.1C113,287.6,110.8,285.3,110,282.2z"/>
			</g>
		</g>
		<g>
			<g>
				<path class="st4" d="M175.6,382.8l-3.6-13.7c-1.2-4.4,0.6-9.1,4.5-11.6l14.1-9.2c-3.6-3.2-8.8-3.7-12.8-1.1L162,357.5
					c-3.8,2.5-5.6,7.2-4.5,11.6l3.6,13.7c1.2,4.7,5.6,8,10.4,7.9l13.3-0.2C180.5,390.2,176.8,387.2,175.6,382.8z"/>
			</g>
		</g>
		<g>
			<g>
				<path class="st5" d="M218.6,200.9L218.6,200.9c-3.7,0-6.7-3-6.7-6.7v-13.4c0-3.7,3-6.7,6.7-6.7l0,0c3.7,0,6.7,3,6.7,6.7v13.4
					C225.3,197.9,222.3,200.9,218.6,200.9z"/>
			</g>
		</g>
		<g>
			<g>
				<path class="st6" d="M161.3,230.3L161.3,230.3c-2.6,2.6-6.8,2.6-9.4,0l-9.4-9.4c-2.6-2.6-2.6-6.8,0-9.4l0,0
					c2.6-2.6,6.8-2.6,9.4,0l9.4,9.4C163.9,223.5,163.9,227.7,161.3,230.3z"/>
			</g>
		</g>
		<g>
			<g>
				<path class="st5" d="M160.3,320.1L160.3,320.1c-3.4-1.4-5.1-5.2-3.8-8.7l4.9-12.4c1.4-3.4,5.2-5.1,8.7-3.8l0,0
					c3.4,1.4,5.1,5.2,3.8,8.7l-4.9,12.4C167.7,319.8,163.8,321.4,160.3,320.1z"/>
			</g>
		</g>
		<g>
			<g>
				<path class="st6" d="M239.1,339.3L239.1,339.3c-3.6,0.9-7.2-1.4-8-4.9l-3.1-13c-0.9-3.6,1.4-7.2,4.9-8l0,0
					c3.6-0.9,7.2,1.4,8,4.9l3.1,13C244.9,334.9,242.7,338.5,239.1,339.3z"/>
			</g>
		</g>
		<g>
			<g>
				<path class="st6" d="M259.2,397L259.2,397c-1.4-3.4,0.2-7.3,3.7-8.7l12.4-5c3.4-1.4,7.3,0.2,8.7,3.7l0,0
					c1.4,3.4-0.2,7.3-3.7,8.7l-12.4,5C264.5,402,260.6,400.4,259.2,397z"/>
			</g>
		</g>
		<g>
			<g>
				<path class="st6" d="M220.2,107.6L220.2,107.6c0.9-3.6,4.5-5.8,8.1-4.9l13,3.1c3.6,0.9,5.8,4.5,4.9,8.1l0,0
					c-0.9,3.6-4.5,5.8-8.1,4.9l-13-3.1C221.6,114.8,219.4,111.2,220.2,107.6z"/>
			</g>
		</g>
		<g>
			<g>
				<path class="st6" d="M98.4,346.6L98.4,346.6c-3.5-1.2-5.3-5.1-4-8.5l4.5-12.6c1.2-3.5,5.1-5.3,8.5-4l0,0c3.5,1.2,5.3,5.1,4,8.5
					l-4.5,12.6C105.7,346,101.9,347.8,98.4,346.6z"/>
			</g>
		</g>
		<g>
			<g>
				<path class="st5" d="M88.9,189.5L88.9,189.5c3.6-0.9,7.2,1.3,8.1,4.9l3.2,13c0.9,3.6-1.3,7.2-4.9,8.1l0,0
					c-3.6,0.9-7.2-1.3-8.1-4.9l-3.2-13C83.1,193.9,85.3,190.3,88.9,189.5z"/>
			</g>
		</g>
		<g>
			<g>
				<path class="st6" d="M276,250.4L276,250.4c-2.6-2.6-2.6-6.8,0-9.4l9.4-9.4c2.6-2.6,6.8-2.6,9.4,0l0,0c2.6,2.6,2.6,6.8,0,9.4
					l-9.4,9.4C282.8,253,278.6,253,276,250.4z"/>
			</g>
		</g>
		<g>
			<g>
				<path class="st6" d="M364.7,276.2L364.7,276.2c2.6-2.6,6.8-2.6,9.4,0l9.4,9.4c2.6,2.6,2.6,6.8,0,9.4l0,0c-2.6,2.6-6.8,2.6-9.4,0
					l-9.4-9.4C362.1,283.1,362.1,278.9,364.7,276.2z"/>
			</g>
		</g>
		<g>
			<g>
				<path class="st5" d="M366.4,329.2L366.4,329.2c3.4,1.4,5,5.3,3.6,8.7l-5.1,12.3c-1.4,3.4-5.3,5-8.7,3.6l0,0
					c-3.4-1.4-5-5.3-3.6-8.7l5.1-12.3C359.1,329.4,363,327.8,366.4,329.2z"/>
			</g>
		</g>
		<g>
			<g>
				<path class="st1" d="M359,166.2l4.5,22.7c0.7,3.5,4.1,5.9,7.6,5.3l27.4-4.6c3.5-0.6,6-3.9,5.5-7.4l-4.5-36.3
					c-0.6-4.9-6.2-7.5-10.3-4.7l-27.3,18.2C359.5,160.8,358.4,163.5,359,166.2z"/>
			</g>
		</g>
		<g>
			<g>
				<path class="st1" d="M338.5,138l48-21.3c3.2-1.4,4.8-5.1,3.5-8.4l-15.6-41.5c-1.3-3.4-5-5.1-8.4-4l-31,10.3
					c-1.9,0.6-3.4,2-4.1,3.9l-11.2,28c-0.6,1.6-0.6,3.4,0,5l9.8,24.5C331,137.9,335,139.5,338.5,138z"/>
			</g>
		</g>
		<g>
			<g>
				<path class="st2" d="M330.3,167.5h7.1c4.2,0,7.4,3.9,6.5,8l-3.1,15.6c-0.9,4.7-6.3,6.9-10.2,4.2l-7.5-5
					c-2.5-1.7-3.6-4.8-2.6-7.7l3.5-10.6C324.8,169.3,327.4,167.5,330.3,167.5z"/>
			</g>
		</g>
		<g>
			<g>
				<path class="st2" d="M352.2,220.9v1.2c0,3.2,2.2,5.9,5.4,6.5l20,4c4.1,0.8,8-2.3,8-6.5v-5.2c0-3.7-3-6.7-6.7-6.7h-20
					C355.1,214.2,352.2,217.2,352.2,220.9z"/>
			</g>
		</g>
		<g>
			<g>
				<path class="st2" d="M342.4,129.9l-9.8-24.5c-0.6-1.6-0.6-3.4,0-5l11.2-28c0.6-1.6,1.9-2.8,3.5-3.5l-12.2,4.1
					c-1.9,0.6-3.4,2-4.1,3.9l-11.2,28c-0.6,1.6-0.6,3.4,0,5l9.8,24.5c1.4,3.5,5.4,5.2,8.9,3.6l9.1-4.1
					C345.3,133.6,343.3,132.2,342.4,129.9z"/>
			</g>
		</g>
		<g>
			<g>
				<path class="st2" d="M375,187.5l-5.6-28.2c-0.4-2,0-4,1-5.7l-8.6,5.7c-2.3,1.5-3.4,4.2-2.8,6.9l4.5,22.7
					c0.7,3.5,4.1,5.9,7.6,5.3l7.6-1.3C376.9,191.7,375.5,189.8,375,187.5z"/>
			</g>
		</g>
	</g>
</g>
</svg>
