<?xml version="1.0" encoding="utf-8"?>
<!-- Generator: Adobe Illustrator 24.0.0, SVG Export Plug-In . SVG Version: 6.00 Build 0)  -->
<svg version="1.1" id="Layer_1" xmlns="http://www.w3.org/2000/svg" xmlns:xlink="http://www.w3.org/1999/xlink" x="0px" y="0px"
	 viewBox="0 0 512 512" style="enable-background:new 0 0 512 512;" xml:space="preserve">
<style type="text/css">
	.st0{fill:#FFE266;}
	.st1{fill:#F9C450;}
</style>
<g id="Layer_1_1_">
	<g>
		<path class="st0" d="M270.2,175.2c-0.9-14-13-24.5-27-23.6c14-0.9,24.5-13,23.6-27s-13-24.5-27-23.6s-24.5,13-23.6,27
			c-0.9-14-13-24.5-27-23.6s-24.5,13-23.6,27c-0.9-14-13-24.5-27-23.6s-24.5,13-23.6,27c-0.9-13.8-13-24.3-27-23.4s-24.5,13-23.6,27
			c-0.9-13.9-13-24.5-27-23.6c-13.9,1-24.4,13-23.5,27s13,24.5,27,23.6c-14,0.9-24.5,13-23.6,26.9c0.9,14,13,24.5,27,23.6
			c-13.9,0.9-24.5,13-23.5,27c1,13.9,13,24.5,27,23.6c-14,0.9-24.5,13-23.6,27s13,24.5,27,23.6c-14,0.9-24.5,13-23.6,27
			s13,24.5,27,23.6c-14,0.9-24.5,13-23.6,27s13,24.5,27,23.6s24.5-13,23.6-27c0.9,14,13,24.5,27,23.6s24.5-13,23.6-27
			c0.9,14,13,24.5,27,23.6s24.5-13,23.6-27c0.9,14,13,24.5,27,23.6s24.5-13,23.6-27c0.9,14,13,24.5,27,23.6s24.5-13,23.6-27
			s-13-24.5-27-23.6c14-0.9,24.5-13,23.6-27s-13-24.5-27-23.6c14-0.9,24.5-13,23.6-27c-0.9-13.9-13-24.5-27-23.6
			c14-0.9,24.5-13,23.6-27s-13-24.5-27-23.6C260.6,201.3,271.1,189.2,270.2,175.2z"/>
		<path class="st0" d="M270.2,175.2c-0.9-14-13-24.5-27-23.6c14-0.9,24.5-13,23.6-27s-13-24.5-27-23.6s-24.5,13-23.6,27
			c-0.9-14-13-24.5-27-23.6s-24.5,13-23.6,27c-0.9-14-13-24.5-27-23.6s-24.5,13-23.6,27c-0.9-13.8-13-24.3-27-23.4s-24.5,13-23.6,27
			c-0.9-13.9-13-24.5-27-23.6c-13.9,1-24.4,13-23.5,27s13,24.5,27,23.6c-14,0.9-24.5,13-23.6,26.9c0.9,14,13,24.5,27,23.6
			c-13.9,0.9-24.5,13-23.5,27c1,13.9,13,24.5,27,23.6c-14,0.9-24.5,13-23.6,27s13,24.5,27,23.6c-14,0.9-24.5,13-23.6,27
			s13,24.5,27,23.6c-14,0.9-24.5,13-23.6,27s13,24.5,27,23.6s24.5-13,23.6-27c0.9,14,13,24.5,27,23.6s24.5-13,23.6-27
			c0.9,14,13,24.5,27,23.6s24.5-13,23.6-27c0.9,14,13,24.5,27,23.6s24.5-13,23.6-27c0.9,14,13,24.5,27,23.6s24.5-13,23.6-27
			s-13-24.5-27-23.6c14-0.9,24.5-13,23.6-27s-13-24.5-27-23.6c14-0.9,24.5-13,23.6-27c-0.9-13.9-13-24.5-27-23.6
			c14-0.9,24.5-13,23.6-27s-13-24.5-27-23.6C260.6,201.3,271.1,189.2,270.2,175.2z"/>
		<path class="st1" d="M270.2,175.2c-0.9-13.8-13.2-24.5-27-23.6c13.7-0.9,24.1-12.6,23.6-26.1c-0.5-13.9-12.9-25.2-26.8-24.3
			c-5.9,0.4-11.2,2.7-15.3,6.3c6.3,4.2,10.7,11.2,11.2,19.4c0.9,14-15.5,12.4-14.6,26.3c0.5,8.4,6.6,10.5,11.6,13.7
			c-23.7,1.7-41.8,22.4-40.2,46.2c0.6,9.4,4.2,17.9,9.9,24.8c-4.6,7.5-7.1,16.4-6.5,25.8s4.2,17.9,9.9,24.8
			c-4.6,7.4-7.1,16.4-6.5,25.8s4.2,17.9,9.9,24.8c-4.6,7.5-7.1,16.4-6.5,25.8c0.1,1.9,0.3,3.8,0.7,5.7c0.7,3.5-3.5,5.8-6.1,3.3
			c-4.8-4.5-7.2-11.8-16.6-11.2c-14,0.9-10.2,17-24.2,17.9s-12.4-15.5-26.3-14.6c-14,0.9-10.2,17-24.2,17.9s-12.4-15.5-26.3-14.6
			c-14.1,1-10.3,17.1-24.3,18c-8.2,0.5-15.7-2.9-20.8-8.5c-3,4.5-4.6,10-4.1,15.9c1.1,13.9,13.9,24.7,27.8,23.3
			c13.5-1.3,23.7-13.2,22.8-26.9c0.9,14,13,24.5,27,23.6s24.5-13,23.6-27c0.9,14,13,24.5,27,23.6s24.5-13,23.6-27
			c0.9,12.9,11.3,22.9,24,23.6c7.2,0.4,14.4-2.5,19.5-7.7c5-5.2,7.5-12.2,7.1-19.3c0.4,6.6,3.5,12.9,8.5,17.3
			c5.1,4.4,11.7,6.7,18.5,6.2c14-0.9,24.5-13,23.6-27s-13-24.5-27-23.6c14-0.9,24.5-13,23.6-27s-13-24.5-27-23.6
			c14-0.9,24.5-13,23.6-27s-13-24.5-27-23.6c14-0.9,24.5-13,23.6-27s-13-24.5-27-23.6C260.6,201.3,271.1,189.2,270.2,175.2z"/>
		<path class="st1" d="M83.6,177.7c0.4,5-3.4,9.3-8.4,9.7s-9.3-3.4-9.7-8.4c-0.4-5,3.4-9.3,8.4-9.7C78.9,169,83.3,172.7,83.6,177.7z
			"/>
		<path class="st1" d="M117.4,221.7c0.4,5-3.4,9.3-8.4,9.7s-9.3-3.4-9.7-8.4s3.4-9.3,8.4-9.7C112.7,212.9,117,216.7,117.4,221.7z"/>
		<path class="st1" d="M193.2,216.6c0.4,5-3.4,9.3-8.4,9.7s-9.3-3.4-9.7-8.4s3.4-9.3,8.4-9.7C188.6,207.9,192.9,211.7,193.2,216.6z"
			/>
		<path class="st1" d="M220.8,168.6c0.4,5-3.4,9.3-8.4,9.7s-9.3-3.4-9.7-8.4s3.4-9.3,8.4-9.7C216.2,159.8,220.5,163.5,220.8,168.6z"
			/>
		<path class="st1" d="M152.2,173.2c0.4,5-3.4,9.3-8.4,9.7s-9.3-3.4-9.7-8.4s3.4-9.3,8.4-9.7C147.5,164.4,151.9,168.1,152.2,173.2z"
			/>
		<path class="st1" d="M157.9,258.9c0.4,5-3.4,9.3-8.4,9.7s-9.3-3.4-9.7-8.4s3.4-9.3,8.4-9.7C153.3,250.1,157.6,253.9,157.9,258.9z"
			/>
		<path class="st1" d="M89.4,263.5c0.4,5-3.4,9.3-8.4,9.7c-5,0.4-9.3-3.4-9.7-8.4c-0.4-5,3.4-9.3,8.4-9.7
			C84.7,254.7,89,258.5,89.4,263.5z"/>
		<path class="st1" d="M95.1,349.3c0.4,5-3.4,9.3-8.4,9.7s-9.3-3.4-9.7-8.4c-0.4-5,3.4-9.3,8.4-9.7S94.7,344.2,95.1,349.3z"/>
		<path class="st1" d="M122.7,301.2c0.4,5-3.4,9.3-8.4,9.7c-5,0.4-9.3-3.4-9.7-8.4c-0.4-5,3.4-9.3,8.4-9.7
			C118.1,292.4,122.4,296.2,122.7,301.2z"/>
		<path class="st1" d="M198.5,296.1c0.4,5-3.4,9.3-8.4,9.7c-5,0.4-9.3-3.4-9.7-8.4s3.4-9.3,8.4-9.7S198.1,291.1,198.5,296.1z"/>
		<path class="st1" d="M163.7,344.7c0.4,5-3.4,9.3-8.4,9.7c-5,0.4-9.3-3.4-9.7-8.4s3.4-9.3,8.4-9.7
			C159.1,335.9,163.4,339.6,163.7,344.7z"/>
		<path class="st0" d="M467.2,245.5c-0.9-14-13-24.5-27-23.6c14-0.9,24.5-13,23.6-27c-0.9-13.9-13-24.5-27-23.6s-24.5,13-23.6,27
			c-0.9-14-13-24.5-27-23.6s-24.5,13-23.6,27c-0.9-14-13-24.5-27-23.6s-24.5,13-23.6,27c-0.9-14-13-24.5-27-23.6s-24.5,13-23.6,27
			c-0.9-14-13-24.5-27-23.6c-13.9,0.9-24.5,13-23.6,27c0.9,13.9,13,24.5,27,23.6c-14,0.9-24.5,13-23.6,27s13,24.5,27,23.6
			c-14,0.9-24.5,13-23.6,27s13,24.5,27,23.6c-14,0.9-24.5,13-23.6,27c0.9,13.9,13,24.5,27,23.6c-14,0.9-24.5,13-23.6,27
			s13,24.5,27,23.6c-14,0.9-24.5,13-23.6,27s13,24.5,27,23.6c13.9-0.9,24.5-13,23.6-27c0.9,14,13,24.5,27,23.6s24.5-13,23.6-27
			c0.9,14,13,24.5,27,23.6s24.5-13,23.6-27c0.9,14,13,24.5,27,23.6s24.5-13,23.6-27c0.9,14,13,24.5,27,23.6s24.5-13,23.6-27
			s-13-24.5-27-23.6c14-0.9,24.5-13,23.6-27s-13-24.5-27-23.6c14-0.9,24.5-13,23.6-27s-13-24.5-27-23.6c14-0.9,24.5-13,23.6-27
			s-13-24.5-27-23.6C457.6,271.5,468.1,259.5,467.2,245.5z"/>
		<path class="st0" d="M467.2,245.5c-0.9-14-13-24.5-27-23.6c14-0.9,24.5-13,23.6-27c-0.9-13.9-13-24.5-27-23.6s-24.5,13-23.6,27
			c-0.9-14-13-24.5-27-23.6s-24.5,13-23.6,27c-0.9-14-13-24.5-27-23.6s-24.5,13-23.6,27c-0.9-14-13-24.5-27-23.6s-24.5,13-23.6,27
			c-0.9-14-13-24.5-27-23.6c-13.9,0.9-24.5,13-23.6,27c0.9,13.9,13,24.5,27,23.6c-14,0.9-24.5,13-23.6,27s13,24.5,27,23.6
			c-14,0.9-24.5,13-23.6,27s13,24.5,27,23.6c-14,0.9-24.5,13-23.6,27c0.9,13.9,13,24.5,27,23.6c-14,0.9-24.5,13-23.6,27
			s13,24.5,27,23.6c-14,0.9-24.5,13-23.6,27s13,24.5,27,23.6c13.9-0.9,24.5-13,23.6-27c0.9,14,13,24.5,27,23.6s24.5-13,23.6-27
			c0.9,14,13,24.5,27,23.6s24.5-13,23.6-27c0.9,14,13,24.5,27,23.6s24.5-13,23.6-27c0.9,14,13,24.5,27,23.6s24.5-13,23.6-27
			s-13-24.5-27-23.6c14-0.9,24.5-13,23.6-27s-13-24.5-27-23.6c14-0.9,24.5-13,23.6-27s-13-24.5-27-23.6c14-0.9,24.5-13,23.6-27
			s-13-24.5-27-23.6C457.6,271.5,468.1,259.5,467.2,245.5z"/>
		<g>
			<path class="st1" d="M467.2,245.5c-0.9-14-13-24.5-27-23.6c14-0.9,24.5-13,23.6-27c-0.9-13.9-13-24.5-27-23.6
				c-5.8,0.4-11,2.7-15,6.3c6.3,4.2,10.7,11.2,11.2,19.4c0.9,14-15.5,12.4-14.6,26.3c0.9,14,17,10.2,17.9,24.2
				c0.9,14-15.5,12.4-14.6,26.3c0.9,14,17,10.2,17.9,24.2s-15.5,12.4-14.6,26.3c0.9,14,17,10.2,17.9,24.2s-15.5,12.4-14.6,26.3
				c0.9,14,17,10.2,17.9,24.2s-15.5,12.4-14.6,26.3c0.1,1.4,0.3,2.6,0.7,3.6c-1.2,0-2.4,0.1-4.1,0.2c-14,0.9-10.2,17-24.2,17.9
				s-12.4-15.5-26.3-14.6c-14,0.9-10.2,17-24.2,17.9s-12.4-15.5-26.3-14.6c-14,0.9-10.2,17-24.2,17.9s-12.4-15.5-26.3-14.6
				c-14,0.9-10.2,17-24.2,17.9c-8.2,0.5-15.7-2.9-20.8-8.5c-3,4.5-4.6,9.9-4.2,15.7c0.9,14,13,24.5,27,23.6c14-0.9,24.5-13,23.6-27
				c0.9,14,13,24.5,27,23.6s24.5-13,23.6-27c0.9,14,13,24.5,27,23.6s24.5-13,23.6-27c0.9,14,13,24.5,27,23.6s24.5-13,23.6-27
				c0.9,14.1,13.5,24.5,27,23.6c14-0.9,24.5-13,23.6-27s-13-24.5-27-23.6c14-0.9,24.5-13,23.6-27s-13-24.5-27-23.6
				c14-0.9,24.5-13,23.6-27s-13-24.5-27-23.6c14-0.9,24.5-13,23.6-27s-13-24.5-27-23.6C457.6,271.5,468.1,259.5,467.2,245.5z"/>
			<path class="st1" d="M280.5,248c0.4,5-3.4,9.3-8.4,9.7c-5,0.4-9.3-3.4-9.7-8.4s3.4-9.3,8.4-9.7C275.9,239.2,280.2,243,280.5,248z
				"/>
			<path class="st1" d="M314.3,292c0.4,5-3.4,9.3-8.4,9.7c-5,0.4-9.3-3.4-9.7-8.4c-0.4-5,3.4-9.3,8.4-9.7
				C309.7,283.3,314,287,314.3,292z"/>
			<path class="st1" d="M390.1,286.9c0.4,5-3.4,9.3-8.4,9.7c-5,0.4-9.3-3.4-9.7-8.4c-0.4-5,3.4-9.3,8.4-9.7
				C385.4,278.2,389.8,282,390.1,286.9z"/>
			<path class="st1" d="M417.8,238.8c0.4,5-3.4,9.3-8.4,9.7s-9.3-3.4-9.7-8.4c-0.4-5,3.4-9.3,8.4-9.7
				C413.1,230.1,417.4,233.9,417.8,238.8z"/>
			<path class="st1" d="M349.1,243.4c0.4,5-3.4,9.3-8.4,9.7s-9.3-3.4-9.7-8.4s3.4-9.3,8.4-9.7C344.5,234.6,348.8,238.5,349.1,243.4z
				"/>
			<path class="st1" d="M354.9,329.2c0.4,5-3.4,9.3-8.4,9.7c-5,0.4-9.3-3.4-9.7-8.4c-0.4-5,3.4-9.3,8.4-9.7
				C350.2,320.4,354.5,324.2,354.9,329.2z"/>
			<path class="st1" d="M423.5,324.6c0.4,5-3.4,9.3-8.4,9.7s-9.3-3.4-9.7-8.4c-0.4-5,3.4-9.3,8.4-9.7
				C418.8,315.9,423.1,319.6,423.5,324.6z"/>
			<path class="st1" d="M286.2,333.7c0.4,5-3.4,9.3-8.4,9.7c-5,0.4-9.3-3.4-9.7-8.4c-0.4-5,3.4-9.3,8.4-9.7
				C281.6,325,286,328.7,286.2,333.7z"/>
			<path class="st1" d="M292,419.5c0.4,5-3.4,9.3-8.4,9.7c-5,0.4-9.3-3.4-9.7-8.4c-0.4-5,3.4-9.3,8.4-9.7
				C287.4,410.7,291.7,414.5,292,419.5z"/>
			<path class="st1" d="M319.6,371.4c0.4,5-3.4,9.3-8.4,9.7c-5,0.4-9.3-3.4-9.7-8.4c-0.4-5,3.4-9.3,8.4-9.7
				C314.9,362.6,319.2,366.4,319.6,371.4z"/>
			<path class="st1" d="M395.5,366.3c0.4,5-3.4,9.3-8.4,9.7c-5,0.4-9.3-3.4-9.7-8.4c-0.4-5,3.4-9.3,8.4-9.7
				C390.8,357.6,395.1,361.3,395.5,366.3z"/>
			<path class="st1" d="M429.2,410.3c0.4,5-3.4,9.3-8.4,9.7c-5,0.4-9.3-3.4-9.7-8.4c-0.4-5,3.4-9.3,8.4-9.7
				C424.6,401.6,428.9,405.4,429.2,410.3z"/>
			<path class="st1" d="M360.6,414.9c0.4,5-3.4,9.3-8.4,9.7c-5,0.4-9.3-3.4-9.7-8.4s3.4-9.3,8.4-9.7
				C355.9,406.1,360.2,410,360.6,414.9z"/>
		</g>
	</g>
</g>
</svg>
