<?xml version="1.0" encoding="utf-8"?>
<!-- Generator: Adobe Illustrator 24.0.0, SVG Export Plug-In . SVG Version: 6.00 Build 0)  -->
<svg version="1.1" xmlns="http://www.w3.org/2000/svg" xmlns:xlink="http://www.w3.org/1999/xlink" x="0px" y="0px"
	 viewBox="0 0 503.9 503.9" style="enable-background:new 0 0 503.9 503.9;" xml:space="preserve">
<style type="text/css">
	.st0{fill:#B2D5FF;}
	.st1{fill:#7FB241;}
	.st2{fill:#8E6D53;}
	.st3{fill:#E14B4B;}
	.st4{fill:#D03F3F;}
</style>
<g id="Layer_2">
	<circle class="st0" cx="251.9" cy="251.9" r="251.9"/>
</g>
<g id="Capa_1">
	<g>
		<path class="st1" d="M253.3,146.1c-64,5.6-111.2-41.6-105.6-105.6C211.7,34.9,258.9,82.1,253.3,146.1z"/>
		<path class="st2" d="M255.7,190.7c-5.5-1.4-9.9-6.1-10.5-12c-3-27.4,4.8-54.4,22.1-75.9c17.3-21.5,41.9-35,69.3-38.1
			c7.7-0.8,14.6,4.7,15.4,12.4c0.8,7.7-4.7,14.6-12.4,15.4c-20,2.2-37.9,12-50.5,27.7c-12.6,15.7-18.3,35.3-16.1,55.3
			c0.8,7.7-4.7,14.6-12.4,15.5C259,191.2,257.3,191.1,255.7,190.7z"/>
		<path class="st3" d="M359.5,145.9c-15.3-4.1-31.1-3.2-46.5,1.8c-39.8,12.8-82.1,12.8-121.9,0c-15.5-5-31.3-5.8-46.5-1.8
			c-61,16.2-90.4,104.4-65.7,197s94.1,154.4,155,138.2c0.1,0,0.1,0,0.2-0.1c11.8-3.2,24.2-3.2,36,0c0.1,0,0.1,0,0.2,0.1
			c60.9,16.2,130.3-45.6,155-138.2C449.8,250.4,420.4,162.2,359.5,145.9z"/>
		<path class="st4" d="M425.2,342.9c-24.6,92.5-94.1,154.4-155.1,138.2h-0.1c-11.8-3.2-24.2-3.2-36.1,0h-0.1
			c-23,6.1-47,1.1-69.4-12.3C283.9,422.6,373.5,306,392.2,163.9C430.1,197.8,444.9,268.9,425.2,342.9z"/>
	</g>
</g>
</svg>
