<?xml version="1.0" encoding="utf-8"?>
<!-- Generator: Adobe Illustrator 24.0.0, SVG Export Plug-In . SVG Version: 6.00 Build 0)  -->
<svg version="1.1" id="cookie" xmlns="http://www.w3.org/2000/svg" xmlns:xlink="http://www.w3.org/1999/xlink" x="0px" y="0px"
	 viewBox="0 0 512 512" style="enable-background:new 0 0 512 512;" xml:space="preserve">
<style type="text/css">
	.bitcookie_st0{fill:#C68642;}
	.bitcookie_st1{fill:#3E2723;}
	.bitcookie_st2{fill:#4E342E;}
	.bitcookie_st3{fill:#8D6E63;}
	.bitcookie_st4{fill:#8D5524;}
	.bitcookie_st5{fill:#E0AC69;}
</style>
<polygon id="base" class="bitcookie_st0" points="480,160 480,96 448,96 448,64 416,64 416,32 352,32 352,0 160,0 160,32 96,32 96,64 64,64 
	64,96 32,96 32,160 0,160 0,352 32,352 32,416 64,416 64,448 96,448 96,480 160,480 160,512 352,512 352,480 416,480 416,448 
	448,448 448,416 480,416 480,352 512,352 512,160 "/>
<g id="border">
	<rect y="160" width="32" height="192"/>
	<rect x="32" y="96" width="32" height="64"/>
	<rect x="64" y="64" width="32" height="32"/>
	<rect x="96" y="32" width="64" height="32"/>
	<rect x="160" y="0" width="192" height="32"/>
	<rect x="352" y="32" width="64" height="32"/>
	<rect x="416" y="64" width="32" height="32"/>
	<rect x="448" y="96" width="32" height="64"/>
	<rect x="480" y="160" width="32" height="192"/>
	<rect x="448" y="352" width="32" height="64"/>
	<rect x="416" y="416" width="32" height="32"/>
	<rect x="352" y="448" width="64" height="32"/>
	<rect x="160" y="480" width="192" height="32"/>
	<rect x="96" y="448" width="64" height="32"/>
	<rect x="64" y="416" width="32" height="32"/>
	<rect x="32" y="352" width="32" height="64"/>
</g>
<g id="bits">
	<rect x="176" y="176" transform="matrix(6.123234e-17 -1 1 6.123234e-17 -16 400)" class="bitcookie_st1" width="32" height="64"/>
	<rect x="160" y="160" class="bitcookie_st2" width="32" height="32"/>
	<rect x="192" y="160" class="bitcookie_st3" width="32" height="32"/>
	<rect x="160" y="96" class="bitcookie_st3" width="32" height="32"/>
	<rect x="96" y="128" class="bitcookie_st2" width="32" height="32"/>
	<rect x="96" y="224" class="bitcookie_st2" width="32" height="32"/>
	<rect x="272" y="240" transform="matrix(6.123234e-17 -1 1 6.123234e-17 16 560)" class="bitcookie_st1" width="32" height="64"/>
	<rect x="256" y="224" class="bitcookie_st2" width="32" height="32"/>
	<rect x="288" y="224" class="bitcookie_st3" width="32" height="32"/>
	<rect x="368" y="112" transform="matrix(6.123234e-17 -1 1 6.123234e-17 240 528)" class="bitcookie_st1" width="32" height="64"/>
	<rect x="352" y="96" class="bitcookie_st2" width="32" height="32"/>
	<rect x="384" y="96" class="bitcookie_st3" width="32" height="32"/>
	<rect x="368" y="304" transform="matrix(6.123234e-17 -1 1 6.123234e-17 48 720)" class="bitcookie_st1" width="32" height="64"/>
	<rect x="352" y="288" class="bitcookie_st2" width="32" height="32"/>
	<rect x="384" y="288" class="bitcookie_st3" width="32" height="32"/>
	<rect x="288" y="96" class="bitcookie_st1" width="32" height="32"/>
	<rect x="96" y="320" class="bitcookie_st1" width="32" height="32"/>
	<rect x="176" y="368" transform="matrix(6.123234e-17 -1 1 6.123234e-17 -208 592)" class="bitcookie_st1" width="32" height="64"/>
	<rect x="160" y="352" class="bitcookie_st2" width="32" height="32"/>
	<rect x="192" y="352" class="bitcookie_st3" width="32" height="32"/>
	<rect x="64" y="288" class="bitcookie_st3" width="32" height="32"/>
	<rect x="416" y="224" class="bitcookie_st2" width="32" height="32"/>
	<rect x="320" y="192" class="bitcookie_st1" width="32" height="32"/>
	<rect x="256" y="352" class="bitcookie_st1" width="32" height="32"/>
	<rect x="240" y="368" transform="matrix(6.123234e-17 -1 1 6.123234e-17 -208 720)" class="bitcookie_st4" width="32" height="192"/>
	<rect x="368" y="400" transform="matrix(6.123234e-17 -1 1 6.123234e-17 -48 816)" class="bitcookie_st4" width="32" height="64"/>
	<rect x="400" y="368" transform="matrix(6.123234e-17 -1 1 6.123234e-17 16 816)" class="bitcookie_st4" width="32" height="64"/>
	<rect x="416" y="352" class="bitcookie_st4" width="32" height="32"/>
	<rect x="448" y="320" class="bitcookie_st4" width="32" height="32"/>
	<rect x="240" y="-48" transform="matrix(-1.836970e-16 1 -1 -1.836970e-16 304 -208)" class="bitcookie_st5" width="32" height="192"/>
	<rect x="112" y="48" transform="matrix(-1.836970e-16 1 -1 -1.836970e-16 208 -48)" class="bitcookie_st5" width="32" height="64"/>
	<rect x="80" y="80" transform="matrix(-1.836970e-16 1 -1 -1.836970e-16 208 16)" class="bitcookie_st5" width="32" height="64"/>
	<rect x="64" y="128" transform="matrix(-1 -1.224647e-16 1.224647e-16 -1 160 288)" class="bitcookie_st5" width="32" height="32"/>
	<rect x="32" y="160" transform="matrix(-1 -1.224647e-16 1.224647e-16 -1 96 352)" class="bitcookie_st5" width="32" height="32"/>
</g>
</svg>
